<?xml version="1.0" encoding="utf-8"?>
<!-- Generator: Adobe Illustrator 18.1.1, SVG Export Plug-In . SVG Version: 6.00 Build 0)  -->
<!DOCTYPE svg PUBLIC "-//W3C//DTD SVG 1.1//EN" "http://www.w3.org/Graphics/SVG/1.1/DTD/svg11.dtd">
<svg version="1.1" id="Layer_1" xmlns="http://www.w3.org/2000/svg" xmlns:xlink="http://www.w3.org/1999/xlink" x="0px" y="0px"
	 viewBox="0 0 614 572.2" enable-background="new 0 0 614 572.2" xml:space="preserve">
<path fill="#C4E8F5" d="M115.5,549c17.7,1,51.7-5,69.4-4c50.1,2.7,95.7,20.5,145.9,21.9c22.6,0.6,44.9,3.4,67.5,4.2
	c65.3,2.4,151.4-10,215.6,1L614,4.3c-63.4-17.4-132.3,23.9-198.7,20.3c-22.1-1.2-44-4.8-66.1-5.8c-49.2-2.2-98.4,8.8-147.4,5
	c-17.4-1.3-34.5-4.5-51.8-5.9C100.7,14,48.6,49.2,0,41.5v481C47.3,528.7,66.3,546.3,115.5,549z"/>
</svg>
