<?xml version="1.0" encoding="utf-8"?>
<!-- Generator: Adobe Illustrator 18.1.1, SVG Export Plug-In . SVG Version: 6.00 Build 0)  -->
<!DOCTYPE svg PUBLIC "-//W3C//DTD SVG 1.1//EN" "http://www.w3.org/Graphics/SVG/1.1/DTD/svg11.dtd">
<svg version="1.1" id="Layer_1" xmlns="http://www.w3.org/2000/svg" xmlns:xlink="http://www.w3.org/1999/xlink" x="0px" y="0px"
	 viewBox="0 0 684 297" enable-background="new 0 0 684 297" xml:space="preserve">
<path fill="none" stroke="#1C75BC" stroke-width="19.801" stroke-linecap="round" stroke-linejoin="round" stroke-miterlimit="10" d="
	M11.4,14.8h551.5c0,0,7.4,141.5,109.7,267.5l-550.9-0.8C121.7,281.4,11.4,158.9,11.4,14.8z"/>
<rect x="319.5" y="73" fill="none" width="388.5" height="259.4"/>
<g enable-background="new    ">
	<path fill="#1C75BC" d="M321.1,123.4c0.7,0.5,1.7,0.9,2.9,1.3c1.2,0.4,2.5,0.6,3.9,0.6c1.8,0,3.3-0.3,4.4-1
		c1.1-0.7,1.9-1.6,2.5-2.9c0.6-1.3,0.9-2.9,1.1-4.7c0.2-1.9,0.3-4,0.3-6.4V92h3.5v18.3c0,2.7-0.1,5.2-0.4,7.5
		c-0.3,2.2-0.8,4.2-1.6,5.7c-0.8,1.6-2,2.8-3.5,3.7c-1.6,0.9-3.6,1.3-6.3,1.3c-3,0-5.6-0.7-7.8-2.2L321.1,123.4z"/>
	<path fill="#1C75BC" d="M362.7,128.2c-2.5,0-4.8-0.5-6.9-1.5s-3.9-2.4-5.3-4.1c-1.5-1.7-2.6-3.7-3.4-5.8c-0.8-2.2-1.2-4.4-1.2-6.7
		c0-2.4,0.4-4.7,1.3-6.9c0.9-2.2,2-4.1,3.6-5.8c1.5-1.7,3.3-3,5.4-4c2.1-1,4.3-1.5,6.7-1.5c2.5,0,4.8,0.5,6.9,1.6s3.8,2.5,5.3,4.2
		s2.6,3.7,3.4,5.8c0.8,2.2,1.2,4.4,1.2,6.7c0,2.4-0.4,4.7-1.3,6.9c-0.9,2.2-2,4.1-3.5,5.8c-1.5,1.7-3.3,3-5.3,4
		C367.4,127.7,365.1,128.2,362.7,128.2z M349.4,110c0,2,0.3,3.8,1,5.6c0.6,1.8,1.6,3.4,2.7,4.8c1.2,1.4,2.6,2.5,4.2,3.3
		c1.6,0.8,3.4,1.2,5.4,1.2c2,0,3.9-0.4,5.5-1.3c1.7-0.9,3.1-2,4.2-3.4c1.1-1.4,2-3,2.7-4.8c0.6-1.8,0.9-3.6,0.9-5.5
		c0-2-0.3-3.8-1-5.6c-0.7-1.8-1.6-3.4-2.8-4.8c-1.2-1.4-2.6-2.5-4.2-3.3c-1.6-0.8-3.4-1.2-5.4-1.2c-2,0-3.9,0.4-5.5,1.3
		c-1.7,0.9-3.1,2-4.2,3.4c-1.1,1.4-2,3-2.7,4.8C349.7,106.3,349.4,108.1,349.4,110z"/>
	<path fill="#1C75BC" d="M386.3,127.9V92h3.5v35.9H386.3z"/>
	<path fill="#1C75BC" d="M402.4,98.6v29.4h-3.5V92h2.7l23.8,29.9V92h3.5v35.9h-3.1L402.4,98.6z"/>
	<path fill="#1C75BC" d="M474.9,95.1h-12.8v32.8h-3.5V95.1h-12.8V92h29.2V95.1z"/>
	<path fill="#1C75BC" d="M508.6,92v35.9h-3.5v-16.8h-21.3v16.8h-3.5V92h3.5v16h21.3V92H508.6z"/>
	<path fill="#1C75BC" d="M541.8,124.8v3.1h-24.1V92h23.7v3.1h-20.1v13h17.6v3h-17.6v13.7H541.8z"/>
</g>
<g enable-background="new    ">
	<path fill="#1C75BC" d="M364.4,159h-19.2v49.2h-5.3V159h-19.2v-4.7h43.7V159z"/>
	<path fill="#1C75BC" d="M408.7,203.5v4.7h-36.2v-53.9H408v4.7h-30.2v19.4h26.3v4.5h-26.3v20.6H408.7z"/>
	<path fill="#1C75BC" d="M435.4,154.3h4.5l22.4,53.9h-5.6l-7-16.9h-24.2l-6.9,16.9h-5.7L435.4,154.3z M448.5,187.2l-10.9-26.6
		l-11,26.6H448.5z"/>
	<path fill="#1C75BC" d="M517.8,208.2V164l-19.7,34.2H495L475.4,164v44.3H470v-53.9h5.5l21,36.9l21.2-36.9h5.4v53.9H517.8z"/>
	<path fill="#1C75BC" d="M536.9,190.9v-37.1h5.2v37.1H536.9z M536.9,208.2v-8.5h5.2v8.5H536.9z"/>
</g>
<g>
	<path fill="#1C75BC" d="M78.7,187c0-25,20.2-45.2,45.2-45.2s45.2,20.2,45.2,45.2"/>
	<path fill="#1C75BC" d="M209.2,185.4c0-25,20.2-45.2,45.2-45.2s45.2,20.2,45.2,45.2"/>
	<path fill="#1C75BC" d="M143.1,211.3c0-25,20.2-45.2,45.2-45.2s45.2,20.2,45.2,45.2"/>
	<circle fill="#1C75BC" cx="189.5" cy="140.9" r="22.4"/>
	<circle fill="#1C75BC" cx="124.1" cy="115.8" r="22.4"/>
	<circle fill="#1C75BC" cx="254.8" cy="115.8" r="22.4"/>
</g>
</svg>
