<?xml version="1.0" encoding="utf-8"?>
<!-- Generator: Adobe Illustrator 18.1.1, SVG Export Plug-In . SVG Version: 6.00 Build 0)  -->
<!DOCTYPE svg PUBLIC "-//W3C//DTD SVG 1.1//EN" "http://www.w3.org/Graphics/SVG/1.1/DTD/svg11.dtd">
<svg version="1.1" id="Layer_1" xmlns="http://www.w3.org/2000/svg" xmlns:xlink="http://www.w3.org/1999/xlink" x="0px" y="0px"
	 viewBox="0 0 592.2 251.3" enable-background="new 0 0 592.2 251.3" xml:space="preserve">
<path fill="none" stroke="#1C75BC" stroke-width="19.7226" stroke-linecap="round" stroke-linejoin="round" stroke-miterlimit="10" d="
	M9.9,9.9h477.5c0,0,6.4,122.5,95,231.6l-477-0.7C105.4,240.7,9.9,134.7,9.9,9.9z"/>
<g>
	<rect x="209.2" y="73.2" fill="none" width="272.3" height="112.3"/>
	<text transform="matrix(1 0 0 1 209.2103 108.1147)"><tspan x="0" y="0" fill="#1C75BC" font-family="'Raleway-Regular'" font-size="47.8282">HELP AND </tspan><tspan x="0" y="69.6" fill="#1C75BC" font-family="'Raleway-Regular'" font-size="62">DONATE!</tspan></text>
	<g>
		<g>
			<g>
				<path fill="none" stroke="#1C75BC" stroke-width="15.6529" stroke-miterlimit="10" d="M181.9,83.8h-73.8c0,0-19.5-1.9-17.7,22.9
					v53"/>
				<g>
					<polygon fill="#1C75BC" points="75.6,155.3 90.5,181 105.3,155.3 					"/>
				</g>
			</g>
		</g>
		<g>
			<g>
				<path fill="none" stroke="#1C75BC" stroke-width="15.6529" stroke-miterlimit="10" d="M90.4,169.5h73.9c0,0,19.5,1.9,17.7-22.9
					v-53"/>
				<g>
					<polygon fill="#1C75BC" points="196.8,98 181.9,72.3 167.1,98 					"/>
				</g>
			</g>
		</g>
		<line fill="none" stroke="#C4E8F5" stroke-width="4.8837" stroke-miterlimit="10" x1="153.4" y1="116.2" x2="185" y2="65.8"/>
		<line fill="none" stroke="#C4E8F5" stroke-width="4.8837" stroke-miterlimit="10" x1="89.1" y1="184.2" x2="120.7" y2="133.8"/>
		<path fill="#1C75BC" d="M153.1,118.9C153.1,118.9,153.1,118.9,153.1,118.9c0-5.7-4.5-10.2-10.1-10.2c-5.3,0-9.6,4.1-10.1,9.3
			c-0.5-5.2-4.8-9.2-10.1-9.2c-5.6,0-10.1,4.5-10.1,10.1c0,0,0.2,2,0.2,2.2c0.8,5.1,4.4,18.4,20,28.3h0.1
			C152.9,136.9,153.1,118.9,153.1,118.9z"/>
	</g>
</g>
</svg>
