<?xml version="1.0" encoding="utf-8"?>
<!-- Generator: Adobe Illustrator 18.1.1, SVG Export Plug-In . SVG Version: 6.00 Build 0)  -->
<!DOCTYPE svg PUBLIC "-//W3C//DTD SVG 1.1//EN" "http://www.w3.org/Graphics/SVG/1.1/DTD/svg11.dtd">
<svg version="1.1" id="Layer_1" xmlns="http://www.w3.org/2000/svg" xmlns:xlink="http://www.w3.org/1999/xlink" x="0px" y="0px"
	 viewBox="0 0 594.6 252.3" enable-background="new 0 0 594.6 252.3" xml:space="preserve">
<path fill="none" stroke="#1C75BC" stroke-width="19.801" stroke-linecap="round" stroke-linejoin="round" stroke-miterlimit="10" d="
	M9.9,9.9h479.4c0,0,6.4,123,95.4,232.5l-478.9-0.7C105.8,241.7,9.9,135.2,9.9,9.9z"/>
<rect x="277.7" y="60.5" fill="none" width="337.7" height="225.5"/>
<text transform="matrix(1 0 0 1 277.6707 108.2696)"><tspan x="0" y="0" fill="#1C75BC" font-family="'Raleway-Regular'" font-size="44">JOIN THE</tspan><tspan x="196.4" y="0" fill="#1C75BC" font-family="'Raleway-Regular'" font-size="65.4794">  </tspan><tspan x="0" y="69.8" fill="#1C75BC" font-family="'Raleway-Regular'" font-size="66">TEAM!</tspan></text>
<g>
	<path fill="#1C75BC" d="M68.4,159.6c0-21.7,17.6-39.3,39.3-39.3s39.3,17.6,39.3,39.3"/>
	<path fill="#1C75BC" d="M181.9,158.2c0-21.7,17.6-39.3,39.3-39.3s39.3,17.6,39.3,39.3"/>
	<path fill="#1C75BC" d="M124.4,180.7c0-21.7,17.6-39.3,39.3-39.3S203,159,203,180.7"/>
	<circle fill="#1C75BC" cx="164.7" cy="119.5" r="19.5"/>
	<circle fill="#1C75BC" cx="107.9" cy="97.7" r="19.5"/>
	<circle fill="#1C75BC" cx="221.5" cy="97.7" r="19.5"/>
</g>
</svg>
