<?xml version="1.0" encoding="utf-8"?>
<!-- Generator: Adobe Illustrator 18.1.1, SVG Export Plug-In . SVG Version: 6.00 Build 0)  -->
<!DOCTYPE svg PUBLIC "-//W3C//DTD SVG 1.1//EN" "http://www.w3.org/Graphics/SVG/1.1/DTD/svg11.dtd">
<svg version="1.1" id="Layer_1" xmlns="http://www.w3.org/2000/svg" xmlns:xlink="http://www.w3.org/1999/xlink" x="0px" y="0px"
	 viewBox="0 0 684 297" enable-background="new 0 0 684 297" xml:space="preserve">
<path fill="none" stroke="#1C75BC" stroke-width="19.7226" stroke-linecap="round" stroke-linejoin="round" stroke-miterlimit="10" d="
	M11.4,14.8H563c0,0,7.4,141.5,109.7,267.5l-550.9-0.8C121.7,281.4,11.4,159,11.4,14.8z"/>
<g>
	<rect x="241.6" y="87.9" fill="none" width="314.5" height="129.7"/>
	<g enable-background="new    ">
		<path fill="#1C75BC" d="M277.5,89v39.2h-3.8v-18.3h-23.3v18.3h-3.9V89h3.9v17.5h23.3V89H277.5z"/>
		<path fill="#1C75BC" d="M313.7,124.8v3.4h-26.4V89h25.9v3.4h-22v14.1h19.2v3.3h-19.2v15H313.7z"/>
		<path fill="#1C75BC" d="M321,128.2V89h3.9v35.8h22.6v3.4H321z"/>
		<path fill="#1C75BC" d="M353.2,128.2V89h16.2c1.7,0,3.2,0.4,4.7,1.1c1.4,0.7,2.6,1.7,3.7,2.8c1,1.2,1.8,2.5,2.4,4
			c0.6,1.5,0.9,3,0.9,4.5c0,1.6-0.3,3.2-0.8,4.7c-0.6,1.5-1.3,2.8-2.3,3.9c-1,1.1-2.2,2.1-3.6,2.8c-1.4,0.7-2.9,1-4.6,1H357v14.5
			H353.2z M357,110.3h12.5c1.1,0,2.2-0.2,3.1-0.7c0.9-0.5,1.7-1.2,2.4-2s1.2-1.8,1.5-2.9c0.4-1.1,0.6-2.2,0.6-3.4
			c0-1.2-0.2-2.4-0.6-3.5c-0.4-1.1-1-2-1.7-2.8c-0.7-0.8-1.6-1.4-2.5-1.9c-1-0.5-2-0.7-3.1-0.7H357V110.3z"/>
		<path fill="#1C75BC" d="M410.6,89h3.3l16.3,39.2H426L421,116h-17.6l-5,12.3h-4.1L410.6,89z M420.1,112.9l-7.9-19.4l-8,19.4H420.1z
			"/>
		<path fill="#1C75BC" d="M439.6,96.2v32h-3.9V89h3l26,32.6V89.1h3.9v39.2h-3.4L439.6,96.2z"/>
		<path fill="#1C75BC" d="M478.4,128.2V89h13.3c3.1,0,5.9,0.5,8.2,1.5c2.3,1,4.3,2.4,5.9,4.2c1.6,1.8,2.7,3.8,3.5,6.2
			s1.2,4.9,1.2,7.6c0,3-0.4,5.7-1.3,8.1c-0.9,2.4-2.1,4.5-3.8,6.2s-3.6,3-5.9,4s-4.9,1.4-7.8,1.4H478.4z M506.6,108.6
			c0-2.4-0.3-4.5-1-6.5c-0.7-2-1.6-3.7-2.9-5.1c-1.3-1.4-2.8-2.5-4.7-3.3c-1.8-0.8-4-1.2-6.4-1.2h-9.4v32.4h9.4
			c2.4,0,4.6-0.4,6.4-1.2c1.9-0.8,3.4-2,4.7-3.4c1.3-1.5,2.2-3.2,2.8-5.1C506.3,113,506.6,110.9,506.6,108.6z"/>
	</g>
	<g enable-background="new    ">
		<path fill="#1C75BC" d="M248,208.6v-50.8h17.3c4.1,0,7.6,0.7,10.6,2c3,1.3,5.6,3.2,7.6,5.4c2,2.3,3.6,5,4.6,8.1
			c1,3.1,1.5,6.4,1.5,9.8c0,3.9-0.6,7.4-1.7,10.5c-1.1,3.1-2.8,5.8-4.9,8c-2.1,2.2-4.7,3.9-7.7,5.2c-3,1.2-6.3,1.8-10.1,1.8H248z
			 M284.6,183.1c0-3.1-0.4-5.9-1.3-8.4c-0.9-2.6-2.1-4.8-3.8-6.6c-1.6-1.9-3.7-3.3-6.1-4.3c-2.4-1-5.1-1.5-8.2-1.5H253v42h12.2
			c3.2,0,5.9-0.5,8.3-1.6c2.4-1.1,4.4-2.6,6.1-4.4c1.6-1.9,2.9-4.1,3.7-6.7C284.2,188.9,284.6,186.2,284.6,183.1z"/>
		<path fill="#1C75BC" d="M319.7,209c-3.5,0-6.8-0.7-9.7-2.2c-2.9-1.5-5.5-3.4-7.6-5.8c-2.1-2.4-3.7-5.2-4.9-8.3
			c-1.1-3.1-1.7-6.3-1.7-9.5c0-3.4,0.6-6.6,1.8-9.7c1.2-3.1,2.9-5.8,5-8.2c2.1-2.4,4.7-4.3,7.6-5.7c2.9-1.4,6.1-2.1,9.5-2.1
			c3.5,0,6.8,0.8,9.7,2.3s5.4,3.5,7.5,5.9c2.1,2.4,3.7,5.2,4.8,8.3c1.1,3.1,1.7,6.2,1.7,9.4c0,3.4-0.6,6.6-1.8,9.7
			c-1.2,3.1-2.9,5.8-5,8.2c-2.1,2.4-4.6,4.2-7.6,5.7C326.2,208.3,323.1,209,319.7,209z M300.9,183.2c0,2.8,0.5,5.4,1.4,8
			c0.9,2.6,2.2,4.8,3.9,6.8c1.7,2,3.7,3.6,5.9,4.7c2.3,1.2,4.8,1.8,7.7,1.8c2.9,0,5.5-0.6,7.8-1.9c2.3-1.2,4.3-2.9,5.9-4.9
			c1.6-2,2.9-4.3,3.8-6.8c0.9-2.5,1.3-5.1,1.3-7.7c0-2.8-0.5-5.4-1.4-8c-0.9-2.6-2.2-4.8-3.9-6.8c-1.7-2-3.7-3.5-5.9-4.7
			c-2.3-1.2-4.8-1.8-7.6-1.8c-2.9,0-5.5,0.6-7.8,1.8c-2.3,1.2-4.3,2.8-5.9,4.8c-1.6,2-2.9,4.3-3.8,6.8
			C301.3,178,300.9,180.6,300.9,183.2z"/>
		<path fill="#1C75BC" d="M358,167.1v41.5h-5v-50.8h3.9l33.7,42.3v-42.3h5v50.8h-4.4L358,167.1z"/>
		<path fill="#1C75BC" d="M424,157.8h4.2l21.1,50.8h-5.3l-6.6-15.9h-22.8l-6.5,15.9h-5.4L424,157.8z M436.3,188.8l-10.2-25.1
			l-10.4,25.1H436.3z"/>
		<path fill="#1C75BC" d="M487.8,162.2h-18.1v46.4h-5v-46.4h-18.1v-4.4h41.2V162.2z"/>
		<path fill="#1C75BC" d="M529.5,204.2v4.4h-34.2v-50.8h33.5v4.4h-28.5v18.3h24.8v4.2h-24.8v19.4H529.5z"/>
		<path fill="#1C75BC" d="M539.2,192.3v-35h4.9v35H539.2z M539.2,208.6v-8h4.9v8H539.2z"/>
	</g>
	<g>
		<g>
			<g>
				<path fill="none" stroke="#1C75BC" stroke-width="15.6529" stroke-miterlimit="10" d="M210.1,100.2h-85.2
					c0,0-22.5-2.2-20.4,26.4v61.2"/>
				<g>
					<polygon fill="#1C75BC" points="87.3,182.7 104.5,212.4 121.6,182.7 					"/>
				</g>
			</g>
		</g>
		<g>
			<g>
				<path fill="none" stroke="#1C75BC" stroke-width="15.6529" stroke-miterlimit="10" d="M104.4,199.1h85.4c0,0,22.5,2.2,20.4-26.4
					v-61.2"/>
				<g>
					<polygon fill="#1C75BC" points="227.3,116.6 210.1,86.9 193,116.6 					"/>
				</g>
			</g>
		</g>
		<line fill="none" stroke="#C4E8F5" stroke-width="4.8837" stroke-miterlimit="10" x1="177.2" y1="137.6" x2="213.7" y2="79.4"/>
		<line fill="none" stroke="#C4E8F5" stroke-width="4.8837" stroke-miterlimit="10" x1="102.9" y1="216.1" x2="139.4" y2="157.9"/>
		<path fill="#1C75BC" d="M176.8,140.7L176.8,140.7c0-6.6-5.2-11.8-11.7-11.8c-6.1,0-11.1,4.7-11.7,10.7c-0.6-6-5.5-10.6-11.7-10.6
			c-6.5,0-11.7,5.2-11.7,11.7c0,0,0.2,2.3,0.2,2.5c0.9,5.9,5.1,21.3,23.1,32.7h0.1C176.6,161.5,176.8,140.7,176.8,140.7z"/>
	</g>
</g>
</svg>
