<?xml version="1.0" encoding="utf-8"?>
<!-- Generator: Adobe Illustrator 18.1.1, SVG Export Plug-In . SVG Version: 6.00 Build 0)  -->
<!DOCTYPE svg PUBLIC "-//W3C//DTD SVG 1.1//EN" "http://www.w3.org/Graphics/SVG/1.1/DTD/svg11.dtd">
<svg version="1.1" id="Layer_1" xmlns="http://www.w3.org/2000/svg" xmlns:xlink="http://www.w3.org/1999/xlink" x="0px" y="0px"
	 viewBox="-36.6 27.5 586 297" enable-background="new -36.6 27.5 586 297" xml:space="preserve">
<g>
	<rect x="-36.3" y="31.4" fill="#FFFFFF" width="584.1" height="293.1"/>
	<ellipse fill="#FFFFFF" cx="427.2" cy="211.1" rx="21.7" ry="18"/>
	<path fill="#C3E9F6" d="M549.4,27.5h-586v238.8l0.5,14.2c35,23.1,80.8,26.8,121.9,16.8c8.9-2.2,17.7-5.2,26.7-6
		c18.6-1.7,36.6,5.6,54.9,9.3c24.1,4.8,49.5,3.3,72.8-4.5c10.1-3.5,19.9-8,30.5-10.1c31.2-6.3,63.1,9.7,94.8,7.2
		c10.9-0.9,21.4-3.8,32.2-5.9c19.6-3.7,40.1-4.3,60-1.7c15,2,29.8,5.8,45,6.4c15.2,0.5,33.8-2.8,44.6-12.9l2.1-6.6L549.4,27.5
		L549.4,27.5z"/>
	<path fill="#3A82B4" d="M432.7,264.2l-8.6,18c-0.3,0.5,0.2,1.2,0.8,1.2l41.4-0.4c0.4,0,0.9,0.4,0.8,0.9l-0.1,5.2
		c0,0.4,0.3,0.7,0.6,0.8l6.9,1.7c0.5,0.1,1.1-0.3,1-0.8l-0.2-7.8c0-0.4,0.4-0.9,0.8-0.9h41.4c0.6,0,1.1-0.7,0.7-1.2l-19.1-33.9
		c-0.4-0.5,0.1-1.2,0.7-1.2h5c0.6,0,1.1-0.7,0.7-1.2l-16.9-31.1c-0.3-0.5,0.1-1.2,0.7-1.2h4c0.6,0,1.1-0.7,0.7-1.2l-13.6-23.4
		c-0.4-0.5,0.1-1.2,0.7-1.2h6.7c0.6,0,1-0.6,0.7-1.2l-9.9-19.5c-0.3-0.5,0.1-1.2,0.7-1.2h3.7c0.6,0,1-0.6,0.7-1.2L471,136.7
		c-0.4-0.6-1.2-0.6-1.5,0.1l-10.7,26.8c-0.2,0.5,0.2,1.2,0.8,1.2h2.5c0.6,0,1,0.6,0.7,1.2l-9.1,19.6c-0.3,0.5,0.2,1.2,0.7,1.2h5.2
		c0.6,0,1.1,0.7,0.7,1.2l-14.8,25.1c-0.4,0.5,0.1,1.2,0.7,1.2h6c0.6,0,1.1,0.7,0.7,1.2l-17.3,30.3c-0.4,0.5,0.1,1.2,0.7,1.2h3.2
		c0.6,0,1,0.6,0.7,1.2L432.7,264.2z"/>
	<path fill="#3A82B4" d="M-0.2,283.7l42.9,0.2c0.4,0,0.9,0.4,0.9,0.9v18.6c0,0.5,0.4,0.9,0.9,0.9l6-0.4c0.4,0,0.8-0.4,0.8-0.9
		l-0.2-18.4c0-0.4,0.4-0.9,0.9-0.9h41.3c0.6,0,1.1-0.6,0.8-1.2L65,215.1c-0.3-0.5,0.2-1.2,0.8-1.2h4.4c0.7,0,1.1-0.7,0.7-1.3
		l-14-23.8c-0.4-0.5,0.1-1.3,0.7-1.3h5.8c0.6,0,1.1-0.7,0.8-1.2l-9.9-19.5c-0.3-0.5,0.1-1.2,0.8-1.2h3.6c0.6,0,1.1-0.7,0.8-1.2
		L47.3,140c-0.4-0.6-1.2-0.6-1.6,0l-10.9,25.2c-0.3,0.5,0.2,1.2,0.8,1.2h2.6c0.6,0,1.1,0.6,0.8,1.2l-9,18.8
		c-0.3,0.5,0.2,1.2,0.8,1.2h4.5c0.6,0,1.1,0.7,0.8,1.2L23.2,213c-0.3,0.5,0.1,1.2,0.8,1.2h4.4c0.6,0,1.1,0.7,0.8,1.2L12.8,246
		c-0.3,0.5,0.1,1.2,0.8,1.2h4.6c0.6,0,1.1,0.7,0.7,1.3l-19.7,33.9C-1.3,283-0.9,283.7-0.2,283.7z"/>
	<polygon fill="#513023" points="431.7,264.7 431.7,285.6 435.4,285.6 435.4,262.7 	"/>
	<ellipse fill="#FFFFFF" cx="426.9" cy="206.2" rx="17.1" ry="13.7"/>
	<ellipse fill="#FFFFFF" cx="454.8" cy="204" rx="5.2" ry="4.7"/>
	<ellipse fill="#FFFFFF" cx="373" cy="249.8" rx="5.2" ry="4.7"/>
	<ellipse fill="#FFFFFF" cx="359.6" cy="261.7" rx="8.2" ry="7.3"/>
	<ellipse fill="#FFFFFF" cx="391.1" cy="267.1" rx="8.3" ry="7.4"/>
	<ellipse fill="#FFFFFF" cx="361.1" cy="269.9" rx="8.3" ry="7.4"/>
	<path fill="#513023" d="M356.2,280.3c0,0,3,8.5,19.2,2.5l9.8,8l5.2-1.2l-13.8-10l-0.1-4.4l-5.7,0.3l2.3,1.2l0.4,4.6
		c0,0-10.8,5.8-17.1-1.7l-0.5-1.5l-1.2,1.7L356.2,280.3z"/>
	<ellipse fill="#FFFFFF" cx="377.1" cy="270.7" rx="8.3" ry="7.4"/>
	<ellipse fill="#FFFFFF" cx="380.2" cy="273.8" rx="8.3" ry="7.4"/>
	<ellipse fill="#FFFFFF" cx="376.7" cy="268.2" rx="8.3" ry="7.4"/>
	<ellipse fill="#FFFFFF" cx="381.5" cy="263.3" rx="8.3" ry="7.4"/>
	<ellipse fill="#FFFFFF" cx="374" cy="258.4" rx="8.3" ry="7.4"/>
	<ellipse fill="#FFFFFF" cx="369" cy="258.7" rx="8.3" ry="7.4"/>
	<ellipse fill="#FFFFFF" cx="366.6" cy="265.2" rx="8.3" ry="7.4"/>
	<ellipse fill="#FFFFFF" cx="368.9" cy="273.5" rx="8.3" ry="7.4"/>
	<ellipse fill="#FFFFFF" cx="354.5" cy="277.2" rx="4.5" ry="4"/>
	<ellipse fill="#FFFFFF" cx="146.7" cy="273.7" rx="8.5" ry="7.6"/>
	<ellipse fill="#FFFFFF" cx="156.3" cy="273.4" rx="8.5" ry="7.6"/>
	<ellipse fill="#FFFFFF" cx="156.6" cy="262.6" rx="8.5" ry="7.6"/>
	<ellipse fill="#FFFFFF" cx="170" cy="255.4" rx="8.5" ry="7.6"/>
	<path fill="#513023" d="M148.3,293.4l9.3-6.4l2.6-1.9l1.8-1.8c0,0,1-1.6,1-1.8s-0.1-1.8-0.1-1.8l-0.4-2l1.1-1.2l2.8,1.1l-0.3,7.6
		l9.6,0.3l5.5-3.5l2.4,2.2l-5.1,2.9l-1.3,0.5c0,0-1,0.3-1.7,0.3s-3.4,0.2-3.8,0.2s-3,0-3.4,0s-2.6,0-3.3,0s-2.9,0.1-2.9,0.1
		l-12.7,7.8l-3.6-0.8L148.3,293.4z"/>
	<ellipse fill="#FFFFFF" cx="169.8" cy="265.2" rx="8.5" ry="7.6"/>
	<ellipse fill="#FFFFFF" cx="180.4" cy="263.9" rx="8.5" ry="7.6"/>
	<ellipse fill="#FFFFFF" cx="170.9" cy="273.7" rx="8.5" ry="7.6"/>
	<polygon fill="#513023" points="97.1,266.8 97.3,297.3 100.8,296.9 100.9,266.1 	"/>
	<ellipse fill="#FFFFFF" cx="185.6" cy="280.3" rx="5.9" ry="5.2"/>
	<ellipse fill="#FFFFFF" cx="160.2" cy="246.8" rx="2.8" ry="2.5"/>
	<ellipse fill="#FFFFFF" cx="118.8" cy="253.6" rx="24.2" ry="21.6"/>
	<ellipse fill="#FFFFFF" cx="99.7" cy="246.3" rx="24.2" ry="21.6"/>
	<ellipse fill="#FFFFFF" cx="109.3" cy="232.4" rx="26.5" ry="16.4"/>
	<ellipse fill="#FFFFFF" cx="85.4" cy="255.8" rx="18.9" ry="17.2"/>
	<ellipse fill="#FFFFFF" cx="77.5" cy="211.8" rx="5.3" ry="4.8"/>
	<ellipse fill="#FFFFFF" cx="106.8" cy="219.2" rx="20.3" ry="18.2"/>
	<ellipse fill="#FFFFFF" cx="95.7" cy="275.3" rx="4.8" ry="4.3"/>
	<ellipse fill="#FFFFFF" cx="74.4" cy="236.3" rx="20.4" ry="19.8"/>
	<ellipse fill="#FFFFFF" cx="418" cy="246.5" rx="26.3" ry="23.6"/>
	<ellipse fill="#FFFFFF" cx="400.8" cy="226.3" rx="15.9" ry="14.2"/>
	<ellipse fill="#FFFFFF" cx="457.3" cy="232.2" rx="23.6" ry="21"/>
	<ellipse fill="#FFFFFF" cx="454" cy="251.4" rx="13.6" ry="12.2"/>
	<ellipse fill="#FFFFFF" cx="445.4" cy="268.9" rx="6.2" ry="5.5"/>
	<path fill="#C3E9F6" d="M169.3,305.3c-4.3,1.9-4.7,2.8-5.3,7.2c-0.5,3.5,1.2,7.7,4.7,8.2h378.9v-24.5v-6l-0.3-2
		c-18.5,11.9-44.9,11.5-66.8,8.4c-21.9-3.2-44.2-8.9-66.1-5.7c-15.2,2.2-29.5,8.6-44.8,10.1c-28.3,2.8-56.3-11.2-84.8-8.9
		c-17.7,1.5-33.9,9.3-51.1,13.2"/>
	<path fill="#A8E4F4" d="M169.6,302.5c-4.3,1.2-4.7,1.8-5.3,4.5c-0.5,2.2,1.2,4.8,4.7,5.1h378.7v-15.4V293l-2.7-1.2
		c-18.5,7.5-42.4,7.3-64.3,5.2c-22-2-44.1-5.5-66.1-3.6c-15.2,1.4-29.5,5.3-44.8,6.3c-28.3,1.8-56.3-7-84.7-5.5
		c-17.6,1-33.9,5.8-51.1,8.3"/>
	<path fill="#FFFFFF" d="M256.3,256.4c-3.3,2.1-5.3,5.8-5.4,9.6c-0.1,2.9,0.9,5.7,0.9,8.6c0,8.4-7.9,17.2-3.1,24.1
		c4.1,5.8,19.5,15.1,20.1,22.2c-30.3,4.6-64.6-0.5-95,3.5c-2.7,0.4-11.8-0.2-13.4-4.8c-0.2-5.2,2.2-15.3,5.4-18.2
		c14.7-13.2,28.3-26.2,43.3-39.2c4.4-3.7,9.6-6.8,14.8-9.2c8.8-3.8,18.3-6,27.8-6.4c3.3-0.1,6.7,0,8.8,3.5
		C261.6,254,258.5,254.9,256.3,256.4z"/>
	<g>
		<path fill="#3A82B4" d="M248.4,261.7c-1.4,3.8-5.7,6.7-10.4,5.8c0.2,0.3,0.3,0.5,0.4,0.8c2.9,5.2,5.9,10.6,8.7,15.8
			c0.4,0.6,0.7,0.8,1.3,0.9c3.7,0.5,7.8-1.9,9.3-5.2c0.3-0.5,0.2-1-0.1-1.5c-3-5.2-5.9-10.7-8.9-15.9
			C248.8,262.1,248.6,261.9,248.4,261.7z M242.5,271.2c3-0.2,5.1-1.4,6.7-3.7C248.6,269.8,245.1,271.8,242.5,271.2z M251.8,272.2
			c-0.5,2.3-4.5,4.5-6.4,3.7C248.2,275.7,250.1,274.5,251.8,272.2z M248.2,280.6c2.6-0.3,4.5-1.5,6.2-3.7
			C253.7,279.2,250.5,281,248.2,280.6z"/>
		<path fill="#3A82B4" d="M277,260.9c-0.4-0.8-0.7-1.5-1.2-2.3c-7.1,4.3-14.2,8.5-21.4,12.8c0.4,0.8,0.8,1.5,1.2,2.3
			C262.7,269.3,269.8,265.1,277,260.9z"/>
		<path fill="#3A82B4" d="M287.1,258.6c-0.4-0.8-0.8-1.5-1.2-2.3c-2.8,1.4-5.6,2.8-9,2.5c0.7,2,0.8,2,2.7,2
			C282.3,260.8,284.7,259.9,287.1,258.6z"/>
		<path fill="#3A82B4" d="M276.4,258.3c1.1,0.3,1.9,0.3,2.7-0.4c1.2-1,2.5-1.8,3.7-2.6c0.3-0.2,0.4-0.4,0.8-0.5
			c-0.4-0.8-0.8-1.4-1.2-2.3C279.8,254,277.7,255.4,276.4,258.3z"/>
		<path fill="#3A82B4" d="M284.8,256.4c0.4-0.2,0.6-0.3,1-0.4c-0.8-1.4-1.5-2.8-2.3-4c-0.4,0.2-0.5,0.3-1,0.4
			C283.3,253.8,284,255,284.8,256.4z"/>
		<path fill="#FFFFFF" d="M242.5,271.2c2.7,0.6,6-1.3,6.7-3.7C247.6,269.8,245.5,271,242.5,271.2z"/>
		<path fill="#FFFFFF" d="M251.8,272.2c-1.7,2.3-3.7,3.6-6.4,3.7C247.3,276.7,251.3,274.5,251.8,272.2z"/>
		<path fill="#FFFFFF" d="M248.2,280.6c2.4,0.4,5.5-1.4,6.2-3.7C252.7,279.1,250.6,280.2,248.2,280.6z"/>
	</g>
	<g>
		<path fill="#3A82B4" d="M319.6,280.1c1.9,3.2,1.3,7.8-2,10.6c0.3,0.1,0.5,0.2,0.7,0.2c5.2,1.1,10.7,2,15.9,3.1
			c0.6,0.1,1,0,1.4-0.4c2.5-2.2,3.3-6.5,1.8-9.4c-0.3-0.4-0.5-0.7-1.1-0.8c-5.3-1-10.8-2-16.1-3.1
			C320.1,280.2,319.9,280.2,319.6,280.1z M322.8,289.7c1.6-2.1,2-4.3,1.3-6.8C325.3,284.7,324.7,288.2,322.8,289.7z M328.8,283.7
			c1.3,1.7,0.5,5.8-1.2,6.6C329,288.3,329.4,286.2,328.8,283.7z M332.4,291.1c1.3-2,1.7-4,1.1-6.4
			C334.7,286.5,334.1,289.8,332.4,291.1z"/>
		<path fill="#3A82B4" d="M335.4,259.9c-0.8-0.2-1.5-0.4-2.3-0.5c-1.2,7.4-2.3,14.8-3.5,22.2c0.8,0.2,1.5,0.4,2.3,0.5
			C333.1,274.6,334.3,267.4,335.4,259.9z"/>
		<path fill="#3A82B4" d="M339.7,251.5c-0.8-0.2-1.5-0.3-2.3-0.4c-0.7,2.8-1.4,5.4-3.5,7.6c1.8,0.6,1.9,0.6,2.9-0.7
			C338.4,256.2,339.2,254,339.7,251.5z"/>
		<path fill="#3A82B4" d="M333.4,258.7c0.8-0.6,1.2-1.2,1.2-2.1c0-1.3,0.2-2.7,0.4-4c0-0.3,0.1-0.5,0.1-0.8
			c-0.8-0.2-1.4-0.3-2.3-0.4C332.3,253.9,332.1,256.3,333.4,258.7z"/>
		<path fill="#3A82B4" d="M336.9,252c0.1-0.4,0.2-0.6,0.2-1c-1.4-0.3-2.8-0.5-4.1-0.8c-0.1,0.3-0.2,0.5-0.3,0.9
			C334.2,251.4,335.5,251.7,336.9,252z"/>
		<path fill="#FFFFFF" d="M322.8,289.7c2-1.5,2.6-4.9,1.3-6.8C324.7,285.3,324.3,287.4,322.8,289.7z"/>
		<path fill="#FFFFFF" d="M328.8,283.7c0.6,2.5,0.3,4.5-1.2,6.6C329.3,289.6,330.1,285.4,328.8,283.7z"/>
		<path fill="#FFFFFF" d="M332.4,291.1c1.7-1.4,2.3-4.6,1.1-6.4C334.1,287.1,333.7,289.2,332.4,291.1z"/>
	</g>
	<path fill="#FFFFFF" d="M248,295.4c2.3,0.3,3.8,2.2,5.5,3.7c1.7,1.5,3.6,2.8,5.2,4.2c1.7,1.4,3.4,3.2,4,5.2
		c0.2,0.4,0.3,0.9,0.5,1.2c0.6,0.8,2.6,5.2,3.4,6.2c0.2,0.3,0.4,0.4,0.5,0.7c0.2,0.3,0.2,0.6,0.2,0.9c0,0.5,0.1,1.2,0.1,1.7
		c0,0.2,0,0.4-0.1,0.4c-0.1,0.1-0.2,0.2-0.4,0.3c-1.1,0.5-2.2,0.9-3.5,1.1c-0.5,0.1-1.1,0.1-1.5-0.1c-0.5-0.2-0.9-0.5-1.2-0.9
		c-2.8-2.4-5.4-4.8-8.2-7.2c-0.6-0.5-1.3-1.2-2.1-1.5c-0.6-0.3-1.2-0.4-1.9-0.6c-2.7-0.7-5.2-1.4-7.6-2.8c-2.4-1.5-4.2-3.7-6.4-5.4
		c1.4-0.6,2-2.3,2.8-3.6c1-1.2,2.4-1.9,3.7-2.3c1.4-0.4,3-0.4,4.4-0.6c0.4,0,0.9-0.1,1.2-0.4c0.2-0.1,0.3-0.3,0.4-0.4
		C247.6,295.4,247.8,295.4,248,295.4z"/>
	<path fill="#FFFFFF" d="M252.9,295.2c0.3,1.6,0.5,3.6-0.2,4.3c-0.4,0.4-0.8,0.3-1.2,0.4c-1.8,0.2-2.9,3.1-3.3,6.1
		c-0.3,3.2,0.2,6.6,0.6,9.9c-1.7-2.5-3.4-5-4.4-8.3c-1.2-3.3-1.8-6.9-2.4-10.6c-1.5-7.8-3.6-15.5-6-22.7c-1.1-3.1-2.3-6.8-1.5-9.7
		c0.2-0.7,0.5-1.3,0.6-2.2c0.1-0.8-0.2-2-0.7-2.1c2.5-0.6,4.9-1.2,7.5-1.8c0.7-0.2,1.5-0.4,2.2,0.3c1,0.8,1.6,2.8,2.1,4.5
		c1.1,3.8,2.1,7.7,3,11.7c0.5,2.5,1,4.9,1.4,7.4C251.4,286.7,252.2,291,252.9,295.2z"/>
	<path fill="#FFFFFF" d="M337.7,292.6c0.2,1.2-0.3,2.5-1.2,3.2c-1.2,1-2.8,1-4.4,0.9c-6.7-0.4-13.2-1.8-19.6-3.4
		c-0.9-0.3-2-0.5-2.3-1.4c-0.3-0.7,0.1-1.6,0.7-2.1c0.6-0.5,1.4-0.7,2.2-0.9c2.8-0.4,5.5-0.1,8.4,0.4c1.9,0.3,3.7,0.5,5.5,0.8
		c1.2,0.2,2.5,0.4,3.7,0.8C332.9,291.5,335.3,293.2,337.7,292.6z"/>
	<ellipse fill="#FFFFFF" cx="370.6" cy="252.6" rx="5.5" ry="6"/>
	<path fill="#4EBF7A" d="M362.3,276.7l2.6-5.5l2.5-8.8c0.3-1,0.6-2-0.4-2.2l0,0c-1-0.3-2.8,0.3-3.1,1.2l-1.8,8.1l-2.4,7.8
		c-0.3,1,0.3,0.4,1.2,0.7l0,0C361.9,278.3,362,277.7,362.3,276.7z"/>
	<path fill="#4EBF7A" d="M381.7,257.8l-7.4,2.7c-1.1,0.4-1.6,1.6-1.2,2.7v0.1c0.4,1.1,1.6,1.6,2.7,1.2l7.4-2.7
		c1.1-0.4,1.6-1.6,1.2-2.7V259C383.9,257.9,382.7,257.3,381.7,257.8z"/>
	<path fill="#00A9DB" d="M375.1,278.5h-8.4c-1.2,0-2.2-1.1-2.2-2.3v-13c0-1,0.4-2,1.1-2.7c0.4-0.3,0.7-0.5,1.2-0.4
		c0.6,0,1.2,0.5,1.8,0.7c0.7,0.2,1.3,0.2,2,0.3c0.8,0,1.5,0,2.3-0.2c0.7-0.2,1.3-0.6,2-0.8c1.5-0.3,2.5,1.9,2.5,3.1v13
		C377.1,277.4,376.1,278.5,375.1,278.5z"/>
	<path fill="#3A82B4" d="M370.4,261.1c-2.8,0-4.1-1.1-4.2-1.1l0.7-2.6c0.2,0.1,2.5,2.9,6.6,0.3l0.9,2.3
		C372.8,261.1,371.9,261.1,370.4,261.1z"/>
	
		<polygon fill="#3A82B4" stroke="#3A82B4" stroke-width="1.1232" stroke-linecap="round" stroke-linejoin="round" stroke-miterlimit="10" points="
		367.2,260 365.6,265 368,265.7 369.3,260.5 	"/>
	
		<polygon fill="#3A82B4" stroke="#3A82B4" stroke-width="1.1232" stroke-linecap="round" stroke-linejoin="round" stroke-miterlimit="10" points="
		368.9,260.1 369.6,264 371.5,263.6 370.6,259.6 	"/>
	<path fill="#4EBF7A" d="M380.5,258.9l-2.6,5.2c-0.6,0.9-1.2,2.1-0.4,2.8l0.2,0.1c0.9,0.6,0.4,1.2,1,0.4l5.2-6
		c0.6-0.9,0.4-2.1-0.5-2.8l-0.2-0.1C382.4,257.8,381.1,258,380.5,258.9z"/>
	<path fill="#3A82B4" d="M352.7,273.4c-0.8,2.8-3.6,5-6.8,4.7c0.1,0.2,0.2,0.4,0.3,0.5c2.2,3.5,4.4,6.8,6.6,10.2
		c0.3,0.4,0.5,0.5,1,0.5c2.6,0.1,5.2-1.9,6.1-4.2c0.1-0.4,0.1-0.6-0.1-1c-2.2-3.5-4.4-6.8-6.7-10.3
		C352.9,273.8,352.8,273.6,352.7,273.4z M348.9,280.3c2-0.4,3.5-1.3,4.4-3.1C352.9,279,350.8,280.6,348.9,280.3z M355.3,280.3
		c-0.3,1.6-3,3.5-4.2,3C352.9,283.1,354.3,282,355.3,280.3z M353.1,286.4c1.8-0.4,3.1-1.3,4.1-3
		C356.9,284.9,354.8,286.5,353.1,286.4z"/>
	<path fill="#3A82B4" d="M372,270.7c-0.3-0.5-0.5-1-0.9-1.5c-4.7,3.5-9.4,6.8-14.1,10.4c0.3,0.5,0.6,1,0.9,1.5
		C362.6,277.6,367.3,274.2,372,270.7z"/>
	<path fill="#3A82B4" d="M379,268.4c-0.4-0.5-0.6-1-1-1.5c-1.9,1.2-3.7,2.3-6,2.4c0.5,1.2,0.6,1.3,1.9,1.2
		C375.7,270.3,377.3,269.5,379,268.4z"/>
	<path fill="#3A82B4" d="M371.6,268.9c0.8,0.1,1.2,0,1.8-0.5c0.7-0.8,1.6-1.4,2.4-2c0.2-0.1,0.4-0.3,0.5-0.4c-0.3-0.4-0.6-1-1-1.5
		C373.8,265.8,372.3,267.1,371.6,268.9z"/>
	<path fill="#3A82B4" d="M377.2,267.2c0.3-0.2,0.4-0.3,0.6-0.4c-0.6-0.9-1.2-1.8-1.7-2.7c-0.2,0.1-0.4,0.3-0.6,0.4
		C376,265.4,376.7,266.3,377.2,267.2z"/>
	<path fill="#FFFFFF" d="M348.9,280.3c1.9,0.3,4-1.3,4.4-3.1C352.4,279,351,280.1,348.9,280.3z"/>
	<path fill="#FFFFFF" d="M355.3,280.3c-1.1,1.7-2.4,2.8-4.2,3C352.4,283.7,355.1,281.9,355.3,280.3z"/>
	<path fill="#FFFFFF" d="M353.1,286.4c1.7,0.2,3.7-1.3,4.1-3C356.2,284.9,354.9,285.9,353.1,286.4z"/>
	<circle fill="#FFFFFF" cx="369.8" cy="265.8" r="1"/>
	<circle fill="#FFFFFF" cx="370.5" cy="275.2" r="1"/>
	<path fill="#00A9DB" d="M377.4,291.1v0.5l-5.8,1.2l-0.1-1.5l-0.7-10.2c0-0.8-1.4-3.6,2-3.7h3.5c0.6,0,1.2,0.7,1.2,1.7V291.1
		L377.4,291.1z"/>
	<path fill="#00A9DB" d="M364.7,291c0,0.9-0.4,2.8,0.3,2.8l5.1-0.7c0.7,0,0.5-1.1,0.5-1.9l0.7-10.2c0-0.8,1.4-3.6-2-3.7h-3.5
		c-0.6,0-1.2,0.7-1.2,1.7V291z"/>
	<path fill="#3A82B4" d="M364.8,249.7c0,0,1.2-12.4,12.3-4.2c0,0,0.5,1.9-0.3,2c-0.4,0.1-2-1.2-0.5,0.1c0.7,0.6,0.5,1.6,0.2,2
		l-6.1-2.1L364.8,249.7z"/>
	<path fill="#4EBF7A" d="M368.2,251.7L368.2,251.7c-0.3,0-0.4-0.2-0.4-0.4V251c0-0.3,0.2-0.4,0.4-0.4l0,0c0.3,0,0.4,0.2,0.4,0.4v0.3
		C368.7,251.5,368.4,251.7,368.2,251.7z"/>
	<circle fill="#4EBF7A" cx="365.8" cy="248.2" r="1.3"/>
	<circle fill="#4EBF7A" cx="367.3" cy="247.4" r="1.3"/>
	<circle fill="#4EBF7A" cx="368.7" cy="247.4" r="1.3"/>
	<circle fill="#4EBF7A" cx="369.4" cy="246.5" r="1.3"/>
	<circle fill="#4EBF7A" cx="371" cy="246.9" r="1.3"/>
	<circle fill="#4EBF7A" cx="370.7" cy="247.4" r="1.3"/>
	<circle fill="#4EBF7A" cx="372.3" cy="247.8" r="1.3"/>
	<circle fill="#4EBF7A" cx="372.9" cy="247" r="1.3"/>
	<circle fill="#4EBF7A" cx="374.1" cy="248.4" r="1.3"/>
	<circle fill="#4EBF7A" cx="375.1" cy="248.5" r="1.3"/>
	<circle fill="#4EBF7A" cx="375.2" cy="249.9" r="1.3"/>
	<circle fill="#4EBF7A" cx="376" cy="249.7" r="1.3"/>
	<circle fill="#4EBF7A" cx="365.5" cy="249.5" r="1.3"/>
	<g>
		<circle fill="#4EBF7A" cx="377.1" cy="245.1" r="0.7"/>
		<circle fill="#4EBF7A" cx="376.9" cy="246.1" r="0.8"/>
		<circle fill="#4EBF7A" cx="377.6" cy="245.5" r="0.4"/>
		<circle fill="#4EBF7A" cx="376.5" cy="245.9" r="0.7"/>
		<circle fill="#4EBF7A" cx="376.5" cy="245" r="0.6"/>
		<circle fill="#4EBF7A" cx="378" cy="245.9" r="0.4"/>
		<circle fill="#4EBF7A" cx="377.7" cy="245.1" r="0.5"/>
		<circle fill="#4EBF7A" cx="377.6" cy="244.4" r="0.7"/>
	</g>
	<path fill="none" stroke="#3A82B4" stroke-width="3.358" stroke-miterlimit="10" d="M328.1,252.2c0,0,2.8-11.5-10.8-12.3
		c0,0-6.8-0.5-8.4,7.3"/>
	<ellipse fill="#FFFFFF" cx="318.5" cy="253.3" rx="9.7" ry="10.5"/>
	<path fill="#4EBF7A" d="M325.3,255.3c0,3.6-2.9,6.6-6.6,6.6s-6.6-2.9-6.6-6.6H325.3z"/>
	<path fill="#4EBF7A" d="M305.7,290.1l6.8-20.7c0.6-2-0.2-3.9-1.9-4.4l0,0c-1.7-0.5-3.6,0.6-4.1,2.6l-6.8,20.3
		c-0.6,2,0.3,4.3,1.9,4.9l0,0C303.2,293.2,305,292.1,305.7,290.1z"/>
	<path fill="#4EBF7A" d="M339.9,271l-12.1-5.7c-1.5-0.6-3.2,0.2-3.7,1.7l-0.5,1.3c-0.6,1.5,0.2,3.2,1.7,3.7l12.1,5.7
		c1.5,0.6,3.2-0.2,3.7-1.7l0.5-1.3C342.1,273.3,341.4,271.5,339.9,271z"/>
	
		<path fill="none" stroke="#35CDD0" stroke-width="0.5597" stroke-linecap="round" stroke-linejoin="round" stroke-miterlimit="10" d="
		M317.4,250.7c-0.3,0.8-1.6,1.4-1.5,2.3c0.1,1.2,1.8,0.8,2.5,0.8"/>
	
		<path fill="none" stroke="#35CDD0" stroke-width="0.5597" stroke-linecap="round" stroke-linejoin="round" stroke-miterlimit="10" d="
		M313.4,249.2c0,0,1-1.2,2.5,0"/>
	<path fill="#00A9DB" d="M328.3,296.2L328.3,296.2c0.8-0.8,1.3-1.9,1.3-3.2l0.9-22.8c0-2.3-2.7-6.8-5.1-6.3
		c-1.2,0.2-2.3-0.7-3.5-0.4c-1.2,0.3-2.6,0.4-3.8,0.3c-1.2,0-3.3-0.1-4.4-0.4c-1-0.3-2,0.6-2.9,0.5c-0.7,0-2.3,1.2-2.8,1.7
		c-1.2,1.2-1.8,3-1.8,4.6l0.9,23.7c0,1.2,0.5,2.3,1.2,3.1c-0.8,0.4-1.4,1.4-1.4,2.7V318c0,1.5,0.8,2.8,1.9,2.8h6.1
		c1.2,0,2.3-1,2.3-2.2l0.9-11.2l0.9,11.4c0,1.2,1.1,2.2,2.3,2.2h6.1c1.1,0,1.9-1.2,1.9-2.8l0.9-19.2
		C330.2,297.5,329.4,296.2,328.3,296.2z"/>
	
		<path fill="none" stroke="#35CDD0" stroke-width="0.5597" stroke-linecap="round" stroke-linejoin="round" stroke-miterlimit="10" d="
		M319.3,249.2c0,0,1-1.2,2.5,0"/>
	<path fill="#4EBF7A" d="M309.4,244.7c0.6-1.8,1.5-3.5,2.9-4.5c1.4-1.2,3.4-1.8,5.1-1.2c1.5,0.4,2.8,1.6,4.2,2.1
		c1.1,0.4,2.1,0.4,3.2,0.8c1.7,0.7,2.8,2.4,3.2,4.1c0.4,1.8,0.4,3.6,0.2,5.3c-1.5-3.1-5.6-3.6-8-6c-0.4-0.4-0.9-1-1.5-1.1
		c-1-0.1-1.5,1-2.3,1.5c-1.4,1-3.6,0-4.9,1c-1.8,1.2-2,2.8-2.6,5.2C308.2,249.7,308.6,247,309.4,244.7z"/>
	<path fill="#3A82B4" d="M327.8,255.1c0.6,0.1,1.2,0.1,1.8-0.3c0.5-0.3,1-0.8,1-1.4c0.1-0.6-0.3-1.2-0.9-1.4c0.4-0.4,0.4-1,0.4-1.5
		c-0.1-0.5-0.4-1-0.9-1.3c0-0.4-0.3-0.7-0.6-0.9c-0.4-0.2-0.8,0-1,0.3c0,0,0.6,2.8,0,5.3L327.8,255.1z"/>
	<path fill="#3A82B4" d="M308.9,253.3c-0.6,0.1-1.3,0.1-2-0.3c-0.6-0.4-1.1-0.9-1.1-1.6c-0.1-0.6,0.4-1.3,1-1.6
		c-0.4-0.4-0.5-1.1-0.4-1.7c0.1-0.6,0.5-1.2,1-1.4c0-0.4,0.3-0.8,0.6-1c0.4-0.2,0.9,0,1.1,0.4c0,0-0.7,3,0,5.9L308.9,253.3z"/>
	<path fill="#3A82B4" d="M318.3,267.9c-1.2,0-2.5-0.1-3.4-0.3c-2.9-0.7-4.2-1.6-4.3-1.7l0.3-1.4l1.7-2.5c0.3,0.2,4.4,4.2,11.7-0.4
		l1,4.7C322.3,268.3,320.6,267.9,318.3,267.9z"/>
	
		<polygon fill="#3A82B4" stroke="#3A82B4" stroke-width="1.1232" stroke-linecap="round" stroke-linejoin="round" stroke-miterlimit="10" points="
		311.7,265 308.9,273.9 313.4,275.1 315.7,265.8 	"/>
	
		<polygon fill="#3A82B4" stroke="#3A82B4" stroke-width="1.1232" stroke-linecap="round" stroke-linejoin="round" stroke-miterlimit="10" points="
		315.5,266.5 316.6,273.4 320.1,272.7 318.5,265.7 	"/>
	<path fill="#FFFFFF" d="M312.7,255.7h11.9l-0.2,1.5h-11.5C312.9,257.1,312.9,255.4,312.7,255.7z"/>
	<path fill="#3A82B4" d="M281,269.4c-3.6,2.8-9.3,2.8-13.2-0.9c0,0.4-0.1,0.6-0.1,1c-0.4,6.7-0.9,13.2-1.3,19.9
		c-0.1,0.7,0.2,1.2,0.7,1.7c3.1,2.8,8.4,3,11.7,0.7c0.5-0.4,0.8-0.7,0.8-1.4c0.4-6.7,0.9-13.4,1.3-20.1C281,270,281,269.8,281,269.4
		z M269.8,274.8c2.9,1.7,5.5,1.7,8.5,0.5C276.2,277.1,271.9,276.9,269.8,274.8z M277.9,281.2c-1.9,1.9-7,1.5-8.2-0.4
		C272.3,282.3,275,282.4,277.9,281.2z M269.5,286.8c2.6,1.2,5.2,1.4,8,0.3C275.4,288.9,271.4,288.7,269.5,286.8z"/>
	<path fill="#3A82B4" d="M319,289.8c0.1-1,0.1-1.9,0.2-2.8c-3.6-0.4-6.9-0.9-9.9-3.1c-0.4,2.2-0.4,2.3,1.3,3.5
		C313.1,288.9,315.9,289.5,319,289.8z"/>
	<path fill="#3A82B4" d="M309.1,283.1c0.9,0.9,1.6,1.3,2.8,1.2c1.7-0.3,3.4-0.2,4.9-0.3c0.4,0,0.6,0,1,0c0.1-1,0.2-1.9,0.2-2.8
		C315,281.1,312,281.2,309.1,283.1z"/>
	<path fill="#3A82B4" d="M318,286.4c0.4,0.1,0.8,0.1,1.2,0.1c0.1-1.8,0.3-3.5,0.4-5.2c-0.4-0.1-0.7-0.1-1.2-0.2
		C318.3,282.9,318.2,284.6,318,286.4z"/>
	<path fill="#FFFFFF" d="M269.8,274.8c2.1,2.2,6.3,2.4,8.5,0.5C275.4,276.4,272.7,276.3,269.8,274.8z"/>
	<path fill="#FFFFFF" d="M277.9,281.2c-2.9,1.2-5.5,1.1-8.2-0.4C270.9,282.7,276.1,283.1,277.9,281.2z"/>
	<path fill="#FFFFFF" d="M269.5,286.8c2,1.9,6,2,8,0.3C274.6,288.2,272,288.2,269.5,286.8z"/>
	<circle fill="#FFFFFF" cx="317.1" cy="276.6" r="1.8"/>
	<path fill="#4EBF7A" d="M335.1,272l-14.4,8.7c-1.4,1.4-2.4,2.8-1.1,4.2l0,0c1.4,1.4,2.8,0.6,4.2-0.7l16.2-6.9
		c1.4-1.4,1.5-3.7,0.2-5.1l0,0C338.8,270.6,336.5,270.6,335.1,272z"/>
	<circle fill="#FFFFFF" cx="318.4" cy="292.9" r="1.8"/>
	<ellipse fill="#FFFFFF" cx="434.9" cy="260.5" rx="6.3" ry="7.9"/>
	<path fill="#4EBF7A" d="M430.4,271.4l-0.4-0.9c-0.4-0.9-1.6-1.2-2.5-0.7l-6.6,3.6l-7.9-1.2c-0.9-0.4-2-0.8-2.2,0.2l-0.3,0.7
		c-0.4,0.9,0.1,1.1,1.1,1.3l9.2,3.5c0.2,0.1,0.3,0.1,0.4,0.1c0.4,0.1,0.9,0.1,1.2-0.2l7.3-3.9C430.5,273.3,430.9,272.2,430.4,271.4z
		"/>
	<path fill="none" stroke="#35CDD0" stroke-width="0.4231" stroke-miterlimit="10" d="M434.6,257.8c0,2-1.4,1.8-1.2,2.9
		c0.1,0.6,1.5,0.6,2,0.3"/>
	<path fill="#3A82B4" d="M434.6,271c-3.6,0-6-1.2-6-1.2l2.1-3.9c0.2,0.2,3.6,3.7,7.8,0l1.6,3.6C438,270.7,436.4,271,434.6,271z"/>
	<path fill="#4EBF7A" d="M454.6,260.8l-1.9,0.3c-1.8,1.3-2.8,3.5-3.5,4.6l-1.2,3.5l-8.5,1c-1.3,0.4-2,2-1.6,3.3l0.1,0.4
		c0.4,1.3,2,2,3.3,1.6l8.4-3c0.4-0.2,0.8-0.4,1.1-0.8c0.4-0.3,0.6-0.5,0.8-0.9l1.7-4.1C454,265.1,455.9,261.4,454.6,260.8z"/>
	<path fill="#3A82B4" d="M402.1,302c2.1,2.6,2.3,6.8-0.1,9.7c0.3,0,0.4,0.1,0.7,0.1c4.6,0.2,9.3,0.3,14,0.4c0.5,0,0.8-0.2,1.2-0.5
		c1.8-2.4,1.8-6.2,0-8.7c-0.3-0.4-0.5-0.5-1-0.5c-4.7-0.2-9.4-0.3-14.1-0.4C402.5,302,402.4,302,402.1,302z M406.3,310.1
		c1.1-2.1,1-4.1,0-6.2C407.7,305.4,407.7,308.5,406.3,310.1z M410.4,304.1c1.4,1.3,1.3,5.1,0,6C411.4,308.1,411.4,306.1,410.4,304.1
		z M414.7,310.1c0.8-2,0.8-3.7-0.1-5.9C415.9,305.7,415.9,308.6,414.7,310.1z"/>
	<path fill="#3A82B4" d="M412.4,281.8c-0.7-0.1-1.3-0.1-2-0.2c0.2,6.8,0.4,13.4,0.5,20.3c0.7,0.1,1.3,0.1,2,0.2
		C412.7,295.3,412.5,288.6,412.4,281.8z"/>
	<path fill="#3A82B4" d="M414.7,273.8c-0.7,0-1.3-0.1-2-0.1c-0.2,2.6-0.4,5.1-1.8,7.3c1.6,0.3,1.7,0.3,2.4-1.1
		C414.4,278,414.7,276.1,414.7,273.8z"/>
	<path fill="#00A9DB" d="M442.7,292.9c0.4-0.5,0.6-1.2,0.6-2l-2.7-5l0.9-6.3l0.9-6c0-1.8-1.3-4.4-3.2-4.1c-0.9,0.2-1.7,0.8-2.6,1.1
		c-1,0.3-2,0.3-2.9,0.3s-1.8-0.1-2.7-0.3c-0.7-0.2-1.4-0.9-2.2-0.9c-0.5,0-1.1,0.3-1.5,0.6c-0.9,0.9-1.3,2.2-1.3,3.6l0.9,7l0.9,5
		l-2.7,5.2c0,0.8,0.3,1.5,0.7,2c-0.4,0.4-0.8,1.1-0.8,1.9l1.8,15.7c0,1.2,0.7,2.1,1.5,2.1h3.7c1,0,1.8-0.8,1.8-1.9l0.6-9.5l0.6,9.6
		c0,1.1,0.8,1.9,1.8,1.9h3.7c0.8,0,1.5-1,1.5-2.1l1.8-15.7C443.9,293.9,443.3,293.1,442.7,292.9z"/>
	<path fill="#3A82B4" d="M410.5,281.1c0.6-0.6,0.9-1.2,0.7-2c-0.3-1.2-0.3-2.4-0.4-3.6c0-0.3,0-0.4-0.1-0.7c-0.7,0-1.3-0.1-2-0.1
		C408.9,276.9,409.1,279.1,410.5,281.1z"/>
	<path fill="#3A82B4" d="M412.4,274.6c0-0.3,0-0.5,0-0.9c-1.2,0-2.4-0.1-3.6-0.1c0,0.3,0,0.5-0.1,0.8
		C410.1,274.5,411.2,274.6,412.4,274.6z"/>
	<path fill="#FFFFFF" d="M406.3,310.1c1.4-1.6,1.4-4.7,0-6.2C407.2,305.9,407.2,308,406.3,310.1z"/>
	<path fill="#FFFFFF" d="M410.4,304.1c0.9,2.1,1,4,0,6C411.9,309.1,411.9,305.4,410.4,304.1z"/>
	<path fill="#4EBF7A" d="M428.2,261.5c-0.3-1.1-0.3-2.2-0.3-3.4c-0.1,0-0.1,0-0.2,0c-0.2,2.2-1.7,3.7-1.9,6
		c-0.1,1.3,0.2,2.7,0.7,3.7c0.4,0.8,0.9,1.6,1.2,2.4c0.6,1.4,0.9,3,0.8,4.4c0.4-0.8,0.7-1.6,1.1-2.3c0.3-0.7,0.6-1.3,0.7-2.1
		c0.3-1.3-0.2-3.2,0.4-4.4c-0.9-0.7-1.6-1.7-2.1-2.8C428.4,262.4,428.5,262.4,428.2,261.5z"/>
	<path fill="#4EBF7A" d="M440.7,260.9c0.3-1.1,0-2.7,0-3.7c0.1,0,0.1,0,0.2,0c0.2,2.2,2.4,4.4,2.6,6.6c0.1,1.3-0.2,2.7-0.7,3.7
		c-0.4,0.8-0.9,1.6-1.2,2.4c-0.6,1.4-0.9,3-0.8,4.4c-0.4-0.8-0.7-1.6-1.1-2.3c-0.3-0.7-0.6-1.3-0.7-2.1c-0.3-1.3,0.2-2.8-0.4-4
		c0.9-0.7,1.1-1.8,1.7-2.8C440.6,262.2,440.5,261.8,440.7,260.9z"/>
	<path fill="#FFFFFF" d="M414.7,310.1c1.2-1.5,1.2-4.4-0.1-5.9C415.5,306.2,415.5,308.1,414.7,310.1z"/>
	<path fill="#3A82B4" d="M443.1,256.6c-0.4,0.9-1.3,1.9-1.6,2.8c0,0-2.1-4.4-6.8-4.6c-4.8-0.2-7,4.4-7,4.4c-0.4-1.1-0.7-2.2-0.7-3.5
		c0-4.5,3.6-8.2,8.1-8.2C439.6,247.4,444.3,254,443.1,256.6z"/>
	<circle fill="#4EBF7A" cx="435.6" cy="246.8" r="1.3"/>
	<circle fill="#4EBF7A" cx="436.3" cy="246.3" r="0.7"/>
	<circle fill="#4EBF7A" cx="434.7" cy="245.8" r="0.5"/>
	<circle fill="#4EBF7A" cx="435" cy="247.4" r="0.6"/>
	<circle fill="#4EBF7A" cx="436.8" cy="247.4" r="0.5"/>
	<circle fill="#4EBF7A" cx="434.6" cy="246.7" r="0.7"/>
	<circle fill="#4EBF7A" cx="435.7" cy="245.9" r="0.7"/>
	<circle fill="#4EBF7A" cx="435.8" cy="247.6" r="0.7"/>
	<circle fill="#4EBF7A" cx="436.4" cy="246.8" r="0.7"/>
	<circle fill="#4EBF7A" cx="436.3" cy="246" r="0.7"/>
	<ellipse fill="#4EBF7A" cx="431.9" cy="257.7" rx="0.5" ry="0.7"/>
	<ellipse fill="#4EBF7A" cx="437.5" cy="257.7" rx="0.5" ry="0.7"/>
	
		<path fill="none" stroke="#35CDD0" stroke-width="0.3919" stroke-linecap="round" stroke-linejoin="round" stroke-miterlimit="10" d="
		M370.2,251c-0.2,0.5-1.2,1.9-1.1,2.5c0.1,0.8,1.2,0.5,1.8,0.5"/>
	<circle fill="#FFFFFF" cx="434.3" cy="283.4" r="1.3"/>
	
		<path fill="none" stroke="#35CDD0" stroke-width="0.432" stroke-linecap="round" stroke-linejoin="round" stroke-miterlimit="10" d="
		M432.8,263.9c0,0,3.7,0.7,5.1-1.3"/>
	
		<path fill="none" stroke="#35CDD0" stroke-width="0.432" stroke-linecap="round" stroke-linejoin="round" stroke-miterlimit="10" d="
		M437.4,261.8c0,0-0.1,0.4,1.2,0.6"/>
	
		<path fill="none" stroke="#00A9DB" stroke-width="0.5616" stroke-linecap="round" stroke-linejoin="round" stroke-miterlimit="10" d="
		M428.5,254.3c0,0-0.1,1.3,0.3,1.9"/>
	
		<path fill="none" stroke="#00A9DB" stroke-width="0.5616" stroke-linecap="round" stroke-linejoin="round" stroke-miterlimit="10" d="
		M430.3,253c0,0-0.1,1.4,0.3,1.8"/>
	
		<path fill="none" stroke="#00A9DB" stroke-width="0.5616" stroke-linecap="round" stroke-linejoin="round" stroke-miterlimit="10" d="
		M432.4,252.2c0,0-0.2,1,0.2,1.7"/>
	
		<path fill="none" stroke="#00A9DB" stroke-width="0.5616" stroke-linecap="round" stroke-linejoin="round" stroke-miterlimit="10" d="
		M434.6,252c-0.1,0.8,0,1.8,0,1.8"/>
	
		<path fill="none" stroke="#00A9DB" stroke-width="0.5616" stroke-linecap="round" stroke-linejoin="round" stroke-miterlimit="10" d="
		M437.3,252.5c0,0-0.4,0.9-0.4,1.8"/>
	
		<path fill="none" stroke="#00A9DB" stroke-width="0.5616" stroke-linecap="round" stroke-linejoin="round" stroke-miterlimit="10" d="
		M439.4,253.6c0,0-0.7,0.9-0.7,1.6"/>
	
		<path fill="none" stroke="#00A9DB" stroke-width="0.5616" stroke-linecap="round" stroke-linejoin="round" stroke-miterlimit="10" d="
		M441.4,255.2c0,0-1.1,0.9-1.1,1.3"/>
	<path fill="#4EBF7A" d="M372.1,251.7L372.1,251.7c-0.3,0-0.4-0.2-0.4-0.4V251c0-0.3,0.2-0.4,0.4-0.4l0,0c0.3,0,0.4,0.2,0.4,0.4v0.3
		C372.6,251.5,372.4,251.7,372.1,251.7z"/>
	<path fill="#4EBF7A" d="M373,254.9c0,1.2-1,2.2-2.2,2.2c-1.2,0-2.2-1-2.2-2.2H373z"/>
	<path fill="#FFFFFF" d="M368.8,255.2h3.9l-0.1,0.5h-3.8C368.9,255.7,368.9,255.2,368.8,255.2z"/>
	<circle fill="#FFFFFF" cx="434.4" cy="275.9" r="1.3"/>
	<circle fill="#FFFFFF" cx="434.7" cy="289.6" r="1.3"/>
	
		<polygon fill="#3A82B4" stroke="#3A82B4" stroke-width="0.5616" stroke-linecap="round" stroke-linejoin="round" stroke-miterlimit="10" points="
		432.6,269.6 433.5,274.9 435.9,274.3 434.7,268.9 	"/>
	
		<polygon fill="#3A82B4" stroke="#3A82B4" stroke-width="1.1232" stroke-linecap="round" stroke-linejoin="round" stroke-miterlimit="10" points="
		430.4,269.3 428.3,276.2 431.7,276.9 433.5,270 	"/>
	<path fill="#4EBF7A" d="M303.2,287.8l-9.9-3.6c-1.2,0-2.2-0.5-2.1,1v-0.9c0,1.5-1.8,1.7,1.3,3.6l9.9,7c1.2,0,3.1-3,3-4.4l0,0
		C305.3,289,304.3,287.8,303.2,287.8z"/>
	<path fill="#3A82B4" d="M308.2,285.7c0.1-1,0.2-1.9,0.3-2.8c-9.2-0.3-18.4-0.6-27.6-0.9c-0.1,1-0.2,1.9-0.3,2.8
		C289.8,285.1,298.9,285.4,308.2,285.7z"/>
	<path fill="#4EBF7A" d="M292.9,281.9L292.9,281.9c-0.3-0.2-0.4-0.4-0.6-0.4c-0.4-0.1-0.8,0.2-1.2,0.3c-0.4,0-1-0.1-1.4-0.3
		c-0.2-0.1-0.4-0.2-0.6-0.2c-0.2,0-0.3,0.1-0.4,0.2c-0.6,0.3-1.3-0.3-1.8,0.3c-0.2,0.2-0.2,0.5,0,0.7c0.4,0.7,0.8,1.4,1.2,2.1
		c0.3,0.4,0.4,0.8,0.8,1.2c0.6,0.6,1.4,0.9,2.2,1c0.8,0.1,1.7-0.1,2.5-0.4c0.4-0.1,0.7-0.3,1-0.5c0.2-0.3,0.3-0.5,0.4-0.9
		C295.1,283.5,293.8,282.7,292.9,281.9z"/>
	<path fill="#4EBF7A" d="M319.2,286.8c0,0.5,0,1,0.1,1.5c0.6,0,1.2-0.4,1.6-1c0.6-0.8,1.2-1.9,1.1-2.8c-0.2-1-1-1.8-1.7-2.5
		c-0.2-0.1-0.3-0.3-0.5-0.3c-0.1,0-0.2,0.1-0.3,0.1c-1-0.1-3.4-0.8-3.9-0.2c-0.1,0.1-0.2,0.2-0.2,0.3c-0.1,0.1-0.1,0.3-0.1,0.4
		c0,0.8,0,3.1,0,3.8c0.9,0.2,2.2,0.4,2.4,0.5C318,287,318.6,286.8,319.2,286.8z"/>
	<path fill="#4EBF7A" d="M362.1,279.2c0.1-0.4,0.1-0.9,0.2-1.3c-0.3,0-0.3-0.4-0.4-0.5c-0.2-0.3-0.6-0.3-0.8,0
		c-0.1,0.2-0.1,0.4-0.2,0.6c-0.2,0.2-0.5,0.1-0.8,0.2c-0.3,0.1-0.4,0.4-0.6,0.6c-0.3,0.2-0.5,0.2-0.9,0.2c-0.2,0-0.8,0.2-0.6,0.5
		c0.2,0.4,0.8,0.4,1.1,0.7c0.1,0.1,0.2,0.2,0.3,0.2c0.4,0.3,0.9,0.2,1.2-0.1c0.1-0.1,0.2-0.3,0.4-0.4c0.1,0,0.2,0,0.2,0
		C361.5,279.9,361.6,279.4,362.1,279.2c0.1,0.1,0.1,0.1,0.2,0C362,279.3,362.1,279.2,362.1,279.2z"/>
	<path fill="#4EBF7A" d="M377.9,267.1c0.2,0.2,0.4,0.4,0.5,0.6c0.3-0.2,0.4-0.5,0.4-0.9c0-0.5-0.1-1.2-0.4-1.5
		c-0.4-0.4-1-0.4-1.5-0.4c-0.1,0-0.2,0-0.3,0.1c0,0,0,0.1-0.1,0.1c-0.4,0.3-1.6,0.7-1.7,1.2c0,0.1,0,0.1,0,0.2
		c0,0.1,0.1,0.1,0.1,0.2c0.3,0.4,1,1.2,1.2,1.6c0.4-0.2,1.1-0.5,1.2-0.5C377.6,267.4,377.7,267.2,377.9,267.1z"/>
	<path fill="#4EBF7A" d="M411.2,271.9c-2.1,1.4-3.6,3.8-3.7,6.4c0.5,0.4,1.2,0.8,1.9,0.9c0.3,0.1,0.6,0.3,0.9,0.2
		c0.2-0.1,0.9-0.9,1-1c0.5-0.8,0.8-1.8,1.1-2.8c-0.1,0.7-1.2,1.9-1.3,2.3c-0.1,0.3,0.3,0.4,0.5,0.5c0.3,0.2,1,0,1.2-0.3
		c0.2-0.3,0.3-0.4,0.4-0.7c0.4-1.4,0.8-2.9,1.9-3.8"/>
	<path fill="#4EBF7A" d="M453.1,262c0.3-0.1,0.5-0.2,0.8-0.3c0.3-0.1,0.6-0.1,0.9,0c0.2-0.4,1.8-0.2,2.2-0.4
		c0.3-0.2,0.6-0.4,0.8-0.6c0.1-0.2,0.1-0.4,0.1-0.5c0-0.3,0-1.4-0.1-1.7c0-0.1,0-0.2-0.1-0.3c-0.1-0.2-0.4-0.1-0.5-0.2
		c-2.4-0.6-2.9,0.2-3.7,0.1c0-0.4,0.1-1-0.1-1.4s-0.6-0.8-1.1-0.7c-0.1,0-0.1,0-0.2,0.1c-0.1,0.1-0.1,0.3-0.1,0.4
		c0,0.3,0,0.6,0.1,0.9c0.1,0.2,0.1,0.3,0.2,0.4c0.1,0.4-0.3,0.7-0.4,1.1c-0.2,0.4-0.2,0.8-0.2,1.2c0,0.7,0,1.3,0.1,2
		C452.1,262.1,452.7,262.1,453.1,262z"/>
</g>
</svg>
