<?xml version="1.0" encoding="utf-8"?>
<!-- Generator: Adobe Illustrator 18.1.1, SVG Export Plug-In . SVG Version: 6.00 Build 0)  -->
<!DOCTYPE svg PUBLIC "-//W3C//DTD SVG 1.1//EN" "http://www.w3.org/Graphics/SVG/1.1/DTD/svg11.dtd">
<svg version="1.1" id="Layer_1" xmlns="http://www.w3.org/2000/svg" xmlns:xlink="http://www.w3.org/1999/xlink" x="0px" y="0px"
	 viewBox="-85.6 27.5 593.9 301" enable-background="new -85.6 27.5 593.9 301" xml:space="preserve">
<g>
	<rect x="-85.3" y="31.5" fill="#FFFFFF" width="592" height="297"/>
	<ellipse fill="#FFFFFF" cx="384.4" cy="213.6" rx="22" ry="18.2"/>
	<path fill="#C3E9F6" d="M508.3,27.5H-85.6v242l0.5,14.4c35.5,23.4,81.9,27.2,123.5,17c9-2.2,17.9-5.3,27.1-6.1
		c18.9-1.7,37.1,5.7,55.6,9.4c24.4,4.9,50.2,3.3,73.8-4.6c10.2-3.5,20.2-8.1,30.9-10.2c31.6-6.4,63.9,9.8,96.1,7.3
		c11-0.9,21.7-3.9,32.6-6c19.9-3.8,40.6-4.4,60.8-1.7c15.2,2,30.2,5.9,45.6,6.5c15.4,0.5,34.3-2.8,45.2-13.1l2.1-6.7V27.5z"/>
	<path fill="#3A82B4" d="M390,267.4l-8.7,18.2c-0.3,0.5,0.2,1.2,0.8,1.2l42-0.4c0.4,0,0.9,0.4,0.8,0.9l-0.1,5.3
		c0,0.4,0.3,0.7,0.6,0.8l7,1.7c0.5,0.1,1.1-0.3,1-0.8l-0.2-7.9c0-0.4,0.4-0.9,0.8-0.9H476c0.6,0,1.1-0.7,0.7-1.2l-19.4-34.4
		c-0.4-0.5,0.1-1.2,0.7-1.2h5.1c0.6,0,1.1-0.7,0.7-1.2l-17.1-31.5c-0.3-0.5,0.1-1.2,0.7-1.2h4.1c0.6,0,1.1-0.7,0.7-1.2l-13.8-23.7
		c-0.4-0.5,0.1-1.2,0.7-1.2h6.8c0.6,0,1-0.6,0.7-1.2l-10-19.8c-0.3-0.5,0.1-1.2,0.7-1.2h3.7c0.6,0,1-0.6,0.7-1.2l-12.9-27.1
		c-0.4-0.6-1.2-0.6-1.5,0.1l-10.8,27.2c-0.2,0.5,0.2,1.2,0.8,1.2h2.5c0.6,0,1,0.6,0.7,1.2l-9.2,19.9c-0.3,0.5,0.2,1.2,0.7,1.2h5.3
		c0.6,0,1.1,0.7,0.7,1.2L403,215.6c-0.4,0.5,0.1,1.2,0.7,1.2h6.1c0.6,0,1.1,0.7,0.7,1.2L393,248.7c-0.4,0.5,0.1,1.2,0.7,1.2h3.2
		c0.6,0,1,0.6,0.7,1.2L390,267.4z"/>
	<path fill="#3A82B4" d="M-48.7,287.1l43.5,0.2c0.4,0,0.9,0.4,0.9,0.9V307c0,0.5,0.4,0.9,0.9,0.9l6.1-0.4c0.4,0,0.8-0.4,0.8-0.9
		L3.3,288c0-0.4,0.4-0.9,0.9-0.9h41.9c0.6,0,1.1-0.6,0.8-1.2l-29.5-68.3c-0.3-0.5,0.2-1.2,0.8-1.2h4.5c0.7,0,1.1-0.7,0.7-1.3
		L9.2,191c-0.4-0.5,0.1-1.3,0.7-1.3h5.9c0.6,0,1.1-0.7,0.8-1.2l-10-19.8c-0.3-0.5,0.1-1.2,0.8-1.2h3.6c0.6,0,1.1-0.7,0.8-1.2
		l-12.4-24.8c-0.4-0.6-1.2-0.6-1.6,0l-11,25.5c-0.3,0.5,0.2,1.2,0.8,1.2h2.6c0.6,0,1.1,0.6,0.8,1.2l-9.1,19.1
		c-0.3,0.5,0.2,1.2,0.8,1.2h4.6c0.6,0,1.1,0.7,0.8,1.2L-25,215.5c-0.3,0.5,0.1,1.2,0.8,1.2h4.5c0.6,0,1.1,0.7,0.8,1.2l-16.6,31
		c-0.3,0.5,0.1,1.2,0.8,1.2h4.7c0.6,0,1.1,0.7,0.7,1.3l-20,34.4C-49.8,286.4-49.4,287.1-48.7,287.1z"/>
	<polygon fill="#513023" points="389,267.9 389,289.1 392.8,289.1 392.8,265.9 	"/>
	<ellipse fill="#FFFFFF" cx="384.1" cy="208.6" rx="17.3" ry="13.9"/>
	<ellipse fill="#FFFFFF" cx="412.4" cy="206.4" rx="5.3" ry="4.8"/>
	<ellipse fill="#FFFFFF" cx="329.5" cy="252.8" rx="5.3" ry="4.8"/>
	<ellipse fill="#FFFFFF" cx="315.9" cy="264.9" rx="8.3" ry="7.4"/>
	<ellipse fill="#FFFFFF" cx="347.9" cy="270.3" rx="8.4" ry="7.5"/>
	<ellipse fill="#FFFFFF" cx="317.5" cy="273.2" rx="8.4" ry="7.5"/>
	<path fill="#513023" d="M312.5,283.7c0,0,3,8.6,19.5,2.5l9.9,8.1l5.3-1.2l-14-10.1l-0.1-4.5l-5.8,0.3l2.3,1.2l0.4,4.7
		c0,0-10.9,5.9-17.3-1.7l-0.5-1.5l-1.2,1.7L312.5,283.7z"/>
	<ellipse fill="#FFFFFF" cx="333.7" cy="274" rx="8.4" ry="7.5"/>
	<ellipse fill="#FFFFFF" cx="336.8" cy="277.1" rx="8.4" ry="7.5"/>
	<ellipse fill="#FFFFFF" cx="333.3" cy="271.4" rx="8.4" ry="7.5"/>
	<ellipse fill="#FFFFFF" cx="338.1" cy="266.5" rx="8.4" ry="7.5"/>
	<ellipse fill="#FFFFFF" cx="330.5" cy="261.5" rx="8.4" ry="7.5"/>
	<ellipse fill="#FFFFFF" cx="325.5" cy="261.8" rx="8.4" ry="7.5"/>
	<ellipse fill="#FFFFFF" cx="323" cy="268.4" rx="8.4" ry="7.5"/>
	<ellipse fill="#FFFFFF" cx="325.4" cy="276.8" rx="8.4" ry="7.5"/>
	<ellipse fill="#FFFFFF" cx="310.8" cy="280.6" rx="4.6" ry="4.1"/>
	<ellipse fill="#FFFFFF" cx="100.2" cy="277" rx="8.6" ry="7.7"/>
	<ellipse fill="#FFFFFF" cx="109.9" cy="276.7" rx="8.6" ry="7.7"/>
	<ellipse fill="#FFFFFF" cx="110.2" cy="265.8" rx="8.6" ry="7.7"/>
	<ellipse fill="#FFFFFF" cx="123.8" cy="258.5" rx="8.6" ry="7.7"/>
	<path fill="#513023" d="M101.8,297l9.4-6.5l2.6-1.9l1.8-1.8c0,0,1-1.6,1-1.8s-0.1-1.8-0.1-1.8l-0.4-2l1.1-1.2l2.8,1.1l-0.3,7.7
		l9.7,0.3l5.6-3.5l2.4,2.2l-5.2,2.9l-1.3,0.5c0,0-1,0.3-1.7,0.3c-0.7,0-3.4,0.2-3.9,0.2s-3,0-3.4,0c-0.4,0-2.6,0-3.3,0
		c-0.7,0-2.9,0.1-2.9,0.1l-12.9,7.9l-3.6-0.8L101.8,297z"/>
	<ellipse fill="#FFFFFF" cx="123.6" cy="268.4" rx="8.6" ry="7.7"/>
	<ellipse fill="#FFFFFF" cx="134.3" cy="267.1" rx="8.6" ry="7.7"/>
	<ellipse fill="#FFFFFF" cx="124.7" cy="277" rx="8.6" ry="7.7"/>
	<polygon fill="#513023" points="49.9,270 50.1,300.9 53.7,300.5 53.8,269.3 	"/>
	<ellipse fill="#FFFFFF" cx="139.6" cy="283.7" rx="6" ry="5.3"/>
	<ellipse fill="#FFFFFF" cx="113.9" cy="249.8" rx="2.8" ry="2.5"/>
	<ellipse fill="#FFFFFF" cx="71.9" cy="256.6" rx="24.5" ry="21.9"/>
	<ellipse fill="#FFFFFF" cx="52.5" cy="249.2" rx="24.5" ry="21.9"/>
	<ellipse fill="#FFFFFF" cx="62.3" cy="235.2" rx="26.9" ry="16.6"/>
	<ellipse fill="#FFFFFF" cx="38" cy="258.9" rx="19.2" ry="17.4"/>
	<ellipse fill="#FFFFFF" cx="30" cy="214.3" rx="5.4" ry="4.9"/>
	<ellipse fill="#FFFFFF" cx="59.7" cy="221.8" rx="20.6" ry="18.4"/>
	<ellipse fill="#FFFFFF" cx="48.5" cy="278.6" rx="4.9" ry="4.4"/>
	<ellipse fill="#FFFFFF" cx="26.9" cy="239.1" rx="20.7" ry="20.1"/>
	<ellipse fill="#FFFFFF" cx="375.1" cy="249.5" rx="26.7" ry="23.9"/>
	<ellipse fill="#FFFFFF" cx="357.7" cy="229" rx="16.1" ry="14.4"/>
	<ellipse fill="#FFFFFF" cx="415" cy="235" rx="23.9" ry="21.3"/>
	<ellipse fill="#FFFFFF" cx="411.6" cy="254.4" rx="13.8" ry="12.4"/>
	<ellipse fill="#FFFFFF" cx="402.9" cy="272.2" rx="6.3" ry="5.6"/>
	<path fill="#C3E9F6" d="M123.1,309c-4.4,1.9-4.8,2.8-5.4,7.3c-0.5,3.5,1.2,7.8,4.8,8.3h384v-24.8v-6.1l-0.3-2
		c-18.7,12.1-45.5,11.7-67.7,8.5s-44.8-9-67-5.8c-15.4,2.2-29.9,8.7-45.4,10.2c-28.7,2.8-57.1-11.4-85.9-9
		c-17.9,1.5-34.4,9.4-51.8,13.4"/>
	<path fill="#A8E4F4" d="M123.4,306.2c-4.4,1.2-4.8,1.8-5.4,4.6c-0.5,2.2,1.2,4.9,4.8,5.2h383.8v-15.6v-3.8l-2.7-1.2
		c-18.7,7.6-43,7.4-65.2,5.3c-22.3-2-44.7-5.6-67-3.6c-15.4,1.4-29.9,5.4-45.4,6.4c-28.7,1.8-57.1-7.1-85.8-5.6
		c-17.8,1-34.4,5.9-51.8,8.4"/>
	<path fill="#FFFFFF" d="M211.2,259.5c-3.3,2.1-5.4,5.9-5.5,9.7c-0.1,2.9,0.9,5.8,0.9,8.7c0,8.5-8,17.4-3.1,24.4
		c4.2,5.9,19.8,15.3,20.4,22.5c-30.7,4.7-65.5-0.5-96.3,3.5c-2.7,0.4-12-0.2-13.6-4.9c-0.2-5.3,2.2-15.5,5.5-18.4
		c14.9-13.4,28.7-26.6,43.9-39.7c4.5-3.8,9.7-6.9,15-9.3c8.9-3.9,18.5-6.1,28.2-6.5c3.3-0.1,6.8,0,8.9,3.5
		C216.6,257,213.5,258,211.2,259.5z"/>
	<g>
		<path fill="#3A82B4" d="M203.2,264.9c-1.4,3.9-5.8,6.8-10.5,5.9c0.2,0.3,0.3,0.5,0.4,0.8c2.9,5.3,6,10.7,8.8,16
			c0.4,0.6,0.7,0.8,1.3,0.9c3.7,0.5,7.9-1.9,9.4-5.3c0.3-0.5,0.2-1-0.1-1.5c-3-5.3-6-10.8-9-16.1
			C203.6,265.3,203.4,265.1,203.2,264.9z M197.3,274.5c3-0.2,5.2-1.4,6.8-3.7C203.4,273.1,199.9,275.1,197.3,274.5z M206.7,275.5
			c-0.5,2.3-4.6,4.6-6.5,3.7C203,279,205,277.8,206.7,275.5z M203,284c2.6-0.3,4.6-1.5,6.3-3.7C208.6,282.6,205.4,284.4,203,284z"/>
		<path fill="#3A82B4" d="M232.2,264c-0.4-0.8-0.7-1.5-1.2-2.3c-7.2,4.4-14.4,8.6-21.7,13c0.4,0.8,0.8,1.5,1.2,2.3
			C217.7,272.6,224.9,268.3,232.2,264z"/>
		<path fill="#3A82B4" d="M242.5,261.7c-0.4-0.8-0.8-1.5-1.2-2.3c-2.8,1.4-5.7,2.8-9.1,2.5c0.7,2,0.8,2,2.7,2
			C237.6,263.9,240,263,242.5,261.7z"/>
		<path fill="#3A82B4" d="M231.6,261.4c1.1,0.3,1.9,0.3,2.7-0.4c1.2-1,2.5-1.8,3.7-2.6c0.3-0.2,0.4-0.4,0.8-0.5
			c-0.4-0.8-0.8-1.4-1.2-2.3C235.1,257,232.9,258.5,231.6,261.4z"/>
		<path fill="#3A82B4" d="M240.1,259.5c0.4-0.2,0.6-0.3,1-0.4c-0.8-1.4-1.5-2.8-2.3-4.1c-0.4,0.2-0.5,0.3-1,0.4
			C238.6,256.8,239.3,258.1,240.1,259.5z"/>
		<path fill="#FFFFFF" d="M197.3,274.5c2.7,0.6,6.1-1.3,6.8-3.7C202.4,273.1,200.3,274.3,197.3,274.5z"/>
		<path fill="#FFFFFF" d="M206.7,275.5c-1.7,2.3-3.7,3.6-6.5,3.7C202.1,280.1,206.2,277.8,206.7,275.5z"/>
		<path fill="#FFFFFF" d="M203,284c2.4,0.4,5.6-1.4,6.3-3.7C207.6,282.5,205.5,283.6,203,284z"/>
	</g>
	<g>
		<path fill="#3A82B4" d="M275.4,283.5c1.9,3.2,1.3,7.9-2,10.7c0.3,0.1,0.5,0.2,0.7,0.2c5.3,1.1,10.8,2,16.1,3.1
			c0.6,0.1,1,0,1.4-0.4c2.5-2.2,3.3-6.6,1.8-9.5c-0.3-0.4-0.5-0.7-1.1-0.8c-5.4-1-10.9-2-16.3-3.1
			C275.9,283.6,275.7,283.6,275.4,283.5z M278.6,293.2c1.6-2.1,2-4.4,1.3-6.9C281.2,288.2,280.6,291.7,278.6,293.2z M284.7,287.2
			c1.3,1.7,0.5,5.9-1.2,6.7C284.9,291.8,285.3,289.7,284.7,287.2z M288.4,294.7c1.3-2,1.7-4.1,1.1-6.5
			C290.7,290,290.1,293.3,288.4,294.7z"/>
		<path fill="#3A82B4" d="M291.4,263c-0.8-0.2-1.5-0.4-2.3-0.5c-1.2,7.5-2.3,15-3.5,22.5c0.8,0.2,1.5,0.4,2.3,0.5
			C289.1,277.9,290.3,270.6,291.4,263z"/>
		<path fill="#3A82B4" d="M295.8,254.5c-0.8-0.2-1.5-0.3-2.3-0.4c-0.7,2.8-1.4,5.5-3.5,7.7c1.8,0.6,1.9,0.6,2.9-0.7
			C294.5,259.3,295.3,257,295.8,254.5z"/>
		<path fill="#3A82B4" d="M289.4,261.8c0.8-0.6,1.2-1.2,1.2-2.1c0-1.3,0.2-2.7,0.4-4.1c0-0.3,0.1-0.5,0.1-0.8
			c-0.8-0.2-1.4-0.3-2.3-0.4C288.3,256.9,288.1,259.4,289.4,261.8z"/>
		<path fill="#3A82B4" d="M292.9,255c0.1-0.4,0.2-0.6,0.2-1c-1.4-0.3-2.8-0.5-4.2-0.8c-0.1,0.3-0.2,0.5-0.3,0.9
			C290.2,254.4,291.5,254.7,292.9,255z"/>
		<path fill="#FFFFFF" d="M278.6,293.2c2-1.5,2.6-5,1.3-6.9C280.6,288.8,280.2,290.9,278.6,293.2z"/>
		<path fill="#FFFFFF" d="M284.7,287.2c0.6,2.5,0.3,4.6-1.2,6.7C285.2,293.1,286,288.9,284.7,287.2z"/>
		<path fill="#FFFFFF" d="M288.4,294.7c1.7-1.4,2.3-4.7,1.1-6.5C290.1,290.6,289.7,292.7,288.4,294.7z"/>
	</g>
	<path fill="#FFFFFF" d="M202.8,299c2.3,0.3,3.9,2.2,5.6,3.8c1.7,1.5,3.6,2.8,5.3,4.3c1.7,1.4,3.4,3.2,4.1,5.3
		c0.2,0.4,0.3,0.9,0.5,1.2c0.6,0.8,2.6,5.3,3.4,6.3c0.2,0.3,0.4,0.4,0.5,0.7c0.2,0.3,0.2,0.6,0.2,0.9c0,0.5,0.1,1.2,0.1,1.7
		c0,0.2,0,0.4-0.1,0.4c-0.1,0.1-0.2,0.2-0.4,0.3c-1.1,0.5-2.2,0.9-3.5,1.1c-0.5,0.1-1.1,0.1-1.5-0.1c-0.5-0.2-0.9-0.5-1.2-0.9
		c-2.8-2.4-5.5-4.9-8.3-7.3c-0.6-0.5-1.3-1.2-2.1-1.5c-0.6-0.3-1.2-0.4-1.9-0.6c-2.7-0.7-5.3-1.4-7.7-2.8c-2.4-1.5-4.3-3.7-6.5-5.5
		c1.4-0.6,2-2.3,2.8-3.6c1-1.2,2.4-1.9,3.8-2.3s3-0.4,4.5-0.6c0.4,0,0.9-0.1,1.2-0.4c0.2-0.1,0.3-0.3,0.4-0.4
		C202.4,299,202.6,299,202.8,299z"/>
	<path fill="#FFFFFF" d="M207.8,298.8c0.3,1.6,0.5,3.6-0.2,4.4c-0.4,0.4-0.8,0.3-1.2,0.4c-1.8,0.2-2.9,3.1-3.3,6.2
		c-0.3,3.2,0.2,6.7,0.6,10c-1.7-2.5-3.4-5.1-4.5-8.4c-1.2-3.3-1.8-7-2.4-10.7c-1.5-7.9-3.6-15.7-6.1-23c-1.1-3.1-2.3-6.9-1.5-9.8
		c0.2-0.7,0.5-1.3,0.6-2.2c0.1-0.8-0.2-2-0.7-2.1c2.5-0.6,5-1.2,7.6-1.8c0.7-0.2,1.5-0.4,2.2,0.3c1,0.8,1.6,2.8,2.1,4.6
		c1.1,3.9,2.1,7.8,3,11.9c0.5,2.5,1,5,1.4,7.5C206.3,290.2,207.1,294.5,207.8,298.8z"/>
	<path fill="#FFFFFF" d="M293.7,296.2c0.2,1.2-0.3,2.5-1.2,3.2c-1.2,1-2.8,1-4.5,0.9c-6.8-0.4-13.4-1.8-19.9-3.4
		c-0.9-0.3-2-0.5-2.3-1.4c-0.3-0.7,0.1-1.6,0.7-2.1c0.6-0.5,1.4-0.7,2.2-0.9c2.8-0.4,5.6-0.1,8.5,0.4c1.9,0.3,3.7,0.5,5.6,0.8
		c1.2,0.2,2.5,0.4,3.7,0.8C288.9,295.1,291.3,296.8,293.7,296.2z"/>
	<ellipse fill="#FFFFFF" cx="327.1" cy="255.6" rx="5.6" ry="6.1"/>
	<path fill="#35CDD0" d="M318.7,280.1l2.6-5.6l2.5-8.9c0.3-1,0.6-2-0.4-2.2l0,0c-1-0.3-2.8,0.3-3.1,1.2l-1.8,8.2l-2.4,7.9
		c-0.3,1,0.3,0.4,1.2,0.7l0,0C318.3,281.7,318.4,281.1,318.7,280.1z"/>
	<path fill="#35CDD0" d="M338.3,260.9l-7.5,2.7c-1.1,0.4-1.6,1.6-1.2,2.7v0.1c0.4,1.1,1.6,1.6,2.7,1.2l7.5-2.7
		c1.1-0.4,1.6-1.6,1.2-2.7v-0.1C340.6,261,339.4,260.4,338.3,260.9z"/>
	<path fill="#00A9DB" d="M331.6,281.9h-8.5c-1.2,0-2.2-1.1-2.2-2.3v-13.2c0-1,0.4-2,1.1-2.7c0.4-0.3,0.7-0.5,1.2-0.4
		c0.6,0,1.2,0.5,1.8,0.7c0.7,0.2,1.3,0.2,2,0.3c0.8,0,1.5,0,2.3-0.2c0.7-0.2,1.3-0.6,2-0.8c1.5-0.3,2.5,1.9,2.5,3.1v13.2
		C333.7,280.8,332.7,281.9,331.6,281.9z"/>
	<path fill="#3A82B4" d="M326.9,264.2c-2.8,0-4.2-1.1-4.3-1.1l0.7-2.6c0.2,0.1,2.5,2.9,6.7,0.3l0.9,2.3
		C329.3,264.2,328.4,264.2,326.9,264.2z"/>
	
		<polygon fill="#3A82B4" stroke="#3A82B4" stroke-width="1.1232" stroke-linecap="round" stroke-linejoin="round" stroke-miterlimit="10" points="
		323.6,263.1 322,268.2 324.5,268.9 325.8,263.6 	"/>
	
		<polygon fill="#3A82B4" stroke="#3A82B4" stroke-width="1.1232" stroke-linecap="round" stroke-linejoin="round" stroke-miterlimit="10" points="
		325.4,263.2 326.1,267.2 328,266.8 327.1,262.7 	"/>
	<path fill="#35CDD0" d="M337.1,262l-2.6,5.3c-0.6,0.9-1.2,2.1-0.4,2.8l0.2,0.1c0.9,0.6,0.4,1.2,1,0.4l5.3-6.1
		c0.6-0.9,0.4-2.1-0.5-2.8l-0.2-0.1C339,260.9,337.7,261.1,337.1,262z"/>
	<path fill="#3A82B4" d="M308.9,276.7c-0.8,2.8-3.6,5.1-6.9,4.8c0.1,0.2,0.2,0.4,0.3,0.5c2.2,3.5,4.5,6.9,6.7,10.3
		c0.3,0.4,0.5,0.5,1,0.5c2.6,0.1,5.3-1.9,6.2-4.3c0.1-0.4,0.1-0.6-0.1-1c-2.2-3.5-4.5-6.9-6.8-10.4
		C309.1,277.1,309,276.9,308.9,276.7z M305.1,283.7c2-0.4,3.5-1.3,4.5-3.1C309.2,282.4,307,284,305.1,283.7z M311.6,283.7
		c-0.3,1.6-3,3.5-4.3,3C309.1,286.5,310.6,285.4,311.6,283.7z M309.4,289.9c1.8-0.4,3.1-1.3,4.2-3
		C313.2,288.4,311.1,290,309.4,289.9z"/>
	<path fill="#3A82B4" d="M328.5,274c-0.3-0.5-0.5-1-0.9-1.5c-4.8,3.5-9.5,6.9-14.3,10.5c0.3,0.5,0.6,1,0.9,1.5
		C319,281,323.7,277.5,328.5,274z"/>
	<path fill="#3A82B4" d="M335.6,271.6c-0.4-0.5-0.6-1-1-1.5c-1.9,1.2-3.8,2.3-6.1,2.4c0.5,1.2,0.6,1.3,1.9,1.2
		C332.3,273.6,333.9,272.8,335.6,271.6z"/>
	<path fill="#3A82B4" d="M328.1,272.2c0.8,0.1,1.2,0,1.8-0.5c0.7-0.8,1.6-1.4,2.4-2c0.2-0.1,0.4-0.3,0.5-0.4c-0.3-0.4-0.6-1-1-1.5
		C330.3,269,328.8,270.3,328.1,272.2z"/>
	<path fill="#3A82B4" d="M333.8,270.4c0.3-0.2,0.4-0.3,0.6-0.4c-0.6-0.9-1.2-1.8-1.7-2.7c-0.2,0.1-0.4,0.3-0.6,0.4
		C332.6,268.6,333.3,269.5,333.8,270.4z"/>
	<path fill="#FFFFFF" d="M305.1,283.7c1.9,0.3,4.1-1.3,4.5-3.1C308.6,282.4,307.2,283.5,305.1,283.7z"/>
	<path fill="#FFFFFF" d="M311.6,283.7c-1.1,1.7-2.4,2.8-4.3,3C308.6,287.2,311.4,285.3,311.6,283.7z"/>
	<path fill="#FFFFFF" d="M309.4,289.9c1.7,0.2,3.8-1.3,4.2-3C312.5,288.4,311.2,289.4,309.4,289.9z"/>
	<circle fill="#FFFFFF" cx="326.3" cy="269" r="1"/>
	<circle fill="#FFFFFF" cx="327" cy="278.5" r="1"/>
	<path fill="#00A9DB" d="M334,294.6v0.5l-5.9,1.2l-0.1-1.5l-0.7-10.3c0-0.8-1.4-3.6,2-3.7h3.5c0.6,0,1.2,0.7,1.2,1.7L334,294.6
		L334,294.6z"/>
	<path fill="#00A9DB" d="M321.1,294.5c0,0.9-0.4,2.8,0.3,2.8l5.2-0.7c0.7,0,0.5-1.1,0.5-1.9l0.7-10.3c0-0.8,1.4-3.6-2-3.7h-3.5
		c-0.6,0-1.2,0.7-1.2,1.7V294.5z"/>
	<path fill="#3A82B4" d="M321.2,252.7c0,0,1.2-12.6,12.5-4.3c0,0,0.5,1.9-0.3,2c-0.4,0.1-2-1.2-0.5,0.1c0.7,0.6,0.5,1.6,0.2,2
		l-6.2-2.1L321.2,252.7z"/>
	<path fill="#35CDD0" d="M324.7,254.7L324.7,254.7c-0.3,0-0.4-0.2-0.4-0.4V254c0-0.3,0.2-0.4,0.4-0.4l0,0c0.3,0,0.4,0.2,0.4,0.4v0.3
		C325.2,254.5,324.9,254.7,324.7,254.7z"/>
	<circle fill="#35CDD0" cx="322.2" cy="251.2" r="1.3"/>
	<circle fill="#35CDD0" cx="323.7" cy="250.4" r="1.3"/>
	<circle fill="#35CDD0" cx="325.2" cy="250.4" r="1.3"/>
	<circle fill="#35CDD0" cx="325.9" cy="249.4" r="1.3"/>
	<circle fill="#35CDD0" cx="327.5" cy="249.9" r="1.3"/>
	<circle fill="#35CDD0" cx="327.2" cy="250.4" r="1.3"/>
	<circle fill="#35CDD0" cx="328.8" cy="250.8" r="1.3"/>
	<circle fill="#35CDD0" cx="329.4" cy="250" r="1.3"/>
	<circle fill="#35CDD0" cx="330.6" cy="251.4" r="1.3"/>
	<circle fill="#35CDD0" cx="331.6" cy="251.5" r="1.3"/>
	<circle fill="#35CDD0" cx="331.8" cy="252.9" r="1.3"/>
	<circle fill="#35CDD0" cx="332.6" cy="252.7" r="1.3"/>
	<circle fill="#35CDD0" cx="321.9" cy="252.5" r="1.3"/>
	<g>
		<circle fill="#35CDD0" cx="333.7" cy="248" r="0.7"/>
		<circle fill="#35CDD0" cx="333.5" cy="249" r="0.8"/>
		<circle fill="#35CDD0" cx="334.2" cy="248.4" r="0.4"/>
		<circle fill="#35CDD0" cx="333.1" cy="248.8" r="0.7"/>
		<circle fill="#35CDD0" cx="333.1" cy="247.9" r="0.6"/>
		<circle fill="#35CDD0" cx="334.6" cy="248.8" r="0.4"/>
		<circle fill="#35CDD0" cx="334.3" cy="248" r="0.5"/>
		<circle fill="#35CDD0" cx="334.2" cy="247.3" r="0.7"/>
	</g>
	<path fill="none" stroke="#3A82B4" stroke-width="3.358" stroke-miterlimit="10" d="M284,255.2c0,0,2.8-11.7-10.9-12.5
		c0,0-6.9-0.5-8.5,7.4"/>
	<ellipse fill="#FFFFFF" cx="274.3" cy="256.3" rx="9.8" ry="10.6"/>
	<path fill="#35CDD0" d="M281.2,258.4c0,3.6-2.9,6.7-6.7,6.7s-6.7-2.9-6.7-6.7H281.2z"/>
	<path fill="#35CDD0" d="M261.3,293.6l6.9-21c0.6-2-0.2-4-1.9-4.5l0,0c-1.7-0.5-3.6,0.6-4.2,2.6l-6.9,20.6c-0.6,2,0.3,4.4,1.9,5l0,0
		C258.8,296.8,260.6,295.7,261.3,293.6z"/>
	<path fill="#35CDD0" d="M296,274.3l-12.3-5.8c-1.5-0.6-3.2,0.2-3.8,1.7l-0.5,1.3c-0.6,1.5,0.2,3.2,1.7,3.8l12.3,5.8
		c1.5,0.6,3.2-0.2,3.8-1.7l0.5-1.3C298.2,276.6,297.5,274.8,296,274.3z"/>
	
		<path fill="none" stroke="#35CDD0" stroke-width="0.5597" stroke-linecap="round" stroke-linejoin="round" stroke-miterlimit="10" d="
		M273.2,253.7c-0.3,0.8-1.6,1.4-1.5,2.3c0.1,1.2,1.8,0.8,2.5,0.8"/>
	
		<path fill="none" stroke="#35CDD0" stroke-width="0.5597" stroke-linecap="round" stroke-linejoin="round" stroke-miterlimit="10" d="
		M269.1,252.2c0,0,1-1.2,2.5,0"/>
	<path fill="#00A9DB" d="M284.2,299.8L284.2,299.8c0.8-0.8,1.3-1.9,1.3-3.2l0.9-23.1c0-2.3-2.7-6.9-5.2-6.4
		c-1.2,0.2-2.3-0.7-3.5-0.4c-1.2,0.3-2.6,0.4-3.9,0.3c-1.2,0-3.3-0.1-4.5-0.4c-1-0.3-2,0.6-2.9,0.5c-0.7,0-2.3,1.2-2.8,1.7
		c-1.2,1.2-1.8,3-1.8,4.7l0.9,24c0,1.2,0.5,2.3,1.2,3.1c-0.8,0.4-1.4,1.4-1.4,2.7v18.6c0,1.5,0.8,2.8,1.9,2.8h6.2
		c1.2,0,2.3-1,2.3-2.2l0.9-11.4l0.9,11.6c0,1.2,1.1,2.2,2.3,2.2h6.2c1.1,0,1.9-1.2,1.9-2.8l0.9-19.5
		C286.1,301.1,285.3,299.8,284.2,299.8z"/>
	
		<path fill="none" stroke="#35CDD0" stroke-width="0.5597" stroke-linecap="round" stroke-linejoin="round" stroke-miterlimit="10" d="
		M275.1,252.2c0,0,1-1.2,2.5,0"/>
	<path fill="#35CDD0" d="M265.1,247.6c0.6-1.8,1.5-3.5,2.9-4.6c1.4-1.2,3.4-1.8,5.2-1.2c1.5,0.4,2.8,1.6,4.3,2.1
		c1.1,0.4,2.1,0.4,3.2,0.8c1.7,0.7,2.8,2.4,3.2,4.2c0.4,1.8,0.4,3.6,0.2,5.4c-1.5-3.1-5.7-3.6-8.1-6.1c-0.4-0.4-0.9-1-1.5-1.1
		c-1-0.1-1.5,1-2.3,1.5c-1.4,1-3.6,0-5,1c-1.8,1.2-2,2.8-2.6,5.3C263.8,252.7,264.3,250,265.1,247.6z"/>
	<path fill="#3A82B4" d="M283.7,258.2c0.6,0.1,1.2,0.1,1.8-0.3c0.5-0.3,1-0.8,1-1.4c0.1-0.6-0.3-1.2-0.9-1.4c0.4-0.4,0.4-1,0.4-1.5
		c-0.1-0.5-0.4-1-0.9-1.3c0-0.4-0.3-0.7-0.6-0.9c-0.4-0.2-0.8,0-1,0.3c0,0,0.6,2.8,0,5.4L283.7,258.2z"/>
	<path fill="#3A82B4" d="M264.6,256.3c-0.6,0.1-1.3,0.1-2-0.3c-0.6-0.4-1.1-0.9-1.1-1.6c-0.1-0.6,0.4-1.3,1-1.6
		c-0.4-0.4-0.5-1.1-0.4-1.7c0.1-0.6,0.5-1.2,1-1.4c0-0.4,0.3-0.8,0.6-1c0.4-0.2,0.9,0,1.1,0.4c0,0-0.7,3,0,6L264.6,256.3z"/>
	<path fill="#3A82B4" d="M274.1,271.1c-1.2,0-2.5-0.1-3.4-0.3c-2.9-0.7-4.3-1.6-4.4-1.7l0.3-1.4l1.7-2.5c0.3,0.2,4.5,4.3,11.9-0.4
		l1,4.8C278.1,271.5,276.4,271.1,274.1,271.1z"/>
	
		<polygon fill="#3A82B4" stroke="#3A82B4" stroke-width="1.1232" stroke-linecap="round" stroke-linejoin="round" stroke-miterlimit="10" points="
		267.4,268.2 264.6,277.2 269.1,278.4 271.4,269 	"/>
	
		<polygon fill="#3A82B4" stroke="#3A82B4" stroke-width="1.1232" stroke-linecap="round" stroke-linejoin="round" stroke-miterlimit="10" points="
		271.2,269.7 272.4,276.7 275.9,276 274.3,268.9 	"/>
	<path fill="#FFFFFF" d="M268.4,258.8h12.1l-0.2,1.5h-11.7C268.6,260.2,268.6,258.5,268.4,258.8z"/>
	<path fill="#3A82B4" d="M236.3,272.7c-3.6,2.8-9.4,2.8-13.4-0.9c0,0.4-0.1,0.6-0.1,1c-0.4,6.8-0.9,13.4-1.3,20.2
		c-0.1,0.7,0.2,1.2,0.7,1.7c3.1,2.8,8.5,3,11.9,0.7c0.5-0.4,0.8-0.7,0.8-1.4c0.4-6.8,0.9-13.6,1.3-20.4
		C236.3,273.3,236.3,273.1,236.3,272.7z M224.9,278.1c2.9,1.7,5.6,1.7,8.6,0.5C231.4,280.5,227.1,280.3,224.9,278.1z M233.1,284.6
		c-1.9,1.9-7.1,1.5-8.3-0.4C227.5,285.7,230.2,285.8,233.1,284.6z M224.6,290.3c2.6,1.2,5.3,1.4,8.1,0.3
		C230.6,292.4,226.6,292.2,224.6,290.3z"/>
	<path fill="#3A82B4" d="M274.8,293.3c0.1-1,0.1-1.9,0.2-2.8c-3.6-0.4-7-0.9-10-3.1c-0.4,2.2-0.4,2.3,1.3,3.5
		C268.8,292.4,271.7,293,274.8,293.3z"/>
	<path fill="#3A82B4" d="M264.8,286.5c0.9,0.9,1.6,1.3,2.8,1.2c1.7-0.3,3.4-0.2,5-0.3c0.4,0,0.6,0,1,0c0.1-1,0.2-1.9,0.2-2.8
		C270.7,284.5,267.7,284.6,264.8,286.5z"/>
	<path fill="#3A82B4" d="M273.8,289.9c0.4,0.1,0.8,0.1,1.2,0.1c0.1-1.8,0.3-3.5,0.4-5.3c-0.4-0.1-0.7-0.1-1.2-0.2
		C274.1,286.3,274,288.1,273.8,289.9z"/>
	<path fill="#FFFFFF" d="M224.9,278.1c2.1,2.2,6.4,2.4,8.6,0.5C230.6,279.8,227.9,279.7,224.9,278.1z"/>
	<path fill="#FFFFFF" d="M233.1,284.6c-2.9,1.2-5.6,1.1-8.3-0.4C226,286.1,231.3,286.5,233.1,284.6z"/>
	<path fill="#FFFFFF" d="M224.6,290.3c2,1.9,6.1,2,8.1,0.3C229.8,291.7,227.2,291.7,224.6,290.3z"/>
	<circle fill="#FFFFFF" cx="272.9" cy="280" r="1.8"/>
	<path fill="#35CDD0" d="M291.1,275.3l-14.6,8.8c-1.4,1.4-2.4,2.8-1.1,4.3l0,0c1.4,1.4,2.8,0.6,4.3-0.7l16.4-7
		c1.4-1.4,1.5-3.7,0.2-5.2l0,0C294.9,273.9,292.5,273.9,291.1,275.3z"/>
	<circle fill="#FFFFFF" cx="274.2" cy="296.5" r="1.8"/>
	<ellipse fill="#FFFFFF" cx="392.3" cy="263.6" rx="6.4" ry="8"/>
	<path fill="#35CDD0" d="M387.7,274.7l-0.4-0.9c-0.4-0.9-1.6-1.2-2.5-0.7l-6.7,3.6l-8-1.2c-0.9-0.4-2-0.8-2.2,0.2l-0.3,0.7
		c-0.4,0.9,0.1,1.1,1.1,1.3l9.3,3.5c0.2,0.1,0.3,0.1,0.4,0.1c0.4,0.1,0.9,0.1,1.2-0.2l7.4-4C387.8,276.6,388.2,275.5,387.7,274.7z"
		/>
	<path fill="none" stroke="#35CDD0" stroke-width="0.4231" stroke-miterlimit="10" d="M392,260.9c0,2-1.4,1.8-1.2,2.9
		c0.1,0.6,1.5,0.6,2,0.3"/>
	<path fill="#3A82B4" d="M392,274.3c-3.6,0-6.1-1.2-6.1-1.2l2.1-4c0.2,0.2,3.6,3.7,7.9,0l1.6,3.6C395.4,274,393.8,274.3,392,274.3z"
		/>
	<path fill="#35CDD0" d="M412.2,263.9l-1.9,0.3c-1.8,1.3-2.8,3.5-3.5,4.7l-1.2,3.5l-8.6,1c-1.3,0.4-2,2-1.6,3.3l0.1,0.4
		c0.4,1.3,2,2,3.3,1.6l8.5-3c0.4-0.2,0.8-0.4,1.1-0.8c0.4-0.3,0.6-0.5,0.8-0.9l1.7-4.2C411.6,268.3,413.5,264.5,412.2,263.9z"/>
	<path fill="#3A82B4" d="M359,305.7c2.1,2.6,2.3,6.9-0.1,9.8c0.3,0,0.4,0.1,0.7,0.1c4.7,0.2,9.4,0.3,14.2,0.4c0.5,0,0.8-0.2,1.2-0.5
		c1.8-2.4,1.8-6.3,0-8.8c-0.3-0.4-0.5-0.5-1-0.5c-4.8-0.2-9.5-0.3-14.3-0.4C359.4,305.7,359.3,305.7,359,305.7z M363.3,313.9
		c1.1-2.1,1-4.2,0-6.3C364.7,309.1,364.7,312.3,363.3,313.9z M367.4,307.8c1.4,1.3,1.3,5.2,0,6.1
		C368.4,311.9,368.4,309.9,367.4,307.8z M371.8,313.9c0.8-2,0.8-3.8-0.1-6C373,309.4,373,312.4,371.8,313.9z"/>
	<path fill="#3A82B4" d="M369.5,285.2c-0.7-0.1-1.3-0.1-2-0.2c0.2,6.9,0.4,13.6,0.5,20.6c0.7,0.1,1.3,0.1,2,0.2
		C369.8,298.9,369.6,292.1,369.5,285.2z"/>
	<path fill="#3A82B4" d="M371.8,277.1c-0.7,0-1.3-0.1-2-0.1c-0.2,2.6-0.4,5.2-1.8,7.4c1.6,0.3,1.7,0.3,2.4-1.1
		C371.5,281.4,371.8,279.4,371.8,277.1z"/>
	<path fill="#00A9DB" d="M400.2,296.5c0.4-0.5,0.6-1.2,0.6-2l-2.7-5.1l0.9-6.4l0.9-6.1c0-1.8-1.3-4.5-3.2-4.2
		c-0.9,0.2-1.7,0.8-2.6,1.1c-1,0.3-2,0.3-2.9,0.3c-0.9,0-1.8-0.1-2.7-0.3c-0.7-0.2-1.4-0.9-2.2-0.9c-0.5,0-1.1,0.3-1.5,0.6
		c-0.9,0.9-1.3,2.2-1.3,3.6l0.9,7.1l0.9,5.1l-2.7,5.3c0,0.8,0.3,1.5,0.7,2c-0.4,0.4-0.8,1.1-0.8,1.9l1.8,15.9c0,1.2,0.7,2.1,1.5,2.1
		h3.7c1,0,1.8-0.8,1.8-1.9l0.6-9.6l0.6,9.7c0,1.1,0.8,1.9,1.8,1.9h3.7c0.8,0,1.5-1,1.5-2.1l1.8-15.9
		C401.4,297.5,400.8,296.7,400.2,296.5z"/>
	<path fill="#3A82B4" d="M367.5,284.5c0.6-0.6,0.9-1.2,0.7-2c-0.3-1.2-0.3-2.4-0.4-3.6c0-0.3,0-0.4-0.1-0.7c-0.7,0-1.3-0.1-2-0.1
		C365.9,280.3,366.1,282.5,367.5,284.5z"/>
	<path fill="#3A82B4" d="M369.5,277.9c0-0.3,0-0.5,0-0.9c-1.2,0-2.4-0.1-3.6-0.1c0,0.3,0,0.5-0.1,0.8
		C367.1,277.8,368.2,277.9,369.5,277.9z"/>
	<path fill="#FFFFFF" d="M363.3,313.9c1.4-1.6,1.4-4.8,0-6.3C364.2,309.7,364.2,311.8,363.3,313.9z"/>
	<path fill="#FFFFFF" d="M367.4,307.8c0.9,2.1,1,4.1,0,6.1C368.9,312.9,368.9,309.1,367.4,307.8z"/>
	<path fill="#35CDD0" d="M385.5,264.7c-0.3-1.1-0.3-2.2-0.3-3.4c-0.1,0-0.1,0-0.2,0c-0.2,2.2-1.7,3.8-1.9,6.1
		c-0.1,1.3,0.2,2.7,0.7,3.8c0.4,0.8,0.9,1.6,1.2,2.4c0.6,1.4,0.9,3,0.8,4.5c0.4-0.8,0.7-1.6,1.1-2.3c0.3-0.7,0.6-1.3,0.7-2.1
		c0.3-1.3-0.2-3.2,0.4-4.5c-0.9-0.7-1.6-1.7-2.1-2.8C385.7,265.6,385.8,265.6,385.5,264.7z"/>
	<path fill="#35CDD0" d="M398.1,264c0.3-1.1,0-2.7,0-3.8c0.1,0,0.1,0,0.2,0c0.2,2.2,2.4,4.5,2.6,6.7c0.1,1.3-0.2,2.7-0.7,3.8
		c-0.4,0.8-0.9,1.6-1.2,2.4c-0.6,1.4-0.9,3-0.8,4.5c-0.4-0.8-0.7-1.6-1.1-2.3c-0.3-0.7-0.6-1.3-0.7-2.1c-0.3-1.3,0.2-2.8-0.4-4.1
		c0.9-0.7,1.1-1.8,1.7-2.8C398,265.4,397.9,265,398.1,264z"/>
	<path fill="#FFFFFF" d="M371.8,313.9c1.2-1.5,1.2-4.5-0.1-6C372.6,310,372.6,311.9,371.8,313.9z"/>
	<path fill="#3A82B4" d="M400.6,259.7c-0.4,0.9-1.3,1.9-1.6,2.8c0,0-2.1-4.5-6.9-4.7c-4.9-0.2-7.1,4.5-7.1,4.5
		c-0.4-1.1-0.7-2.2-0.7-3.5c0-4.6,3.6-8.3,8.2-8.3C397,250.4,401.8,257.1,400.6,259.7z"/>
	<circle fill="#35CDD0" cx="393" cy="249.8" r="1.3"/>
	<circle fill="#35CDD0" cx="393.7" cy="249.2" r="0.7"/>
	<circle fill="#35CDD0" cx="392.1" cy="248.7" r="0.5"/>
	<circle fill="#35CDD0" cx="392.4" cy="250.4" r="0.6"/>
	<circle fill="#35CDD0" cx="394.2" cy="250.4" r="0.5"/>
	<circle fill="#35CDD0" cx="391.9" cy="249.7" r="0.7"/>
	<circle fill="#35CDD0" cx="393.1" cy="248.8" r="0.7"/>
	<circle fill="#35CDD0" cx="393.2" cy="250.6" r="0.7"/>
	<circle fill="#35CDD0" cx="393.8" cy="249.8" r="0.7"/>
	<circle fill="#35CDD0" cx="393.7" cy="248.9" r="0.7"/>
	<ellipse fill="#35CDD0" cx="389.2" cy="260.8" rx="0.5" ry="0.7"/>
	<ellipse fill="#35CDD0" cx="394.9" cy="260.8" rx="0.5" ry="0.7"/>
	
		<path fill="none" stroke="#35CDD0" stroke-width="0.3919" stroke-linecap="round" stroke-linejoin="round" stroke-miterlimit="10" d="
		M326.7,254c-0.2,0.5-1.2,1.9-1.1,2.5c0.1,0.8,1.2,0.5,1.8,0.5"/>
	<circle fill="#FFFFFF" cx="391.6" cy="286.8" r="1.3"/>
	
		<path fill="none" stroke="#35CDD0" stroke-width="0.432" stroke-linecap="round" stroke-linejoin="round" stroke-miterlimit="10" d="
		M390.1,267.1c0,0,3.7,0.7,5.2-1.3"/>
	
		<path fill="none" stroke="#35CDD0" stroke-width="0.432" stroke-linecap="round" stroke-linejoin="round" stroke-miterlimit="10" d="
		M394.8,265c0,0-0.1,0.4,1.2,0.6"/>
	
		<path fill="none" stroke="#00A9DB" stroke-width="0.5616" stroke-linecap="round" stroke-linejoin="round" stroke-miterlimit="10" d="
		M385.8,257.4c0,0-0.1,1.3,0.3,1.9"/>
	
		<path fill="none" stroke="#00A9DB" stroke-width="0.5616" stroke-linecap="round" stroke-linejoin="round" stroke-miterlimit="10" d="
		M387.6,256c0,0-0.1,1.4,0.3,1.8"/>
	
		<path fill="none" stroke="#00A9DB" stroke-width="0.5616" stroke-linecap="round" stroke-linejoin="round" stroke-miterlimit="10" d="
		M389.7,255.2c0,0-0.2,1,0.2,1.7"/>
	
		<path fill="none" stroke="#00A9DB" stroke-width="0.5616" stroke-linecap="round" stroke-linejoin="round" stroke-miterlimit="10" d="
		M391.9,255c-0.1,0.8,0,1.8,0,1.8"/>
	
		<path fill="none" stroke="#00A9DB" stroke-width="0.5616" stroke-linecap="round" stroke-linejoin="round" stroke-miterlimit="10" d="
		M394.7,255.5c0,0-0.4,0.9-0.4,1.8"/>
	
		<path fill="none" stroke="#00A9DB" stroke-width="0.5616" stroke-linecap="round" stroke-linejoin="round" stroke-miterlimit="10" d="
		M396.8,256.6c0,0-0.7,0.9-0.7,1.6"/>
	
		<path fill="none" stroke="#00A9DB" stroke-width="0.5616" stroke-linecap="round" stroke-linejoin="round" stroke-miterlimit="10" d="
		M398.8,258.3c0,0-1.1,0.9-1.1,1.3"/>
	<path fill="#35CDD0" d="M328.6,254.7L328.6,254.7c-0.3,0-0.4-0.2-0.4-0.4V254c0-0.3,0.2-0.4,0.4-0.4l0,0c0.3,0,0.4,0.2,0.4,0.4v0.3
		C329.1,254.5,328.9,254.7,328.6,254.7z"/>
	<path fill="#35CDD0" d="M329.5,258c0,1.2-1,2.2-2.2,2.2s-2.2-1-2.2-2.2H329.5z"/>
	<path fill="#FFFFFF" d="M325.3,258.3h4l-0.1,0.5h-3.9C325.4,258.8,325.4,258.3,325.3,258.3z"/>
	<circle fill="#FFFFFF" cx="391.7" cy="279.2" r="1.3"/>
	<circle fill="#FFFFFF" cx="392.1" cy="293.1" r="1.3"/>
	
		<polygon fill="#3A82B4" stroke="#3A82B4" stroke-width="0.5616" stroke-linecap="round" stroke-linejoin="round" stroke-miterlimit="10" points="
		389.9,272.9 390.8,278.2 393.3,277.6 392.1,272.2 	"/>
	
		<polygon fill="#3A82B4" stroke="#3A82B4" stroke-width="1.1232" stroke-linecap="round" stroke-linejoin="round" stroke-miterlimit="10" points="
		387.7,272.6 385.6,279.5 389,280.3 390.8,273.3 	"/>
	<path fill="#35CDD0" d="M258.8,291.3l-10-3.6c-1.2,0-2.2-0.5-2.1,1v-0.9c0,1.5-1.8,1.7,1.3,3.6l10,7.1c1.2,0,3.1-3,3-4.5l0,0
		C260.9,292.5,259.9,291.3,258.8,291.3z"/>
	<path fill="#3A82B4" d="M263.8,289.2c0.1-1,0.2-1.9,0.3-2.8c-9.3-0.3-18.6-0.6-28-0.9c-0.1,1-0.2,1.9-0.3,2.8
		C245.2,288.6,254.4,288.9,263.8,289.2z"/>
	<path fill="#35CDD0" d="M248.3,285.3L248.3,285.3c-0.3-0.2-0.4-0.4-0.6-0.4c-0.4-0.1-0.8,0.2-1.2,0.3c-0.4,0-1-0.1-1.4-0.3
		c-0.2-0.1-0.4-0.2-0.6-0.2c-0.2,0-0.3,0.1-0.4,0.2c-0.6,0.3-1.3-0.3-1.8,0.3c-0.2,0.2-0.2,0.5,0,0.7c0.4,0.7,0.8,1.4,1.2,2.1
		c0.3,0.4,0.4,0.8,0.8,1.2c0.6,0.6,1.4,0.9,2.2,1s1.7-0.1,2.5-0.4c0.4-0.1,0.7-0.3,1-0.5c0.2-0.3,0.3-0.5,0.4-0.9
		C250.6,286.9,249.3,286.1,248.3,285.3z"/>
	<path fill="#35CDD0" d="M275,290.3c0,0.5,0,1,0.1,1.5c0.6,0,1.2-0.4,1.6-1c0.6-0.8,1.2-1.9,1.1-2.8c-0.2-1-1-1.8-1.7-2.5
		c-0.2-0.1-0.3-0.3-0.5-0.3c-0.1,0-0.2,0.1-0.3,0.1c-1-0.1-3.4-0.8-4-0.2c-0.1,0.1-0.2,0.2-0.2,0.3c-0.1,0.1-0.1,0.3-0.1,0.4
		c0,0.8,0,3.1,0,3.9c0.9,0.2,2.2,0.4,2.4,0.5C273.8,290.5,274.4,290.3,275,290.3z"/>
	<path fill="#35CDD0" d="M318.5,282.6c0.1-0.4,0.1-0.9,0.2-1.3c-0.3,0-0.3-0.4-0.4-0.5c-0.2-0.3-0.6-0.3-0.8,0
		c-0.1,0.2-0.1,0.4-0.2,0.6c-0.2,0.2-0.5,0.1-0.8,0.2s-0.4,0.4-0.6,0.6c-0.3,0.2-0.5,0.2-0.9,0.2c-0.2,0-0.8,0.2-0.6,0.5
		c0.2,0.4,0.8,0.4,1.1,0.7c0.1,0.1,0.2,0.2,0.3,0.2c0.4,0.3,0.9,0.2,1.2-0.1c0.1-0.1,0.2-0.3,0.4-0.4c0.1,0,0.2,0,0.2,0
		C317.9,283.3,318,282.8,318.5,282.6c0.1,0.1,0.1,0.1,0.2,0C318.4,282.7,318.5,282.6,318.5,282.6z"/>
	<path fill="#35CDD0" d="M334.5,270.3c0.2,0.2,0.4,0.4,0.5,0.6c0.3-0.2,0.4-0.5,0.4-0.9c0-0.5-0.1-1.2-0.4-1.5
		c-0.4-0.4-1-0.4-1.5-0.4c-0.1,0-0.2,0-0.3,0.1c0,0,0,0.1-0.1,0.1c-0.4,0.3-1.6,0.7-1.7,1.2c0,0.1,0,0.1,0,0.2
		c0,0.1,0.1,0.1,0.1,0.2c0.3,0.4,1,1.2,1.2,1.6c0.4-0.2,1.1-0.5,1.2-0.5C334.2,270.6,334.3,270.4,334.5,270.3z"/>
	<path fill="#35CDD0" d="M368.2,275.2c-2.1,1.4-3.6,3.9-3.8,6.5c0.5,0.4,1.2,0.8,1.9,0.9c0.3,0.1,0.6,0.3,0.9,0.2
		c0.2-0.1,0.9-0.9,1-1c0.5-0.8,0.8-1.8,1.1-2.8c-0.1,0.7-1.2,1.9-1.3,2.3c-0.1,0.3,0.3,0.4,0.5,0.5c0.3,0.2,1,0,1.2-0.3
		c0.2-0.3,0.3-0.4,0.4-0.7c0.4-1.4,0.8-2.9,1.9-3.9"/>
	<path fill="#35CDD0" d="M410.7,265.2c0.3-0.1,0.5-0.2,0.8-0.3c0.3-0.1,0.6-0.1,0.9,0c0.2-0.4,1.8-0.2,2.2-0.4
		c0.3-0.2,0.6-0.4,0.8-0.6c0.1-0.2,0.1-0.4,0.1-0.5c0-0.3,0-1.4-0.1-1.7c0-0.1,0-0.2-0.1-0.3c-0.1-0.2-0.4-0.1-0.5-0.2
		c-2.4-0.6-2.9,0.2-3.8,0.1c0-0.4,0.1-1-0.1-1.4c-0.2-0.4-0.6-0.8-1.1-0.7c-0.1,0-0.1,0-0.2,0.1c-0.1,0.1-0.1,0.3-0.1,0.4
		c0,0.3,0,0.6,0.1,0.9c0.1,0.2,0.1,0.3,0.2,0.4c0.1,0.4-0.3,0.7-0.4,1.1c-0.2,0.4-0.2,0.8-0.2,1.2c0,0.7,0,1.3,0.1,2
		C409.7,265.3,410.3,265.3,410.7,265.2z"/>
</g>
</svg>
