<?xml version="1.0" encoding="utf-8"?>
<!-- Generator: Adobe Illustrator 18.1.1, SVG Export Plug-In . SVG Version: 6.00 Build 0)  -->
<!DOCTYPE svg PUBLIC "-//W3C//DTD SVG 1.1//EN" "http://www.w3.org/Graphics/SVG/1.1/DTD/svg11.dtd">
<svg version="1.1" id="Layer_1" xmlns="http://www.w3.org/2000/svg" xmlns:xlink="http://www.w3.org/1999/xlink" x="0px" y="0px"
	 viewBox="0 0 636.2 333.7" enable-background="new 0 0 636.2 333.7" xml:space="preserve">
<rect x="0" y="0" fill="#FFFFFF" width="636.2" height="333.7"/>
<rect x="2.6" y="-6" fill="#231F20" width="633.5" height="278.5"/>
<polygon fill="#00CEFF" points="2.6,-6.5 1.6,269.5 127.7,282.7 635.6,282.7 635.6,-6.5 "/>
<rect x="1.2" y="-6.5" fill="#C3E9F6" width="634.9" height="278.9"/>
<ellipse fill="#FFFFFF" cx="513.8" cy="204.6" rx="24.7" ry="20.4"/>
<path opacity="0.88" fill="#0295BE" d="M1.6,284.6c38.3,26.3,88.2,30.6,133.1,19.1c9.7-2.5,19.3-5.9,29.3-6.9
	c20.3-1.9,40,6.4,59.9,10.6c26.3,5.5,54.1,3.7,79.5-5.2c11.1-3.9,21.7-9.1,33.2-11.5c34.1-7.2,68.9,11,103.6,8.2
	c11.9-1,23.4-4.4,35.1-6.7c21.5-4.3,43.7-4.9,65.5-1.9c16.4,2.3,32.5,6.6,49.1,7.3c16.5,0.6,34.2-3.1,46-14.7l0.2-10.4l-636-4.1
	L1.6,284.6z"/>
<path fill="#C3E9F6" d="M1.6,284.6c38.3,26.3,88.2,30.6,133.1,19.1c9.7-2.5,19.3-5.9,29.3-6.9c20.3-1.9,40,6.4,59.9,10.6
	c26.3,5.5,54.1,3.7,79.5-5.2c11.1-3.9,21.7-9.1,33.2-11.5c34.1-7.2,68.9,11,103.6,8.2c11.9-1,23.4-4.4,35.1-6.7
	c21.5-4.3,43.7-4.9,65.5-1.9c16.4,2.3,32.5,6.6,49.1,7.3c16.5,0.6,34.2-3.1,46-14.7l-0.8-10.4l-636-4.1L1.6,284.6z"/>
<path fill="#3A82B4" d="M520.2,265l-9.8,20.4c-0.3,0.6,0.2,1.3,0.9,1.3l47.2-0.5c0.5,0,1,0.4,0.9,1l-0.1,6c0,0.4,0.3,0.8,0.7,0.9
	l7.9,1.9c0.6,0.1,1.2-0.3,1.1-0.9l-0.2-8.9c0-0.5,0.4-1,0.9-1h47.1c0.7,0,1.2-0.8,0.8-1.4l-21.8-38.6c-0.4-0.6,0.1-1.4,0.8-1.4h5.7
	c0.7,0,1.2-0.8,0.8-1.4l-19.2-35.4c-0.3-0.6,0.1-1.4,0.8-1.4h4.6c0.7,0,1.2-0.8,0.8-1.4l-15.5-26.6c-0.4-0.6,0.1-1.4,0.8-1.4h7.6
	c0.7,0,1.1-0.7,0.8-1.4l-11.2-22.3c-0.3-0.6,0.1-1.4,0.8-1.4h4.2c0.7,0,1.1-0.7,0.8-1.3L564,119.6c-0.4-0.7-1.4-0.7-1.7,0.1
	l-12.1,30.6c-0.2,0.6,0.2,1.3,0.9,1.3h2.8c0.7,0,1.1,0.7,0.8,1.3l-10.3,22.4c-0.3,0.6,0.2,1.3,0.8,1.3h6c0.7,0,1.2,0.8,0.8,1.4
	l-17.1,29.1c-0.4,0.6,0.1,1.4,0.8,1.4h6.9c0.7,0,1.2,0.8,0.8,1.4l-19.8,34.3c-0.4,0.6,0.1,1.4,0.8,1.4h3.6c0.7,0,1.1,0.7,0.8,1.3
	L520.2,265z"/>
<polygon fill="#513023" points="518.9,265.6 518.9,289.4 523.2,289.4 523.2,263.4 "/>
<ellipse fill="#FFFFFF" cx="513.4" cy="199" rx="19.4" ry="15.6"/>
<ellipse fill="#FFFFFF" cx="545.2" cy="196.5" rx="6" ry="5.4"/>
<ellipse fill="#FFFFFF" cx="452.1" cy="248.7" rx="6" ry="5.4"/>
<ellipse fill="#FFFFFF" cx="436.8" cy="262.2" rx="9.3" ry="8.3"/>
<ellipse fill="#FFFFFF" cx="472.9" cy="268.3" rx="9.4" ry="8.4"/>
<ellipse fill="#FFFFFF" cx="438.7" cy="271.6" rx="9.4" ry="8.4"/>
<path fill="#513023" d="M433,283.4c0,0,3.4,9.7,21.9,2.8l11.1,9.1l6-1.3l-15.7-11.3l-0.1-5l-6.5,0.4l2.6,1.4l0.5,5.3
	c0,0-12.3,6.6-19.4-1.9l-0.6-1.7l-1.3,1.9L433,283.4z"/>
<ellipse fill="#FFFFFF" cx="456.9" cy="272.5" rx="9.4" ry="8.4"/>
<ellipse fill="#FFFFFF" cx="460.3" cy="275.9" rx="9.4" ry="8.4"/>
<ellipse fill="#FFFFFF" cx="456.4" cy="269.5" rx="9.4" ry="8.4"/>
<ellipse fill="#FFFFFF" cx="461.7" cy="264" rx="9.4" ry="8.4"/>
<ellipse fill="#FFFFFF" cx="453.2" cy="258.4" rx="9.4" ry="8.4"/>
<ellipse fill="#FFFFFF" cx="447.6" cy="258.8" rx="9.4" ry="8.4"/>
<ellipse fill="#FFFFFF" cx="444.8" cy="266.2" rx="9.4" ry="8.4"/>
<ellipse fill="#FFFFFF" cx="447.5" cy="275.6" rx="9.4" ry="8.4"/>
<ellipse fill="#FFFFFF" cx="431.1" cy="279.9" rx="5.2" ry="4.6"/>
<path fill="#3A82B4" d="M27.2,287.2l48.9,0.2c0.5,0,1,0.4,1,1l0,21.1c0,0.6,0.5,1,1,1l6.9-0.4c0.5,0,0.9-0.5,0.9-1l-0.2-20.9
	c0-0.5,0.4-1,1-1h47.2c0.7,0,1.2-0.7,0.9-1.4l-33.2-76.7c-0.3-0.6,0.2-1.4,0.9-1.4h5.1c0.8,0,1.2-0.8,0.8-1.5l-16-27
	c-0.4-0.6,0.1-1.5,0.8-1.5h6.6c0.7,0,1.2-0.8,0.9-1.4l-11.2-22.2c-0.3-0.6,0.1-1.4,0.9-1.4h4.1c0.7,0,1.2-0.8,0.9-1.4l-13.9-27.9
	c-0.4-0.7-1.4-0.7-1.8,0L67.1,152c-0.3,0.6,0.2,1.4,0.9,1.4h2.9c0.7,0,1.2,0.7,0.9,1.4l-10.2,21.5c-0.3,0.6,0.2,1.4,0.9,1.4h5.2
	c0.7,0,1.2,0.8,0.9,1.4l-14.8,27.6c-0.3,0.6,0.1,1.4,0.9,1.4h5.1c0.7,0,1.2,0.8,0.9,1.4l-18.6,34.8c-0.3,0.6,0.1,1.4,0.9,1.4h5.3
	c0.7,0,1.2,0.8,0.8,1.5l-22.5,38.7C26,286.4,26.4,287.2,27.2,287.2z"/>
<ellipse fill="#FFFFFF" cx="194.4" cy="275.8" rx="9.7" ry="8.6"/>
<ellipse fill="#FFFFFF" cx="205.3" cy="275.5" rx="9.7" ry="8.6"/>
<ellipse fill="#FFFFFF" cx="205.7" cy="263.2" rx="9.7" ry="8.6"/>
<ellipse fill="#FFFFFF" cx="221" cy="255" rx="9.7" ry="8.6"/>
<path fill="#513023" d="M196.2,298.3l10.6-7.3l2.9-2.1l2-2c0,0,1.1-1.8,1.1-2s-0.1-2-0.1-2l-0.4-2.3l1.2-1.3l3.1,1.2l-0.3,8.7
	l10.9,0.3l6.3-3.9l2.7,2.5l-5.8,3.3l-1.5,0.6c0,0-1.1,0.3-1.9,0.3s-3.8,0.2-4.4,0.2c-0.6,0-3.4,0-3.8,0s-2.9,0-3.7,0
	c-0.8,0-3.3,0.1-3.3,0.1l-14.5,8.9l-4.1-0.9L196.2,298.3z"/>
<ellipse fill="#FFFFFF" cx="220.7" cy="266.2" rx="9.7" ry="8.6"/>
<ellipse fill="#FFFFFF" cx="232.8" cy="264.7" rx="9.7" ry="8.6"/>
<ellipse fill="#FFFFFF" cx="222" cy="275.8" rx="9.7" ry="8.6"/>
<polygon fill="#513023" points="137.9,268 138.1,302.7 142.2,302.2 142.3,267.2 "/>
<ellipse fill="#FFFFFF" cx="238.7" cy="283.4" rx="6.7" ry="6"/>
<ellipse fill="#FFFFFF" cx="209.8" cy="245.3" rx="3.1" ry="2.8"/>
<ellipse fill="#FFFFFF" cx="162.6" cy="252.9" rx="27.5" ry="24.6"/>
<ellipse fill="#FFFFFF" cx="140.9" cy="244.6" rx="27.5" ry="24.6"/>
<ellipse fill="#FFFFFF" cx="151.8" cy="228.9" rx="30.2" ry="18.7"/>
<ellipse fill="#FFFFFF" cx="124.5" cy="255.5" rx="21.6" ry="19.6"/>
<ellipse fill="#FFFFFF" cx="115.6" cy="205.4" rx="6.1" ry="5.5"/>
<ellipse fill="#FFFFFF" cx="148.9" cy="213.8" rx="23.2" ry="20.7"/>
<ellipse fill="#FFFFFF" cx="136.3" cy="277.6" rx="5.5" ry="4.9"/>
<ellipse fill="#FFFFFF" cx="112.1" cy="233.3" rx="23.3" ry="22.6"/>
<ellipse fill="#FFFFFF" cx="503.3" cy="244.9" rx="30" ry="26.8"/>
<ellipse fill="#FFFFFF" cx="483.8" cy="221.9" rx="18.1" ry="16.2"/>
<ellipse fill="#FFFFFF" cx="548.2" cy="228.7" rx="26.8" ry="23.9"/>
<ellipse fill="#FFFFFF" cx="544.3" cy="250.5" rx="15.5" ry="13.9"/>
<ellipse fill="#FFFFFF" cx="534.5" cy="270.4" rx="7.1" ry="6.3"/>
<path fill="#C3E9F6" d="M207.6,304.3c5.4-0.9,8.1,4.2,12.4,7.6c-4.7,2.1-5.2,3.2-5.9,8.2c-0.6,3.9,1.3,8.8,5.2,9.3h415.4v-27.9v-6.9
	l-2.9-2.2c-20.3,13.6-46.6,13.2-70.7,9.5s-48.4-10.1-72.5-6.5c-16.7,2.5-32.4,9.8-49.1,11.5c-31.1,3.2-61.7-12.8-92.9-10.1
	c-19.3,1.7-37.2,10.6-56,15.1c-28.5,6.8-59.3,3.3-85.6-9.6c1,1,1.9,2,2.9,3"/>
<path fill="#A8E4F4" d="M207.9,304c5.4-0.5,8.1,2.6,12.4,4.7c-4.7,1.3-5.2,2-5.9,5.2c-0.6,2.5,1.3,5.5,5.2,5.8h415.4v-17.5v-4.3
	l-2.9-1.4c-20.3,8.5-46.6,8.3-70.7,5.9s-48.4-6.3-72.5-4.1c-16.7,1.6-32.4,6.1-49.1,7.2c-31.1,2-61.7-8-92.9-6.3
	c-19.3,1.1-37.2,6.6-56,9.4c-28.5,4.3-59.3,2.1-85.6-6c1,0.6,1.9,1.3,2.9,1.9"/>
<path fill="#FFFFFF" d="M319.1,256.2c-3.7,2.4-6.1,6.6-6.2,10.9c-0.1,3.3,1,6.5,1,9.8c0,9.5-9,19.6-3.5,27.4
	c4.7,6.6,22.2,17.2,22.9,25.3c-34.5,5.3-73.6-0.6-108.2,3.9c-3,0.4-13.5-0.2-15.3-5.5c-0.2-6,2.5-17.4,6.2-20.7
	c16.7-15.1,32.3-29.9,49.3-44.6c5-4.3,10.9-7.8,16.9-10.4c10-4.4,20.8-6.9,31.7-7.3c3.7-0.1,7.6,0,10,3.9
	C325.2,253.4,321.7,254.5,319.1,256.2z"/>
<g>
	<path fill="#3A82B4" d="M310.3,262.2c-1.6,4.4-6.5,7.6-11.8,6.6c0.2,0.3,0.3,0.6,0.4,0.9c3.3,6,6.7,12,9.9,18
		c0.4,0.7,0.8,0.9,1.5,1c4.2,0.6,8.9-2.1,10.6-5.9c0.3-0.6,0.2-1.1-0.1-1.7c-3.4-6-6.7-12.1-10.1-18.1
		C310.6,262.7,310.5,262.5,310.3,262.2z M303.5,273c3.4-0.2,5.8-1.6,7.6-4.2C310.4,271.5,306.5,273.7,303.5,273z M314.1,274.1
		c-0.6,2.6-5.2,5.2-7.3,4.2C309.9,278.1,312.2,276.7,314.1,274.1z M309.9,283.7c2.9-0.3,5.2-1.7,7.1-4.2
		C316.2,282.1,312.6,284.2,309.9,283.7z"/>
	<path fill="#3A82B4" d="M342.7,261.2c-0.4-0.9-0.8-1.7-1.3-2.6c-8.1,4.9-16.2,9.7-24.4,14.6c0.4,0.9,0.9,1.7,1.3,2.6
		C326.5,270.9,334.6,266.1,342.7,261.2z"/>
	<path fill="#3A82B4" d="M354.3,258.6c-0.5-0.9-0.9-1.7-1.4-2.6c-3.2,1.6-6.4,3.1-10.2,2.8c0.8,2.2,0.9,2.2,3,2.3
		C348.8,261.1,351.6,260.1,354.3,258.6z"/>
	<path fill="#3A82B4" d="M342.2,258.3c1.2,0.3,2.1,0.3,3-0.5c1.3-1.1,2.8-2,4.2-2.9c0.3-0.2,0.5-0.4,0.9-0.6
		c-0.5-0.9-0.9-1.6-1.4-2.6C346.1,253.4,343.5,255.1,342.2,258.3z"/>
	<path fill="#3A82B4" d="M351.6,256.2c0.4-0.2,0.7-0.3,1.1-0.5c-0.9-1.6-1.7-3.1-2.6-4.6c-0.4,0.2-0.6,0.3-1.1,0.5
		C349.9,253.1,350.8,254.6,351.6,256.2z"/>
	<path fill="#FFFFFF" d="M303.5,273c3,0.7,6.8-1.5,7.6-4.2C309.3,271.4,306.9,272.8,303.5,273z"/>
	<path fill="#FFFFFF" d="M314.1,274.1c-1.9,2.6-4.2,4-7.3,4.2C308.9,279.3,313.5,276.7,314.1,274.1z"/>
	<path fill="#FFFFFF" d="M309.9,283.7c2.7,0.5,6.3-1.6,7.1-4.2C315.2,282,312.8,283.3,309.9,283.7z"/>
</g>
<g>
	<path fill="#3A82B4" d="M391.3,283.1c2.1,3.6,1.5,8.9-2.3,12c0.3,0.1,0.6,0.2,0.8,0.2c6,1.2,12.1,2.3,18.1,3.5
		c0.7,0.1,1.1,0,1.6-0.4c2.8-2.5,3.7-7.4,2-10.7c-0.3-0.5-0.6-0.8-1.2-0.9c-6.1-1.1-12.2-2.3-18.3-3.5
		C391.9,283.2,391.7,283.2,391.3,283.1z M394.9,294c1.8-2.4,2.2-4.9,1.5-7.7C397.8,288.4,397.1,292.3,394.9,294z M401.7,287.3
		c1.5,1.9,0.6,6.6-1.3,7.5C402.1,292.5,402.4,290.1,401.7,287.3z M405.9,295.7c1.5-2.2,1.9-4.6,1.2-7.3
		C408.5,290.4,407.9,294.1,405.9,295.7z"/>
	<path fill="#3A82B4" d="M409.3,260.1c-0.9-0.2-1.7-0.4-2.6-0.6c-1.3,8.4-2.6,16.8-3.9,25.3c0.9,0.2,1.7,0.4,2.6,0.6
		C406.7,276.9,408,268.6,409.3,260.1z"/>
	<path fill="#3A82B4" d="M414.2,250.6c-0.9-0.2-1.7-0.3-2.6-0.5c-0.8,3.1-1.6,6.2-3.9,8.7c2,0.7,2.1,0.7,3.3-0.8
		C412.8,255.9,413.6,253.4,414.2,250.6z"/>
	<path fill="#3A82B4" d="M407,258.8c0.9-0.7,1.4-1.3,1.3-2.4c0-1.5,0.2-3,0.4-4.6c0-0.3,0.1-0.6,0.1-0.9c-0.9-0.2-1.6-0.3-2.6-0.5
		C405.9,253.3,405.6,256.1,407,258.8z"/>
	<path fill="#3A82B4" d="M411,251.1c0.1-0.4,0.2-0.7,0.2-1.1c-1.6-0.3-3.1-0.6-4.7-0.9c-0.1,0.3-0.2,0.6-0.3,1
		C407.9,250.5,409.4,250.8,411,251.1z"/>
	<path fill="#FFFFFF" d="M394.9,294c2.2-1.7,2.9-5.6,1.5-7.7C397.1,289.1,396.7,291.5,394.9,294z"/>
	<path fill="#FFFFFF" d="M401.7,287.3c0.7,2.8,0.3,5.2-1.3,7.5C402.3,293.9,403.2,289.2,401.7,287.3z"/>
	<path fill="#FFFFFF" d="M405.9,295.7c1.9-1.6,2.6-5.3,1.2-7.3C407.8,291.1,407.4,293.5,405.9,295.7z"/>
</g>
<path fill="#FFFFFF" d="M309.7,300.6c2.6,0.3,4.4,2.5,6.3,4.3c1.9,1.7,4,3.1,5.9,4.8c1.9,1.6,3.8,3.6,4.6,5.9c0.2,0.5,0.3,1,0.6,1.4
	c0.7,0.9,1.9,1.1,3,1.4c0.3,0.1,0.5,0.1,0.7,0.3c0.3,0.3,0.3,0.7,0.2,1.1c-0.2,1.5-1.1,3.1-0.2,4.3c0.2,0.3,0.5,0.5,0.6,0.8
	c0.2,0.3,0.2,0.7,0.2,1c0,0.6,0.1,1.3,0.1,1.9c0,0.2,0,0.4-0.1,0.5c-0.1,0.1-0.2,0.2-0.4,0.3c-1.2,0.6-2.5,1-3.9,1.2
	c-0.6,0.1-1.2,0.1-1.7-0.1c-0.6-0.2-1-0.6-1.4-1c-3.1-2.7-6.2-5.5-9.3-8.2c-0.7-0.6-1.5-1.3-2.4-1.7c-0.7-0.3-1.4-0.5-2.1-0.7
	c-3-0.8-6-1.6-8.7-3.2c-2.7-1.7-4.8-4.2-7.3-6.2c1.6-0.7,2.2-2.6,3.2-4c1.1-1.3,2.7-2.1,4.3-2.6s3.4-0.5,5-0.7c0.5,0,1-0.1,1.4-0.4
	c0.2-0.1,0.3-0.3,0.5-0.4C309.3,300.6,309.5,300.6,309.7,300.6z"/>
<path fill="#FFFFFF" d="M315.4,300.3c0.3,1.8,0.6,4-0.2,4.9c-0.4,0.4-0.9,0.3-1.4,0.4c-2,0.2-3.3,3.5-3.7,7
	c-0.3,3.6,0.2,7.5,0.7,11.2c-1.9-2.8-3.8-5.7-5.1-9.4c-1.3-3.7-2-7.9-2.7-12c-1.7-8.9-4-17.6-6.9-25.8c-1.2-3.5-2.6-7.8-1.7-11
	c0.2-0.8,0.6-1.5,0.7-2.5c0.1-0.9-0.2-2.3-0.8-2.4c2.8-0.7,5.6-1.3,8.5-2c0.8-0.2,1.7-0.4,2.5,0.3c1.1,0.9,1.8,3.2,2.4,5.2
	c1.2,4.4,2.4,8.8,3.4,13.4c0.6,2.8,1.1,5.6,1.6,8.4C313.6,290.7,314.5,295.5,315.4,300.3z"/>
<path fill="#FFFFFF" d="M411.9,297.4c0.2,1.3-0.3,2.8-1.4,3.6c-1.4,1.1-3.2,1.1-5,1c-7.6-0.4-15-2-22.4-3.8c-1-0.3-2.2-0.6-2.6-1.6
	c-0.3-0.8,0.1-1.8,0.8-2.4c0.7-0.6,1.6-0.8,2.5-1c3.1-0.5,6.3-0.1,9.5,0.4c2.1,0.3,4.2,0.6,6.3,0.9c1.4,0.2,2.8,0.4,4.2,0.9
	C406.4,296.2,409.1,298.1,411.9,297.4z"/>
<path fill="#FFFFFF" d="M440.5,300.9c-2.2,0.5-3.6,2.8-5.7,3.6c-1,0.4-2.2,0.4-3.2,0.4c-5.2,0-10.4,0-15.6,0c0.3-1.6,0.8-3.2,2-4.2
	c1.6-1.4,3.9-1.5,6.1-1.5c3.9,0,7.8,0,11.7,0C437.4,299.2,439.5,299.4,440.5,300.9z"/>
<ellipse fill="#FFFFFF" cx="449.4" cy="251.8" rx="6.3" ry="6.8"/>
<path fill="#22BACD" d="M440,279.3l2.9-6.3l2.8-10c0.3-1.1,0.7-2.2-0.4-2.5l0,0c-1.1-0.3-3.2,0.3-3.5,1.4l-2,9.2l-2.7,8.9
	c-0.3,1.1,0.3,0.5,1.3,0.8l0,0C439.5,281.1,439.6,280.4,440,279.3z"/>
<path fill="#22BACD" d="M462,257.7l-8.4,3c-1.2,0.4-1.8,1.8-1.4,3l0,0.1c0.4,1.2,1.8,1.8,3,1.4l8.4-3c1.2-0.4,1.8-1.8,1.4-3l0-0.1
	C464.5,257.9,463.2,257.2,462,257.7z"/>
<path fill="#00A9DB" d="M454.4,281.3h-9.5c-1.4,0-2.5-1.2-2.5-2.6v-14.8c0-1.1,0.4-2.3,1.2-3c0.4-0.3,0.8-0.6,1.3-0.5
	c0.7,0,1.3,0.6,2,0.8c0.8,0.2,1.5,0.2,2.3,0.3c0.9,0,1.7,0,2.6-0.2c0.8-0.2,1.5-0.7,2.3-0.9c1.7-0.3,2.8,2.1,2.8,3.5v14.8
	C456.8,280.1,455.7,281.3,454.4,281.3z"/>
<path fill="#3A82B4" d="M449.3,261.5c-3.1,0-4.7-1.2-4.8-1.2l0.8-2.9c0.2,0.1,2.8,3.3,7.5,0.3l1,2.6
	C452,261.5,450.8,261.5,449.3,261.5z"/>
<polygon fill="#3A82B4" stroke="#3A82B4" stroke-width="1.1232" stroke-linecap="round" stroke-linejoin="round" stroke-miterlimit="10" points="
	445.4,260.2 443.6,266 446.4,266.7 447.9,260.8 "/>
<polygon fill="#3A82B4" stroke="#3A82B4" stroke-width="1.1232" stroke-linecap="round" stroke-linejoin="round" stroke-miterlimit="10" points="
	447.5,260.3 448.2,264.8 450.4,264.4 449.4,259.8 "/>
<path fill="#22BACD" d="M460.6,259l-2.9,5.9c-0.7,1-1.4,2.4-0.4,3.1l0.2,0.1c1,0.7,0.4,1.4,1.1,0.4l5.9-6.9c0.7-1,0.4-2.4-0.6-3.1
	l-0.2-0.1C462.7,257.7,461.3,258,460.6,259z"/>
<path fill="#3A82B4" d="M428.9,275.5c-0.9,3.1-4.1,5.7-7.8,5.4c0.1,0.2,0.2,0.4,0.3,0.6c2.5,3.9,5,7.7,7.5,11.6
	c0.3,0.4,0.6,0.6,1.1,0.6c2.9,0.1,6-2.1,7-4.8c0.1-0.4,0.1-0.7-0.1-1.1c-2.5-3.9-5.1-7.8-7.6-11.7
	C429.2,275.9,429.1,275.7,428.9,275.5z M424.7,283.4c2.3-0.4,3.9-1.5,5-3.5C429.3,281.9,426.8,283.7,424.7,283.4z M432,283.4
	c-0.3,1.8-3.4,3.9-4.8,3.4C429.3,286.5,430.8,285.3,432,283.4z M429.5,290.3c2-0.4,3.5-1.5,4.7-3.4
	C433.8,288.7,431.4,290.4,429.5,290.3z"/>
<path fill="#3A82B4" d="M451.1,272.5c-0.3-0.6-0.6-1.1-1-1.7c-5.4,3.9-10.7,7.8-16.1,11.8c0.3,0.6,0.7,1.1,1,1.7
	C440.4,280.3,445.7,276.4,451.1,272.5z"/>
<path fill="#3A82B4" d="M458.9,269.8c-0.4-0.6-0.7-1.1-1.1-1.7c-2.1,1.3-4.3,2.6-6.8,2.7c0.6,1.4,0.7,1.5,2.1,1.3
	C455.2,272,457,271.1,458.9,269.8z"/>
<path fill="#3A82B4" d="M450.6,270.5c0.9,0.1,1.4,0,2-0.6c0.8-0.9,1.8-1.6,2.7-2.3c0.2-0.1,0.4-0.3,0.6-0.4
	c-0.3-0.5-0.7-1.1-1.1-1.7C453,266.9,451.3,268.3,450.6,270.5z"/>
<path fill="#3A82B4" d="M456.9,268.4c0.3-0.2,0.5-0.3,0.7-0.5c-0.7-1-1.3-2-1.9-3c-0.2,0.1-0.4,0.3-0.7,0.4
	C455.7,266.4,456.3,267.4,456.9,268.4z"/>
<path fill="#FFFFFF" d="M424.7,283.4c2.1,0.3,4.6-1.5,5-3.5C428.6,281.9,427,283.1,424.7,283.4z"/>
<path fill="#FFFFFF" d="M432,283.4c-1.2,1.9-2.7,3.1-4.8,3.4C428.6,287.3,431.7,285.2,432,283.4z"/>
<path fill="#FFFFFF" d="M429.5,290.3c1.9,0.2,4.3-1.5,4.7-3.4C433,288.7,431.5,289.8,429.5,290.3z"/>
<circle fill="#FFFFFF" cx="448.6" cy="266.9" r="1.1"/>
<circle fill="#FFFFFF" cx="449.4" cy="277.5" r="1.1"/>
<path fill="#00A9DB" d="M457.1,295.6l0,0.6l-6.6,1.3l-0.1-1.7l-0.8-11.6c0-0.9-1.6-4.1,2.3-4.2h3.9c0.7,0,1.3,0.8,1.3,1.9V295.6z"/>
<path fill="#00A9DB" d="M442.6,295.5c0,1-0.4,3.2,0.3,3.2l5.8-0.8c0.8,0,0.6-1.2,0.6-2.1l0.8-11.6c0-0.9,1.6-4.1-2.3-4.2h-3.9
	c-0.7,0-1.3,0.8-1.3,1.9V295.5z"/>
<path fill="#3A82B4" d="M442.7,248.5c0,0,1.4-14.2,14-4.8c0,0,0.6,2.1-0.3,2.2c-0.5,0.1-2.2-1.3-0.6,0.1c0.8,0.7,0.6,1.8,0.2,2.3
	l-7-2.4L442.7,248.5z"/>
<path fill="#22BACD" d="M446.7,250.8L446.7,250.8c-0.3,0-0.5-0.2-0.5-0.5V250c0-0.3,0.2-0.5,0.5-0.5l0,0c0.3,0,0.5,0.2,0.5,0.5v0.3
	C447.2,250.6,447,250.8,446.7,250.8z"/>
<circle fill="#22BACD" cx="443.9" cy="246.9" r="1.5"/>
<circle fill="#22BACD" cx="445.7" cy="245.9" r="1.5"/>
<circle fill="#22BACD" cx="447.2" cy="245.9" r="1.5"/>
<circle fill="#22BACD" cx="448.1" cy="244.8" r="1.5"/>
<circle fill="#22BACD" cx="449.8" cy="245.4" r="1.5"/>
<circle fill="#22BACD" cx="449.5" cy="245.9" r="1.5"/>
<circle fill="#22BACD" cx="451.3" cy="246.4" r="1.5"/>
<circle fill="#22BACD" cx="452" cy="245.5" r="1.5"/>
<circle fill="#22BACD" cx="453.3" cy="247.1" r="1.5"/>
<circle fill="#22BACD" cx="454.4" cy="247.2" r="1.5"/>
<circle fill="#22BACD" cx="454.7" cy="248.8" r="1.5"/>
<circle fill="#22BACD" cx="455.6" cy="248.5" r="1.5"/>
<circle fill="#22BACD" cx="443.5" cy="248.3" r="1.5"/>
<g>
	<circle fill="#22BACD" cx="456.8" cy="243.2" r="0.8"/>
	<circle fill="#22BACD" cx="456.6" cy="244.4" r="0.9"/>
	<circle fill="#22BACD" cx="457.3" cy="243.7" r="0.5"/>
	<circle fill="#22BACD" cx="456.1" cy="244.1" r="0.8"/>
	<circle fill="#22BACD" cx="456.1" cy="243.1" r="0.7"/>
	<circle fill="#22BACD" cx="457.8" cy="244.2" r="0.5"/>
	<circle fill="#22BACD" cx="457.5" cy="243.3" r="0.6"/>
	<circle fill="#22BACD" cx="457.4" cy="242.5" r="0.8"/>
</g>
<path fill="none" stroke="#3A82B4" stroke-width="3.358" stroke-miterlimit="10" d="M400.9,251.3c0,0,3.1-13.2-12.2-14.1
	c0,0-7.7-0.6-9.6,8.3"/>
<ellipse fill="#FFFFFF" cx="390" cy="252.6" rx="11" ry="11.9"/>
<path fill="#22BACD" d="M397.8,254.9c0,4.1-3.3,7.5-7.5,7.5s-7.5-3.3-7.5-7.5H397.8z"/>
<path fill="#22BACD" d="M375.4,294.5l7.7-23.6c0.7-2.2-0.2-4.5-2.1-5.1l0,0c-1.9-0.6-4,0.7-4.7,2.9l-7.8,23.2
	c-0.7,2.2,0.3,4.9,2.1,5.6h0C372.6,298.1,374.7,296.8,375.4,294.5z"/>
<path fill="#22BACD" d="M414.4,272.8l-13.8-6.5c-1.7-0.7-3.6,0.2-4.3,1.9l-0.6,1.5c-0.7,1.7,0.2,3.6,1.9,4.3l13.8,6.5
	c1.7,0.7,3.6-0.2,4.3-1.9l0.6-1.5C416.9,275.4,416.1,273.4,414.4,272.8z"/>
<path fill="none" stroke="#35CDD0" stroke-width="0.5597" stroke-linecap="round" stroke-linejoin="round" stroke-miterlimit="10" d="
	M388.8,249.7c-0.3,0.9-1.8,1.6-1.7,2.6c0.1,1.3,2,0.9,2.8,0.9"/>
<path fill="none" stroke="#35CDD0" stroke-width="0.5597" stroke-linecap="round" stroke-linejoin="round" stroke-miterlimit="10" d="
	M384.2,248c0,0,1.1-1.4,2.8,0"/>
<path fill="#00A9DB" d="M401.2,301.5L401.2,301.5c0.9-0.9,1.5-2.1,1.5-3.6l1-26c0-2.6-3-7.7-5.8-7.2c-1.4,0.2-2.6-0.8-3.9-0.5
	c-1.4,0.3-2.9,0.4-4.4,0.3c-1.3,0-3.7-0.1-5-0.5c-1.1-0.3-2.2,0.7-3.3,0.6c-0.8,0-2.6,1.3-3.2,1.9c-1.3,1.3-2,3.4-2,5.3l1,27
	c0,1.4,0.6,2.6,1.4,3.5c-0.9,0.4-1.6,1.6-1.6,3v20.9c0,1.7,0.9,3.1,2.1,3.1h7c1.4,0,2.6-1.1,2.6-2.5l1-12.8l1,13
	c0,1.4,1.2,2.5,2.6,2.5h7c1.2,0,2.1-1.4,2.1-3.1l1-21.9C403.3,302.9,402.4,301.5,401.2,301.5z"/>
<path fill="none" stroke="#35CDD0" stroke-width="0.5597" stroke-linecap="round" stroke-linejoin="round" stroke-miterlimit="10" d="
	M391.1,248c0,0,1.1-1.4,2.8,0"/>
<path fill="#22BACD" d="M379.7,242.8c0.7-2,1.7-3.9,3.3-5.2c1.6-1.3,3.8-2,5.8-1.4c1.7,0.5,3.1,1.8,4.8,2.4c1.2,0.4,2.4,0.4,3.6,0.9
	c1.9,0.8,3.1,2.7,3.6,4.7c0.5,2,0.4,4.1,0.2,6.1c-1.7-3.5-6.4-4-9.1-6.8c-0.5-0.5-1-1.1-1.7-1.2c-1.1-0.1-1.7,1.1-2.6,1.7
	c-1.6,1.1-4,0-5.6,1.1c-2,1.4-2.2,3.2-2.9,6C378.3,248.5,378.8,245.5,379.7,242.8z"/>
<path fill="#3A82B4" d="M400.7,254.7c0.7,0.1,1.4,0.1,2-0.3c0.6-0.3,1.1-0.9,1.1-1.6c0.1-0.7-0.3-1.4-1-1.6c0.4-0.5,0.5-1.1,0.4-1.7
	c-0.1-0.6-0.5-1.1-1-1.5c0-0.4-0.3-0.8-0.7-1c-0.4-0.1-0.9,0-1.1,0.3c0,0,0.7,3.1,0,6.1L400.7,254.7z"/>
<path fill="#3A82B4" d="M379.2,252.6c-0.7,0.1-1.5,0.1-2.2-0.3c-0.7-0.4-1.2-1-1.2-1.8c-0.1-0.7,0.4-1.5,1.1-1.8
	c-0.4-0.5-0.6-1.2-0.5-1.9s0.6-1.3,1.1-1.6c0-0.5,0.3-0.9,0.7-1.1c0.4-0.2,1,0,1.2,0.4c0,0-0.8,3.4,0,6.7L379.2,252.6z"/>
<path fill="#3A82B4" d="M389.8,269.2c-1.4,0-2.8-0.1-3.8-0.3c-3.3-0.8-4.8-1.8-4.9-1.9l0.3-1.6l1.9-2.8c0.3,0.2,5.1,4.8,13.4-0.5
	l1.1,5.4C394.3,269.7,392.4,269.2,389.8,269.2z"/>
<polygon fill="#3A82B4" stroke="#3A82B4" stroke-width="1.1232" stroke-linecap="round" stroke-linejoin="round" stroke-miterlimit="10" points="
	382.3,266 379.2,276.1 384.2,277.4 386.8,266.9 "/>
<polygon fill="#3A82B4" stroke="#3A82B4" stroke-width="1.1232" stroke-linecap="round" stroke-linejoin="round" stroke-miterlimit="10" points="
	386.6,267.6 387.9,275.5 391.8,274.7 390,266.7 "/>
<path fill="#FFFFFF" d="M383.4,255.4H397l-0.2,1.7l-13.1,0C383.7,257,383.6,255.1,383.4,255.4z"/>
<path fill="#3A82B4" d="M347.4,271c-4.1,3.2-10.6,3.2-15-1c0,0.4-0.1,0.7-0.1,1.1c-0.5,7.6-1,15.1-1.5,22.7
	c-0.1,0.8,0.2,1.4,0.8,1.9c3.5,3.1,9.6,3.4,13.4,0.8c0.6-0.4,0.9-0.8,0.9-1.6c0.5-7.6,1-15.3,1.5-22.9
	C347.4,271.7,347.4,271.5,347.4,271z M334.6,277.1c3.3,1.9,6.3,1.9,9.7,0.6C341.9,279.8,337,279.5,334.6,277.1z M343.8,284.4
	c-2.1,2.1-8,1.7-9.3-0.5C337.5,285.6,340.5,285.7,343.8,284.4z M334.2,290.8c2.9,1.4,5.9,1.6,9.1,0.3
	C341,293.1,336.4,292.9,334.2,290.8z"/>
<path fill="#3A82B4" d="M390.6,294.1c0.1-1.1,0.1-2.1,0.2-3.2c-4-0.4-7.9-1-11.2-3.5c-0.5,2.5-0.5,2.6,1.5,3.9
	C384,293.1,387.2,293.8,390.6,294.1z"/>
<path fill="#3A82B4" d="M379.5,286.5c1,1,1.8,1.5,3.1,1.3c1.9-0.3,3.8-0.2,5.6-0.3c0.4,0,0.7,0,1.1,0c0.1-1.1,0.2-2.1,0.2-3.2
	C386,284.3,382.6,284.4,379.5,286.5z"/>
<path fill="#3A82B4" d="M389.5,290.3c0.5,0.1,0.9,0.1,1.3,0.1c0.1-2,0.3-3.9,0.4-5.9c-0.4-0.1-0.8-0.1-1.3-0.2
	C389.8,286.3,389.7,288.3,389.5,290.3z"/>
<path fill="#FFFFFF" d="M334.6,277.1c2.4,2.5,7.2,2.7,9.7,0.6C341,279,337.9,278.9,334.6,277.1z"/>
<path fill="#FFFFFF" d="M343.8,284.4c-3.3,1.3-6.3,1.2-9.3-0.5C335.9,286.1,341.7,286.5,343.8,284.4z"/>
<path fill="#FFFFFF" d="M334.2,290.8c2.2,2.1,6.8,2.3,9.1,0.3C340.1,292.4,337.1,292.3,334.2,290.8z"/>
<circle fill="#FFFFFF" cx="388.5" cy="279.2" r="2"/>
<path fill="#22BACD" d="M408.9,273.9l-16.4,9.9c-1.6,1.6-2.7,3.2-1.2,4.8l0,0c1.6,1.6,3.2,0.7,4.8-0.8l18.4-7.9
	c1.6-1.6,1.7-4.2,0.2-5.8l0,0C413.2,272.4,410.6,272.3,408.9,273.9z"/>
<circle fill="#FFFFFF" cx="389.9" cy="297.7" r="2"/>
<ellipse fill="#FFFFFF" cx="522.6" cy="260.8" rx="7.2" ry="9"/>
<path fill="#22BACD" d="M517.5,273.2l-0.5-1c-0.5-1-1.8-1.4-2.8-0.8l-7.5,4.1l-9-1.4c-1-0.4-2.2-0.9-2.5,0.2l-0.3,0.8
	c-0.4,1,0.1,1.2,1.2,1.5l10.4,3.9c0.2,0.1,0.3,0.1,0.5,0.1c0.5,0.1,1,0.1,1.4-0.2l8.3-4.5C517.6,275.4,518,274.2,517.5,273.2z"/>
<path fill="none" stroke="#35CDD0" stroke-width="0.4231" stroke-miterlimit="10" d="M522.3,257.8c0,2.2-1.6,2-1.4,3.3
	c0.1,0.7,1.7,0.7,2.3,0.3"/>
<path fill="#3A82B4" d="M522.3,272.8c-4.1,0-6.9-1.4-6.9-1.4l2.4-4.5c0.2,0.2,4.1,4.2,8.9,0l1.8,4.1
	C526.1,272.5,524.4,272.8,522.3,272.8z"/>
<path fill="#22BACD" d="M545,261.1l-2.1,0.3c-2,1.5-3.1,3.9-3.9,5.3l-1.4,3.9l-9.7,1.1c-1.5,0.5-2.3,2.2-1.8,3.7l0.1,0.4
	c0.5,1.5,2.2,2.3,3.7,1.8l9.6-3.4c0.5-0.2,0.9-0.5,1.2-0.9c0.4-0.3,0.7-0.6,0.9-1l1.9-4.7C544.3,266.1,546.4,261.8,545,261.1z"/>
<path fill="#3A82B4" d="M485.3,308.1c2.4,2.9,2.6,7.7-0.1,11c0.3,0,0.5,0.1,0.8,0.1c5.3,0.2,10.6,0.3,15.9,0.5
	c0.6,0,0.9-0.2,1.3-0.6c2-2.7,2-7.1,0-9.9c-0.3-0.4-0.6-0.6-1.1-0.6c-5.4-0.2-10.7-0.3-16.1-0.5
	C485.7,308.1,485.6,308.1,485.3,308.1z M490,317.3c1.2-2.4,1.1-4.7,0-7.1C491.6,311.9,491.6,315.5,490,317.3z M494.8,310.4
	c1.6,1.5,1.5,5.8,0,6.8C495.8,315,495.8,312.8,494.8,310.4z M499.6,317.3c0.9-2.2,0.9-4.3-0.1-6.7C501,312.2,501,315.6,499.6,317.3z
	"/>
<path fill="#3A82B4" d="M497,285.1c-0.8-0.1-1.5-0.1-2.3-0.2c0.2,7.7,0.4,15.3,0.6,23.1c0.8,0.1,1.5,0.1,2.3,0.2
	C497.4,300.4,497.2,292.8,497,285.1z"/>
<path fill="#3A82B4" d="M499.7,275.9c-0.8,0-1.5-0.1-2.3-0.1c-0.2,2.9-0.4,5.8-2,8.3c1.8,0.3,1.9,0.3,2.7-1.2
	C499.3,280.8,499.6,278.5,499.7,275.9z"/>
<path fill="#00A9DB" d="M531.5,297.7c0.5-0.6,0.7-1.4,0.7-2.2l-3-5.7l1-7.2l1-6.8c0-2-1.5-5.1-3.6-4.7c-1,0.2-1.9,0.9-2.9,1.2
	c-1.1,0.3-2.2,0.3-3.3,0.3c-1,0-2-0.1-3-0.3c-0.8-0.2-1.6-1-2.5-1c-0.6,0-1.2,0.3-1.7,0.7c-1,1-1.5,2.5-1.5,4l1,8l1,5.7l-3,6
	c0,0.9,0.3,1.7,0.8,2.3c-0.5,0.4-0.9,1.2-0.9,2.1l2,17.9c0,1.3,0.8,2.4,1.7,2.4h4.2c1.1,0,2-0.9,2-2.1l0.7-10.8l0.7,10.9
	c0,1.2,0.9,2.1,2,2.1h4.2c0.9,0,1.7-1.1,1.7-2.4l2-17.9C532.8,298.9,532.2,298,531.5,297.7z"/>
<path fill="#3A82B4" d="M494.8,284.3c0.7-0.7,1-1.3,0.8-2.3c-0.3-1.3-0.3-2.7-0.4-4.1c0-0.3,0-0.5-0.1-0.8c-0.8,0-1.5-0.1-2.3-0.1
	C493,279.5,493.2,282,494.8,284.3z"/>
<path fill="#3A82B4" d="M497,276.8c0-0.3,0-0.6,0-1c-1.4,0-2.7-0.1-4.1-0.1c0,0.3,0,0.6-0.1,0.9C494.3,276.7,495.6,276.8,497,276.8z
	"/>
<path fill="#FFFFFF" d="M490,317.3c1.6-1.8,1.6-5.4,0-7.1C491.1,312.6,491.1,314.9,490,317.3z"/>
<path fill="#FFFFFF" d="M494.8,310.4c1,2.4,1.1,4.6,0,6.8C496.3,316.2,496.3,311.9,494.8,310.4z"/>
<path fill="#22BACD" d="M515,262c-0.3-1.2-0.3-2.5-0.3-3.8c-0.1,0-0.1,0-0.2,0c-0.2,2.5-1.9,4.3-2.1,6.8c-0.1,1.5,0.2,3,0.8,4.3
	c0.4,0.9,1,1.8,1.4,2.7c0.7,1.6,1,3.4,0.9,5.1c0.4-0.9,0.8-1.8,1.2-2.6c0.3-0.8,0.7-1.5,0.8-2.4c0.3-1.5-0.2-3.6,0.4-5
	c-1-0.8-1.8-1.9-2.4-3.1C515.2,263,515.3,263,515,262z"/>
<path fill="#22BACD" d="M529.1,261.2c0.3-1.2,0-3,0-4.3c0.1,0,0.1,0,0.2,0c0.2,2.5,2.7,5,2.9,7.5c0.1,1.5-0.2,3-0.8,4.3
	c-0.4,0.9-1,1.8-1.4,2.7c-0.7,1.6-1,3.4-0.9,5.1c-0.4-0.9-0.8-1.8-1.2-2.6c-0.3-0.8-0.7-1.5-0.8-2.4c-0.3-1.5,0.2-3.2-0.4-4.6
	c1-0.8,1.2-2,1.9-3.2C529.1,262.8,528.9,262.3,529.1,261.2z"/>
<path fill="#FFFFFF" d="M499.6,317.3c1.4-1.7,1.4-5.1-0.1-6.7C500.5,312.9,500.5,315.1,499.6,317.3z"/>
<path fill="#3A82B4" d="M532,256.4c-0.5,1-1.5,2.1-1.8,3.1c0,0-2.4-5.1-7.7-5.3c-5.5-0.2-8,5.1-8,5.1c-0.5-1.2-0.8-2.5-0.8-3.9
	c0-5.2,4.1-9.3,9.2-9.3C527.9,246,533.3,253.5,532,256.4z"/>
<circle fill="#22BACD" cx="523.4" cy="245.3" r="1.5"/>
<circle fill="#22BACD" cx="524.2" cy="244.6" r="0.8"/>
<circle fill="#22BACD" cx="522.4" cy="244" r="0.6"/>
<circle fill="#22BACD" cx="522.7" cy="246" r="0.7"/>
<circle fill="#22BACD" cx="524.8" cy="246" r="0.6"/>
<circle fill="#22BACD" cx="522.2" cy="245.2" r="0.8"/>
<circle fill="#22BACD" cx="523.5" cy="244.1" r="0.8"/>
<circle fill="#22BACD" cx="523.6" cy="246.2" r="0.8"/>
<circle fill="#22BACD" cx="524.3" cy="245.3" r="0.8"/>
<circle fill="#22BACD" cx="524.3" cy="244.3" r="0.8"/>
<ellipse fill="#22BACD" cx="519.2" cy="257.6" rx="0.6" ry="0.8"/>
<ellipse fill="#22BACD" cx="525.5" cy="257.6" rx="0.6" ry="0.8"/>
<path fill="none" stroke="#35CDD0" stroke-width="0.3919" stroke-linecap="round" stroke-linejoin="round" stroke-miterlimit="10" d="
	M448.9,250c-0.2,0.6-1.3,2.1-1.2,2.8c0.1,0.9,1.4,0.6,2,0.6"/>
<circle fill="#FFFFFF" cx="521.9" cy="286.9" r="1.5"/>
<path fill="none" stroke="#35CDD0" stroke-width="0.432" stroke-linecap="round" stroke-linejoin="round" stroke-miterlimit="10" d="
	M520.3,264.7c0,0,4.2,0.8,5.8-1.5"/>
<path fill="none" stroke="#35CDD0" stroke-width="0.432" stroke-linecap="round" stroke-linejoin="round" stroke-miterlimit="10" d="
	M525.4,262.4c0,0-0.1,0.5,1.4,0.7"/>
<path fill="none" stroke="#00A9DB" stroke-width="0.5616" stroke-linecap="round" stroke-linejoin="round" stroke-miterlimit="10" d="
	M515.3,253.8c0,0-0.1,1.5,0.3,2.1"/>
<path fill="none" stroke="#00A9DB" stroke-width="0.5616" stroke-linecap="round" stroke-linejoin="round" stroke-miterlimit="10" d="
	M517.4,252.2c0,0-0.1,1.6,0.3,2"/>
<path fill="none" stroke="#00A9DB" stroke-width="0.5616" stroke-linecap="round" stroke-linejoin="round" stroke-miterlimit="10" d="
	M519.7,251.4c0,0-0.2,1.1,0.2,1.9"/>
<path fill="none" stroke="#00A9DB" stroke-width="0.5616" stroke-linecap="round" stroke-linejoin="round" stroke-miterlimit="10" d="
	M522.3,251.1c-0.1,0.9,0,2,0,2"/>
<path fill="none" stroke="#00A9DB" stroke-width="0.5616" stroke-linecap="round" stroke-linejoin="round" stroke-miterlimit="10" d="
	M525.4,251.7c0,0-0.5,1-0.5,2"/>
<path fill="none" stroke="#00A9DB" stroke-width="0.5616" stroke-linecap="round" stroke-linejoin="round" stroke-miterlimit="10" d="
	M527.7,252.9c0,0-0.8,1-0.8,1.8"/>
<path fill="none" stroke="#00A9DB" stroke-width="0.5616" stroke-linecap="round" stroke-linejoin="round" stroke-miterlimit="10" d="
	M530,254.8c0,0-1.2,1-1.2,1.5"/>
<path fill="#22BACD" d="M451.1,250.8L451.1,250.8c-0.3,0-0.5-0.2-0.5-0.5V250c0-0.3,0.2-0.5,0.5-0.5l0,0c0.3,0,0.5,0.2,0.5,0.5v0.3
	C451.7,250.6,451.4,250.8,451.1,250.8z"/>
<path fill="#22BACD" d="M452.1,254.5c0,1.4-1.1,2.5-2.5,2.5s-2.5-1.1-2.5-2.5H452.1z"/>
<path fill="#FFFFFF" d="M447.5,254.8h4.5l-0.1,0.6l-4.4,0C447.5,255.4,447.5,254.8,447.5,254.8z"/>
<circle fill="#FFFFFF" cx="522" cy="278.3" r="1.5"/>
<circle fill="#FFFFFF" cx="522.4" cy="293.9" r="1.5"/>
<polygon fill="#3A82B4" stroke="#3A82B4" stroke-width="0.5616" stroke-linecap="round" stroke-linejoin="round" stroke-miterlimit="10" points="
	519.9,271.2 520.9,277.2 523.8,276.5 522.4,270.5 "/>
<polygon fill="#3A82B4" stroke="#3A82B4" stroke-width="1.1232" stroke-linecap="round" stroke-linejoin="round" stroke-miterlimit="10" points="
	517.5,270.9 515.1,278.6 519,279.5 520.9,271.7 "/>
<path fill="#22BACD" d="M372.6,291.9l-11.2-4c-1.4,0-2.5-0.6-2.4,1.1v-1c0,1.7-2,1.9,1.5,4.1l11.2,8c1.4,0,3.5-3.4,3.4-5.1l0,0
	C375,293.3,373.9,291.9,372.6,291.9z"/>
<path fill="#3A82B4" d="M378.3,289.5c0.1-1.1,0.2-2.1,0.3-3.2c-10.5-0.3-20.9-0.7-31.5-1c-0.1,1.1-0.2,2.1-0.3,3.2
	C357.3,288.9,367.7,289.2,378.3,289.5z"/>
<path fill="#22BACD" d="M360.8,285.2c0,0-0.1-0.1-0.1-0.1c-0.2-0.1-0.3-0.3-0.6-0.3c-0.5-0.1-0.9,0.2-1.4,0.3
	c-0.5,0-1.1-0.1-1.6-0.3c-0.2-0.1-0.4-0.2-0.7-0.2c-0.2,0-0.3,0.1-0.5,0.2c-0.7,0.3-1.5-0.3-2,0.3c-0.2,0.2-0.2,0.6,0,0.8
	c0.5,0.8,0.9,1.6,1.4,2.4c0.3,0.4,0.5,0.9,0.9,1.3c0.7,0.7,1.6,1,2.5,1.1c0.9,0.1,1.9-0.1,2.8-0.4c0.4-0.1,0.8-0.3,1.1-0.6
	c0.2-0.3,0.3-0.6,0.4-1C363.4,287,362.1,286.1,360.8,285.2z"/>
<path fill="#22BACD" d="M390.8,290.8c0,0.6,0,1.1,0.1,1.7c0.7,0,1.3-0.5,1.8-1.1c0.7-0.9,1.4-2.1,1.2-3.2c-0.2-1.1-1.1-2-1.9-2.8
	c-0.2-0.1-0.3-0.3-0.6-0.3c-0.1,0-0.2,0.1-0.3,0.1c-1.1-0.1-3.8-0.9-4.5-0.2c-0.1,0.1-0.2,0.2-0.2,0.3c-0.1,0.1-0.1,0.3-0.1,0.4
	c0,0.9,0,3.5,0,4.4c1,0.2,2.5,0.5,2.7,0.6C389.6,291,390.2,290.8,390.8,290.8z"/>
<path fill="#22BACD" d="M439.7,282.1c0.1-0.5,0.1-1,0.2-1.5c-0.3,0-0.3-0.4-0.4-0.6c-0.2-0.3-0.7-0.3-0.9,0
	c-0.1,0.2-0.1,0.5-0.2,0.7c-0.2,0.2-0.6,0.1-0.9,0.2c-0.3,0.1-0.5,0.5-0.7,0.7c-0.3,0.2-0.6,0.2-1,0.2c-0.2,0-0.9,0.2-0.7,0.6
	c0.2,0.4,0.9,0.5,1.2,0.8c0.1,0.1,0.2,0.2,0.3,0.2c0.4,0.3,1,0.2,1.4-0.1c0.1-0.1,0.2-0.3,0.4-0.4c0.1,0,0.2,0,0.2,0
	c0.4,0,0.6-0.6,1.1-0.7c0.1,0,0.1,0,0.2-0.1C439.7,282.2,439.7,282.1,439.7,282.1z"/>
<path fill="#22BACD" d="M457.7,268.3c0.2,0.2,0.4,0.5,0.6,0.7c0.3-0.2,0.4-0.6,0.4-1c0-0.6-0.1-1.3-0.5-1.7
	c-0.4-0.4-1.1-0.5-1.7-0.5c-0.1,0-0.2,0-0.3,0.1c0,0,0,0.1-0.1,0.1c-0.5,0.3-1.8,0.8-1.9,1.4c0,0.1,0,0.1,0,0.2
	c0,0.1,0.1,0.1,0.1,0.2c0.3,0.4,1.1,1.4,1.4,1.8c0.5-0.2,1.2-0.6,1.3-0.6C457.3,268.7,457.5,268.4,457.7,268.3z"/>
<path fill="#22BACD" d="M495.6,273.8c-2.4,1.6-4,4.4-4.3,7.3c0.6,0.5,1.3,0.9,2.1,1c0.3,0.1,0.7,0.3,1,0.2c0.2-0.1,1-1,1.1-1.1
	c0.6-0.9,0.9-2,1.2-3.1c-0.1,0.8-1.4,2.1-1.5,2.6c-0.1,0.3,0.3,0.4,0.6,0.6c0.3,0.2,1.1,0,1.3-0.3s0.3-0.5,0.4-0.8
	c0.4-1.6,0.9-3.3,2.1-4.4"/>
<path fill="#22BACD" d="M543.3,262.6c0.3-0.1,0.6-0.2,0.9-0.3s0.7-0.1,1,0c0.2-0.5,2-0.2,2.5-0.5c0.3-0.2,0.7-0.4,0.9-0.7
	c0.1-0.2,0.1-0.4,0.1-0.6c0-0.3,0-1.6-0.1-1.9c0-0.1,0-0.2-0.1-0.3c-0.1-0.2-0.4-0.1-0.6-0.2c-2.7-0.7-3.3,0.2-4.3,0.1
	c0-0.5,0.1-1.1-0.1-1.6c-0.2-0.5-0.7-0.9-1.2-0.8c-0.1,0-0.1,0-0.2,0.1c-0.1,0.1-0.1,0.3-0.1,0.4c0,0.3,0,0.7,0.1,1
	c0.1,0.2,0.1,0.3,0.2,0.5c0.1,0.4-0.3,0.8-0.4,1.2c-0.2,0.4-0.2,0.9-0.2,1.3c0,0.8,0,1.5,0.1,2.3
	C542.2,262.7,542.8,262.7,543.3,262.6z"/>
</svg>
