<?xml version="1.0" encoding="utf-8"?>
<!-- Generator: Adobe Illustrator 18.1.1, SVG Export Plug-In . SVG Version: 6.00 Build 0)  -->
<!DOCTYPE svg PUBLIC "-//W3C//DTD SVG 1.1//EN" "http://www.w3.org/Graphics/SVG/1.1/DTD/svg11.dtd">
<svg version="1.1" id="Layer_1" xmlns="http://www.w3.org/2000/svg" xmlns:xlink="http://www.w3.org/1999/xlink" x="0px" y="0px"
	 viewBox="230.9 0 204 296.5" enable-background="new 230.9 0 204 296.5" xml:space="preserve">
<g id="Layer_1_1_">
	<g>
		<g enable-background="new    ">
			<path fill="#13628E" d="M377,108.8c-4.5-6.2-7-22.8-7.4-29c-7-1.8-17.3-3.3-26.5-3.3c-17.3,0-29.8,9.5-29.8,25.3
				c0,16.2,5.5,24.8,31,32l32.7,9.5c29.8,8.8,57.9,26.1,57.9,72.1c0,51.8-42.7,81.1-94.3,81.1c-27.3,0-62.6-7-84.4-21.6
				c-1.2-15.4,3.7-41.5,9.9-54.6H301c3.3,6.6,6.2,19.1,7,30.6c9.5,4.1,21.6,5.5,30.6,5.5c21,0,38.6-10.3,38.6-31.4
				c0-11.5-1.6-23.2-24.4-30.2l-38-11.1c-32-9.2-57.9-29.8-57.9-73.7c0-45.2,36.4-73.7,86.9-73.7c24.8,0,53.4,6.2,77.8,17.7
				c1.2,15.4-3.7,41.5-9.9,54.6H377V108.8z"/>
		</g>
		<path fill="#FFFFFF" stroke="#13628E" stroke-miterlimit="10" d="M401.4,34.6c-5.5-16.4-16.2-20.1-24-22.8
			c-3.7-1.4-6.8-2.3-8.4-4.5c-3.7-4.7-11.5-6.8-23.8-6.8c-14,0-33.7,3.3-40.5,8.2c-5.3,3.7-18.7,5.5-25.9,5.7
			c-34.9,0-45.8,35.5-46.6,54c-0.2,1.8-4.9,43.5,10.5,66.6c4.1,6.2,8.4,9.4,12.9,9.4c11.7,0,15.4-19.1,16.4-27.5v-0.4l-1.2-22.6
			c8.2-9.7,27.5-31.2,37.8-35.5c3.7-1.6,7.6-2.1,12.7-2.1c5.7,0,11.7,1,18.1,1.9c5.3,0.8,10.7,1.6,16.4,1.9
			c20.1,1.4,43.1-18.7,44-19.5l2.7-2.3L401.4,34.6z"/>
	</g>
</g>
<g id="Layer_2">
</g>
</svg>
