<?xml version="1.0" encoding="utf-8"?>
<!-- Generator: Adobe Illustrator 18.1.1, SVG Export Plug-In . SVG Version: 6.00 Build 0)  -->
<!DOCTYPE svg PUBLIC "-//W3C//DTD SVG 1.1//EN" "http://www.w3.org/Graphics/SVG/1.1/DTD/svg11.dtd">
<svg version="1.1" id="Layer_1" xmlns="http://www.w3.org/2000/svg" xmlns:xlink="http://www.w3.org/1999/xlink" x="0px" y="0px"
	 viewBox="0 0 648.1 792" enable-background="new 0 0 648.1 792" xml:space="preserve">
<path fill="#010101" stroke="#010101" stroke-width="48.972" stroke-miterlimit="10" d="M603,395.7c0,153.9-123.4,278.7-275.7,278.7
	S51.6,549.6,51.6,395.7S175.1,117,327.3,117S603,241.8,603,395.7z"/>
<path fill="#FFFFFF" d="M408.5,373.8c-0.2,0.1-0.4,0.2-0.6,0.3c-1.1,0.9-2.2,1.8-3.2,2.7c-20.8,17.1-44.7,25.9-71.4,25.9
	c-27.2,0-51.5-9.1-72.5-26.7c-1.6-1.3-2.8-2.7-5.3-1.2c-13.9,8-26.6,17.4-37.8,28.9c-24.6,25.3-40.5,55.4-47.2,90.3
	c-2.2,11.3-3,22.9-4.5,34.8h333.1C500.4,470.8,467.7,404.5,408.5,373.8"/>
<path fill="#FFFFFF" d="M331.4,381.9c52.3,0.7,93.7-40.7,94.1-93.3c0.4-50-41-92.3-90-93.2c-52.8-1-94.7,42.1-94.6,93.4
	C241,337.7,279.3,381.1,331.4,381.9 M287.9,281.8c11.3-0.1,22.5,0,33.7,0h4.3c0-12.6,0-24.7,0-36.7c0-8.2,3.1-12.5,9-12.6
	c6.1-0.1,9.2,4.3,9.2,12.8c0,10.6,0,21.4,0,32v4.5c9.5,0,18.7,0,27.8,0c3.5,0,7-0.1,10.4,0c6.5,0.1,10.6,3.7,10.6,9.3
	c-0.1,5.5-4.2,9.1-10.8,9.1c-11.5,0.1-23,0-34.6,0h-3.4v38.4c0,3.7-0.8,7-3.9,9.2c-4.8,3.5-11.8,1.3-13.5-4.5
	c-0.6-2-0.7-4.2-0.7-6.2c-0.1-12.2-0.1-24.4-0.1-37c-9.2,0-18.1,0-26.9,0c-3.7,0-7.5,0.1-11.3,0c-6.5-0.1-10.6-3.7-10.6-9.3
	C277.1,285.4,281.2,281.8,287.9,281.8"/>
</svg>
