<?xml version="1.0" encoding="utf-8"?>
<!-- Generator: Adobe Illustrator 18.1.1, SVG Export Plug-In . SVG Version: 6.00 Build 0)  -->
<!DOCTYPE svg PUBLIC "-//W3C//DTD SVG 1.1//EN" "http://www.w3.org/Graphics/SVG/1.1/DTD/svg11.dtd">
<svg version="1.1" id="Layer_1" xmlns="http://www.w3.org/2000/svg" xmlns:xlink="http://www.w3.org/1999/xlink" x="0px" y="0px"
	 viewBox="0 0 562.5 562.5" enable-background="new 0 0 562.5 562.5" xml:space="preserve">
<g>
	<path fill="#00A9DB" d="M485.1,288.4c-3.4,4.4-6.3,9.3-10.1,13.2c-32.9,33.3-66,66.5-99.1,99.7c-7.6,7.7-18.4,7.8-25.4,0.5
		c-6-6.4-6.4-16-0.9-22.8c1-1.2,2.2-2.4,3.3-3.5c29.1-29.2,58.1-58.5,87.2-87.7c1-1,2.2-1.9,4.9-4.1c-2.1-1.2-3.8-1.8-4.9-2.9
		c-29.5-29.6-58.9-59.2-88.4-88.8c-7.1-7.2-8.1-16.4-2.6-23.6c6.4-8.5,18.4-9.3,26.1-1.6c15.5,15.4,30.9,31,46.3,46.5
		c17.9,18,35.9,35.9,53.6,54.1c3.7,3.8,6.6,8.6,9.8,12.9C485.1,283,485.1,285.7,485.1,288.4z"/>
	<path fill="#00A9DB" d="M72.4,280.4c3.3-4.3,6.1-9.1,9.8-12.9c33-33.4,66.2-66.7,99.4-100.1c7.4-7.4,17.8-7.8,24.8-1
		c6.4,6.2,7.1,16.1,1.6,23.1c-1.1,1.4-2.3,2.6-3.6,3.8c-29.1,29.2-58.1,58.5-87.2,87.7c-1,1-2,2.1-3.5,3.7
		c5.4,5.3,10.8,10.3,16,15.5c25.5,25.6,51,51.2,76.4,76.9c9.7,9.8,6.2,25.3-6.5,29.2c-6.4,2-12.3,0.6-17.1-4.1
		c-35.1-35.2-70.1-70.4-105.1-105.8c-2.2-2.2-3.4-5.3-5-8C72.4,285.7,72.4,283,72.4,280.4z"/>
	<path fill="#00A9DB" d="M339.9,174.2c-0.4,1.3-0.9,4-1.8,6.5c-28.1,73.5-56.2,147-84.4,220.5c-3.8,10-13.4,14.6-22.6,11
		c-9-3.5-13.3-13.3-9.6-23c28.3-74,56.5-148.1,84.9-222.1c3.3-8.5,11.3-13.1,19.4-11.5C334,157.3,340,164.6,339.9,174.2z"/>
</g>
<circle fill="none" stroke="#00A9DB" stroke-width="28.848" stroke-miterlimit="10" cx="281.3" cy="281.3" r="266.8"/>
</svg>
