<?xml version="1.0" encoding="utf-8"?>
<!-- Generator: Adobe Illustrator 18.1.1, SVG Export Plug-In . SVG Version: 6.00 Build 0)  -->
<!DOCTYPE svg PUBLIC "-//W3C//DTD SVG 1.1//EN" "http://www.w3.org/Graphics/SVG/1.1/DTD/svg11.dtd">
<svg version="1.1" id="Layer_1" xmlns="http://www.w3.org/2000/svg" xmlns:xlink="http://www.w3.org/1999/xlink" x="0px" y="0px"
	 viewBox="0 0 612 792" enable-background="new 0 0 612 792" xml:space="preserve">
<path fill="none" stroke="#000000" stroke-width="48.6603" stroke-miterlimit="10" d="M582.4,393.6C582.4,545.7,459.1,669,307,669
	C154.8,669,31.5,545.6,31.5,393.6c0-152.1,123.3-275.4,275.5-275.4C459.1,118.1,582.4,241.4,582.4,393.6z"/>
<path d="M100.7,305.4c14,4.8,26.6,8.8,38.9,13.5c17.6,6.7,33.1,3.6,49.2-5.9c17.3-10.2,35.6-18.6,54.1-26.4
	c13-5.5,26.7-2.8,39.4,2.8c3.7,1.6,6.8,4.6,11.5,7.8c-17,10-32.2,19-47.4,28c-10.1,6-18.7,13.3-23.3,24.5
	c-6.5,15.9-3.5,33.6,9.2,45.2c12.2,11.1,26.3,16.5,42.8,9.1c14.2-6.4,28.5-12.5,42.6-18.8c15.3-6.9,25.9-5.2,37.6,6.5
	c24.7,24.5,49.3,49.1,74,73.7c8.6,8.6,9.3,20,1.8,27.7c-6.9,7.1-18.6,6.5-27.1-1.5c-7.5-7.2-14.7-14.6-22.2-21.7c-2-2-4.7-3.2-7-4.7
	c-0.7,0.7-1.5,1.5-2.2,2.2c2.9,3.9,5.7,8,8.9,11.6c5.4,5.9,11.3,11.5,16.8,17.4c8.4,9.1,8.7,20.3,1,27.7c-7.3,6.9-18.6,6.2-27.1-2.1
	c-8.3-8-16.1-16.5-24.3-24.5c-2.5-2.4-5.6-4.3-8.4-6.4c-0.7,0.6-1.3,1.2-2,1.7c1.7,2.6,3.2,5.5,5.3,7.8c6.9,7.7,14.2,15.1,21.1,22.9
	c7.3,8.3,7.2,18.5,0.1,25.5c-7,6.9-17.4,6.5-25.4-1.2c-8.7-8.4-17.1-17.1-25.8-25.5c-2.2-2.1-5.2-3.5-7.8-5.3c-0.7,0.7-1.3,1.3-2,2
	c1.7,2.6,2.9,5.6,5,7.9c5.6,6.2,11.8,11.9,17.4,18c7.3,7.8,8.3,15.5,3.5,23.6c-4.5,7.6-11.5,9.2-19.4,7.4c-8.5-1.9-17-11.6-17-19.5
	c0-18.5-8-31.8-24.5-40.3c-3-1.5-5.8-4.8-7.2-8c-4.3-9.5-10.5-16.9-20-21.7c-3-1.5-5.1-4.9-7.7-7.5c-6.4-6.7-12.7-13.6-19-20.3
	c-2.4-2.6-6.2-4.5-7.6-7.5c-7.8-16.2-20.7-24.6-38.2-24.9c-17.1-0.3-31.5,6.1-40.9,21.2c-2.9,4.7-4.7,10.7-12.1,7.2
	c-6.5-3.2-15.5-2.4-15.2-14.7c0.9-41.4,0.3-82.9,0.3-124.4C100.2,312.6,100.5,309.8,100.7,305.4"/>
<path d="M518.2,320.2v125.6c-17.4,2-34.8,5-52.4,5.6c-5.6,0.2-12.5-4.4-17.1-8.8c-27.5-26.2-54.5-52.9-81.5-79.5
	c-13.5-13.2-22.3-15.1-39.5-6.5c-17.2,8.6-34.1,17.8-51.2,26.7c-13.2,6.9-26.8,5-33.5-4.7c-8.8-12.5-5.1-28.4,8.7-36.1
	c32.1-17.9,64.3-35.7,96.5-53.5c18.7-10.3,26.4-9.7,43,3.9c12.5,10.2,25,20.3,36.9,31.1c9.7,8.8,20,11.1,32.6,8
	c17.3-4.3,34.8-7.8,52.2-11.6C514.4,320.3,515.8,320.4,518.2,320.2"/>
<path d="M223.1,552.8c-9.4-1.3-19.1-0.4-26.1-4.3c-9.4-5.3-4.2-15.9-2.7-23c-9-2-18-1.9-24.6-5.8c-9.1-5.4-4-15.4-2.4-24.5
	c-3.1,0.1-5.3,0-7.3,0.4c-15.7,2.9-24.8-5.4-22.8-20.9c2.1-16.5,17.4-29.4,32.9-27.7c10.9,1.2,18.1,8.6,18.1,19.3
	c0,6,1.3,8.8,8.1,8.9c11.4,0.3,18.5,7.9,18.7,19.3c0.1,6,1.8,8.8,8.3,9.2c13.6,0.9,19.2,7.2,19.2,21.3c0,5.8,1.4,8.6,7.7,8.2
	c9.9-0.6,16.7,4.4,19.9,13.3c3.3,9.3,1.7,18.5-5.5,25.6s-16,11-26.4,10.8c-14.1-0.4-20.8-9.5-17-23.2
	C221.8,557,222.6,554.4,223.1,552.8"/>
</svg>
