<?xml version="1.0" encoding="utf-8"?>
<!-- Generator: Adobe Illustrator 18.1.1, SVG Export Plug-In . SVG Version: 6.00 Build 0)  -->
<!DOCTYPE svg PUBLIC "-//W3C//DTD SVG 1.1//EN" "http://www.w3.org/Graphics/SVG/1.1/DTD/svg11.dtd">
<svg version="1.1" id="Layer_1" xmlns="http://www.w3.org/2000/svg" xmlns:xlink="http://www.w3.org/1999/xlink" x="0px" y="0px"
	 viewBox="0 0 612 792" enable-background="new 0 0 612 792" xml:space="preserve">
<path d="M520.1,366.6c-6.4-44.7-24.8-83.5-55-116.6c-28.8-31.5-63.8-52.9-105-63.3c-12.5-3.1-25.5-4.2-38.2-6.3
	c-1.5-0.2-3-0.6-4.5-0.9h-22c-6.8,0.9-13.6,1.7-20.4,2.6c-52,7.8-95.4,31.8-130.4,71.4c-27.8,31.5-45.5,68.4-51.5,110.2
	c-10.1,69.9,8.4,131.6,55.9,183.6c32,35,71.7,57.1,118.2,65.3c67.1,11.8,127.4-4.5,179.4-48.9c38.8-33.1,62.5-75.5,72-125.9
	c1.5-8,2-16,3-24.1c0.2-1.8,0.6-3.6,0.9-5.4v-20.5C521.8,380.6,521.1,373.6,520.1,366.6 M301.7,233.8
	c83.5-2.2,125.6,28.4,141.7,80.2c-101.3,0-168-8.5-269.3-8.5C190.2,253.2,226,235.8,301.7,233.8 M144.4,397.2
	c7.4,0.9,14.8,1.2,22,2.7c37.8,7.9,65.2,30.5,85.6,62.7c16.2,25.6,24.7,53.9,26.9,84.2c0.3,3.9,0.6,7.8,0.8,12.2
	C199.9,546.1,142.7,473.7,144.4,397.2 M303.4,420.4c-18.5,0-33.5-15.2-33.5-33.9s15-33.9,33.5-33.9c18.5,0,33.5,15.2,33.5,33.9
	C337,405.2,322,420.4,303.4,420.4 M333.3,558.9c0.3-5.6,0.4-11.1,1-16.5c3.2-30.7,12.5-59.4,29.9-84.9c18.5-27,42.4-46.9,74.3-55.6
	c9.5-2.6,19.5-3.5,29.7-5.3C470.9,472.3,413,546.6,333.3,558.9"/>
<path fill="none" stroke="#000000" stroke-width="49.2667" stroke-miterlimit="10" d="M582.3,396c0,155.5-123.7,281.6-276.3,281.6
	S29.7,551.5,29.7,396S153.4,114.4,306,114.4C458.6,114.4,582.3,240.5,582.3,396z"/>
</svg>
