<?xml version="1.0" encoding="utf-8"?>
<!-- Generator: Adobe Illustrator 18.1.1, SVG Export Plug-In . SVG Version: 6.00 Build 0)  -->
<!DOCTYPE svg PUBLIC "-//W3C//DTD SVG 1.1//EN" "http://www.w3.org/Graphics/SVG/1.1/DTD/svg11.dtd">
<svg version="1.1" id="Layer_1" xmlns="http://www.w3.org/2000/svg" xmlns:xlink="http://www.w3.org/1999/xlink" x="0px" y="0px"
	 viewBox="0 0 564.1 564.1" enable-background="new 0 0 564.1 564.1" xml:space="preserve">
<path fill="#00A9DB" stroke="#FFFFFF" stroke-miterlimit="10" d="M447.2,220.6c-0.9-1.1-1.9-2.2-2.8-3.2c-2.1-2.3-4.9-3.8-7.8-4.5
	c-7.9-1.7-13.8-5.3-16.6-13.6c-3.1-9-10.4-22.5-16.7-29.7c-11.7-13.4-25.6-24.5-41.4-33.1c-12.7-6.9-26-12.1-40.4-13.7
	c-5.2-0.6-10.4-0.6-16.4,1c1.6,0.7,2.3,1,3,1.2c13.7,5.5,26.2,13,37.3,22.9c10.4,9.3,13.1,21,9.6,34.2c-2.8,10.6-7.5,20.5-14.5,28.8
	c-7.9,9.4-16.7,18-25.4,26.7c-6.2,6.2-17.6,15.9-26.6,23.8c-2.7,1.6-7.6,6.7-8.7,7.6c-18,15.1-35.7,29.9-53.4,44.7
	c-29.3,24.6-58.7,49.2-88,73.8c-12.4,10.4-13,30-0.2,39.9c4.2,3.2,9.2,4.9,15.3,3c4.2-1.3,8.5-4,11.7-7.1
	c10.8-10.4,21.2-21.3,31.6-32.1c32.9-34.1,65.8-68.2,98.7-102.3c1.3-1.3,6.9-7,8-8.3c10.8-10.2,25.2-23.6,34-31.3
	c10.3-9,21.2-17.4,32-26c4.4-3.6,9.7-4.5,15-3.1c4.5,1.2,9,2.9,13.2,5c5.8,2.9,9.3,7.7,9.4,14.6c0,1.6,0.2,3.7,1.2,4.8
	c2.1,2.3,4.2,4.5,6.5,6.7c3.3,3.3,8.6,3.3,12.1,0.2l19.9-18.5C450,229.5,450.3,224.2,447.2,220.6z"/>
<circle fill="none" stroke="#00A9DB" stroke-width="28.9274" stroke-miterlimit="10" cx="282" cy="282" r="267.6"/>
</svg>
