<?xml version="1.0" encoding="utf-8"?>
<!-- Generator: Adobe Illustrator 18.1.1, SVG Export Plug-In . SVG Version: 6.00 Build 0)  -->
<!DOCTYPE svg PUBLIC "-//W3C//DTD SVG 1.1//EN" "http://www.w3.org/Graphics/SVG/1.1/DTD/svg11.dtd">
<svg version="1.1" id="Layer_1" xmlns="http://www.w3.org/2000/svg" xmlns:xlink="http://www.w3.org/1999/xlink" x="0px" y="0px"
	 viewBox="0 0 643.2 792" enable-background="new 0 0 643.2 792" xml:space="preserve">
<path fill="#010101" stroke="#010101" stroke-width="49.7387" stroke-miterlimit="10" d="M604.5,396.3
	c0,155.5-126.1,281.5-281.5,281.5c-155.5,0-281.5-126-281.5-281.5S167.6,114.7,323,114.7C478.5,114.7,604.5,240.8,604.5,396.3z"/>
<path fill="#FFFFFF" d="M412.3,303.7c13.7,13.8,27.1,27.1,40.1,40.2c2.5,2.5,2.5,6.5,0,9.1c-60.6,60.6-121.7,121.8-182.6,182.7
	c-2.5,2.5-6.5,2.5-9.1,0l-58.9-58.9c-2.5-2.5-2.5-6.5,0-9.1c60.6-60.6,121.7-121.8,182.9-183.1c2.6-2.6,6.8-2.5,9.2,0.2l0.1,0.1"/>
<path fill="#FFFFFF" d="M413.1,268.9c-2.9-2.9-2.9-7.5-0.2-10.5c4.5-4.8,9.2-9.9,14.3-14.4c10.5-9.3,25.7-8.4,35.6,1.5
	c10.7,10.6,21.4,21.3,32,32c9.9,10,10.7,25.5,1.3,35.9c-4.5,5-9.4,9.5-14.1,14.1c-3,2.8-7.6,2.8-10.5-0.1
	C452.2,308,432.6,288.5,413.1,268.9"/>
<path fill="#FFFFFF" d="M181,498.8l57.9,58c2.1,2.1,0.9,5.6-2,6c-22.4,3.4-45,6.9-68.2,10.3c-2.3,0.4-4.4-1.7-4-4
	c3.5-23,6.9-45.7,10.3-68.3C175.4,497.9,179,496.7,181,498.8"/>
</svg>
