<?xml version="1.0" encoding="utf-8"?>
<!-- Generator: Adobe Illustrator 18.1.1, SVG Export Plug-In . SVG Version: 6.00 Build 0)  -->
<!DOCTYPE svg PUBLIC "-//W3C//DTD SVG 1.1//EN" "http://www.w3.org/Graphics/SVG/1.1/DTD/svg11.dtd">
<svg version="1.1" id="Layer_1" xmlns="http://www.w3.org/2000/svg" xmlns:xlink="http://www.w3.org/1999/xlink" x="0px" y="0px"
	 viewBox="0 0 648.1 792" enable-background="new 0 0 648.1 792" xml:space="preserve">
<path fill="#FFFFFF" d="M302.1,426.6c-4.8,4-9.2,7.7-14.1,11.8c1.8,3.1,3.4,5.6,5.4,9c-6.2,5.8-12.2,11.6-18.4,17.2
	c-28.9,26.4-57.8,52.8-86.7,79.1c-8.4,7.6-17.3,6.7-25.9-2.7c-8.2-9-8.6-17.7-0.5-25.2c33.1-30.4,66.3-60.6,99.6-90.9
	c1.8-1.7,4-3.1,6.3-4.7c2.9,2.1,5.4,4,8.3,6.3c4.5-3.9,8.9-7.6,13.9-12c-23.9-27.5-33.5-59.3-28.3-94.7
	c4.5-30.7,20.1-55.6,44.8-74.5c48-36.7,118.1-31.5,160.2,11.8c40.3,41.5,43.6,106.5,8,151.4C438.4,454.6,364.2,473.5,302.1,426.6
	 M453.7,337.3c-0.1-40.4-32.6-71.9-74.2-71.8c-40.8,0.1-73,31.8-73,71.9c0,40.1,33,72.3,74.1,72.2
	C420.9,409.4,453.8,377,453.7,337.3"/>
<path fill="#010101" stroke="#010101" stroke-width="49.2667" stroke-miterlimit="10" d="M603.7,396.4
	C603.7,551.9,480,678,327.4,678S51.1,551.9,51.1,396.4s123.7-281.6,276.3-281.6C480,114.8,603.7,240.9,603.7,396.4z"/>
<path fill="#FFFFFF" d="M541.4,367c-6.4-44.7-24.8-83.5-55-116.6c-28.8-31.5-63.8-52.9-105-63.3c-12.5-3.1-41.2-6.9-42.7-7.2h-22
	c-6.8,0.9-13.6,1.7-20.4,2.6c-52,7.8-95.4,31.8-130.4,71.4c-27.8,31.5-45.5,68.4-51.5,110.2c-10.1,69.9,8.4,131.6,55.9,183.6
	c32,35,71.7,57.1,118.2,65.3c67.1,11.8,127.4-4.5,179.4-48.9c38.8-33.1,62.5-75.5,72-125.9c1.5-8,2-16,3-24.1
	c0.2-1.8,0.6-3.6,0.9-5.4v-20.5C543.2,381,542.4,374,541.4,367 M323.1,234.2c83.5-2.2,125.6,28.4,141.7,80.2
	c-101.3,0-168-8.5-269.3-8.5C211.5,253.6,247.4,236.2,323.1,234.2 M165.8,397.6c7.4,0.9,14.8,1.2,22,2.7
	c37.8,7.9,65.2,30.5,85.6,62.7c16.2,25.6,24.7,53.9,26.9,84.2c0.3,3.9,0.6,7.8,0.8,12.2C221.3,546.5,164,474.1,165.8,397.6
	 M324.8,420.8c-18.5,0-33.5-15.2-33.5-33.9s15-33.9,33.5-33.9c18.5,0,33.5,15.2,33.5,33.9S343.4,420.8,324.8,420.8 M354.7,559.3
	c0.3-5.6,0.4-11.1,1-16.5c3.2-30.7,12.5-59.4,29.9-84.9c18.5-27,42.4-46.9,74.3-55.6c9.5-2.6,19.5-3.5,29.7-5.3
	C492.3,472.7,434.4,547,354.7,559.3"/>
</svg>
