<?xml version="1.0" encoding="utf-8"?>
<!-- Generator: Adobe Illustrator 18.1.1, SVG Export Plug-In . SVG Version: 6.00 Build 0)  -->
<!DOCTYPE svg PUBLIC "-//W3C//DTD SVG 1.1//EN" "http://www.w3.org/Graphics/SVG/1.1/DTD/svg11.dtd">
<svg version="1.1" id="Layer_1" xmlns="http://www.w3.org/2000/svg" xmlns:xlink="http://www.w3.org/1999/xlink" x="0px" y="0px"
	 viewBox="0 0 560.1 560.1" enable-background="new 0 0 560.1 560.1" xml:space="preserve">
<path fill="#00A9DB" d="M354,269.9c-0.2,0.1-0.4,0.2-0.6,0.3c-1.1,0.9-2.1,1.8-3.2,2.6c-20.4,16.6-43.8,25.1-70,25.1
	c-26.7,0-50.4-8.8-71-25.9c-1.5-1.3-2.7-2.6-5.2-1.2c-13.6,7.7-26,16.9-37,28c-24.1,24.5-39.7,53.7-46.3,87.5
	c-2.2,11-2.9,22.3-4.4,33.7c109.6,0,217.9,0,326.2,0C444,363.9,412,299.7,354,269.9z"/>
<path fill="#00A9DB" d="M278.5,277.7c51.3,0.7,91.8-39.4,92.1-90.4c0.3-48.4-40.2-89.4-88.1-90.3c-51.8-1-92.7,40.8-92.7,90.5
	C189.9,234.9,227.5,277,278.5,277.7z M235.9,180.7c11-0.1,22,0,33,0c1.2,0,2.4,0,4.2,0c0-12.2,0-23.9,0-35.6c0-8,3-12.1,8.8-12.2
	c5.9-0.1,9,4.2,9,12.4c0,10.3,0,20.7,0,31c0,1.3,0,2.7,0,4.4c9.3,0,18.3,0,27.2,0c3.4,0,6.8-0.1,10.2,0c6.4,0.1,10.5,3.6,10.4,9
	c-0.1,5.3-4.1,8.8-10.6,8.8c-11.3,0.1-22.6,0-33.9,0c-0.9,0-1.9,0-3.4,0l0,37.2c0,3.5-0.8,6.7-3.9,8.9c-4.8,3.4-11.6,1.3-13.3-4.3
	c-0.6-1.9-0.7-4-0.7-6c-0.1-11.8,0-23.6,0-35.8c-9.1,0-17.7,0-26.4,0c-3.7,0-7.3,0.1-11,0c-6.4-0.1-10.5-3.6-10.4-9
	C225.3,184.2,229.4,180.7,235.9,180.7z"/>
<circle fill="none" stroke="#00A9DB" stroke-width="28.7213" stroke-miterlimit="10" cx="280" cy="280" r="265.7"/>
</svg>
