<?xml version="1.0" encoding="iso-8859-1"?>
<!-- Generator: Adobe Illustrator 18.1.1, SVG Export Plug-In . SVG Version: 6.00 Build 0)  -->
<!DOCTYPE svg PUBLIC "-//W3C//DTD SVG 1.1//EN" "http://www.w3.org/Graphics/SVG/1.1/DTD/svg11.dtd">
<svg version="1.1" id="Layer_1" xmlns="http://www.w3.org/2000/svg" xmlns:xlink="http://www.w3.org/1999/xlink" x="0px" y="0px"
	 viewBox="0 0 612 792" style="enable-background:new 0 0 612 792;" xml:space="preserve">
<path style="fill:#010101;stroke:#010101;stroke-width:48.6603;stroke-miterlimit:10;" d="M581.431,395.552
	c0,152.143-123.318,275.4-275.4,275.4c-152.143,0-275.461-123.318-275.461-275.4c0-152.143,123.318-275.4,275.461-275.4
	C458.113,120.091,581.431,243.409,581.431,395.552z"/>
<path style="fill:#FFFFFF;" d="M99.787,307.424c13.954,4.835,26.561,8.813,38.862,13.525c17.564,6.732,33.109,3.611,49.205-5.936
	c17.258-10.159,35.618-18.605,54.101-26.377c13.036-5.508,26.683-2.754,39.413,2.815c3.733,1.591,6.793,4.59,11.506,7.834
	c-16.952,9.976-32.191,18.972-47.43,28.03c-10.098,5.998-18.727,13.28-23.317,24.541c-6.548,15.851-3.55,33.599,9.241,45.227
	c12.179,11.077,26.255,16.463,42.779,9.058c14.198-6.365,28.458-12.485,42.595-18.85c15.3-6.916,25.888-5.202,37.638,6.548
	c24.664,24.541,49.327,49.144,73.991,73.746c8.629,8.629,9.302,19.951,1.775,27.662c-6.916,7.099-18.605,6.548-27.112-1.53
	c-7.466-7.16-14.688-14.627-22.154-21.726c-2.02-1.958-4.651-3.182-7.038-4.712c-0.734,0.734-1.469,1.469-2.203,2.203
	c2.938,3.917,5.692,8.017,8.935,11.628c5.386,5.936,11.322,11.506,16.769,17.381c8.384,9.058,8.69,20.318,1.04,27.724
	c-7.283,6.916-18.605,6.242-27.112-2.081c-8.262-8.017-16.096-16.463-24.296-24.48c-2.509-2.448-5.569-4.284-8.384-6.365
	c-0.673,0.551-1.285,1.163-1.958,1.714c1.714,2.632,3.182,5.508,5.263,7.834c6.916,7.711,14.198,15.116,21.053,22.889
	c7.344,8.323,7.16,18.544,0.061,25.52c-7.038,6.854-17.381,6.548-25.398-1.163c-8.69-8.384-17.075-17.136-25.765-25.52
	c-2.203-2.142-5.202-3.55-7.834-5.324c-0.673,0.673-1.285,1.285-1.958,1.958c1.652,2.632,2.938,5.63,5.018,7.895
	c5.63,6.181,11.75,11.873,17.442,17.993c7.283,7.834,8.262,15.545,3.488,23.562c-4.529,7.65-11.506,9.18-19.4,7.405
	c-8.507-1.897-16.952-11.628-16.952-19.462c0-18.482-8.017-31.763-24.541-40.27c-2.999-1.53-5.753-4.835-7.16-7.956
	c-4.345-9.547-10.526-16.891-20.012-21.726c-2.999-1.53-5.141-4.896-7.65-7.466c-6.365-6.732-12.668-13.586-19.033-20.318
	c-2.448-2.57-6.181-4.529-7.65-7.528c-7.772-16.218-20.747-24.602-38.25-24.908c-17.075-0.306-31.518,6.059-40.943,21.175
	c-2.876,4.651-4.712,10.71-12.118,7.16c-6.548-3.182-15.484-2.448-15.239-14.749c0.857-41.432,0.306-82.926,0.306-124.358
	C99.297,314.584,99.542,311.769,99.787,307.424"/>
<path style="fill:#FFFFFF;" d="M517.232,322.234v125.644c-17.381,2.02-34.823,4.957-52.387,5.63
	c-5.63,0.245-12.546-4.406-17.075-8.752c-27.479-26.194-54.468-52.877-81.518-79.499c-13.464-13.219-22.277-15.055-39.474-6.548
	c-17.197,8.568-34.088,17.809-51.163,26.683c-13.219,6.916-26.806,5.018-33.538-4.651c-8.752-12.546-5.08-28.397,8.69-36.108
	c32.13-17.932,64.321-35.741,96.512-53.55c18.727-10.343,26.377-9.67,43.024,3.856c12.485,10.159,25.031,20.318,36.904,31.09
	c9.67,8.752,20.012,11.138,32.62,8.017c17.258-4.284,34.762-7.772,52.204-11.567C513.437,322.296,514.845,322.418,517.232,322.234"
	/>
<path style="fill:#FFFFFF;" d="M222.125,554.794c-9.425-1.346-19.094-0.428-26.071-4.345c-9.425-5.263-4.162-15.851-2.693-22.95
	c-8.996-1.958-17.993-1.897-24.602-5.814c-9.119-5.447-4.039-15.422-2.387-24.541c-3.06,0.122-5.263,0-7.344,0.428
	c-15.728,2.876-24.786-5.447-22.828-20.93c2.081-16.463,17.442-29.376,32.926-27.662c10.894,1.224,18.115,8.568,18.054,19.339
	c0,5.998,1.346,8.752,8.078,8.874c11.383,0.306,18.482,7.895,18.727,19.339c0.122,5.998,1.775,8.813,8.262,9.241
	c13.648,0.918,19.217,7.16,19.217,21.298c0,5.814,1.408,8.568,7.711,8.201c9.853-0.612,16.708,4.406,19.89,13.342
	c3.305,9.302,1.652,18.544-5.508,25.582s-16.034,11.016-26.438,10.771c-14.076-0.367-20.808-9.486-16.952-23.195
	C220.84,559.017,221.636,556.447,222.125,554.794"/>
</svg>
