<?xml version="1.0" encoding="utf-8"?>
<!-- Generator: Adobe Illustrator 18.1.1, SVG Export Plug-In . SVG Version: 6.00 Build 0)  -->
<!DOCTYPE svg PUBLIC "-//W3C//DTD SVG 1.1//EN" "http://www.w3.org/Graphics/SVG/1.1/DTD/svg11.dtd">
<svg version="1.1" id="Layer_1" xmlns="http://www.w3.org/2000/svg" xmlns:xlink="http://www.w3.org/1999/xlink" x="0px" y="0px"
	 viewBox="0 0 563.8 564.3" enable-background="new 0 0 563.8 564.3" xml:space="preserve">
<g>
	<path fill="none" stroke="#00A9DB" stroke-width="28.2724" stroke-miterlimit="10" d="M281.6,550.2
		C131.5,547.4,13.8,431,14.1,281.4c0.3-150.3,119-267.7,268.4-267.3c149.9,0.4,267.1,118.5,267.1,267.8
		C549.6,431.9,431.4,547.7,281.6,550.2z"/>
</g>
<path fill="#00A9DB" d="M258.4,310.4c3.1,0.5,12.5-0.1,8,3.7c1.7,2.8-11.8,11.8-16.1,15.8c-5.8,5.4-11.4,10.8-17.2,16.1
	c-27.1,24.8-54.2,49.5-81.3,74.2c-7.9,7.2-16.3,6.3-24.3-2.5c-7.7-8.5-8-16.7-0.4-23.6c31.1-28.5,62.2-56.9,93.4-85.3
	c1.7-1.6,3.5-3.6,5.6-5.2c4-3.6,15.3-16,18.1-13.9c4.3-3.7,2.9,4.4,3.1,9.3c-22.4-25.9-31.4-55.6-26.5-88.8
	c4.3-28.8,18.9-52.2,42-69.9c45.1-34.4,110.7-29.5,150.3,11.1c37.9,38.9,40.9,99.9,7.5,142.1C386.3,336.7,316.6,354.4,258.4,310.4z
	 M400.6,226.6c-0.1-37.9-30.6-67.5-69.6-67.4c-38.3,0.1-68.5,29.8-68.5,67.5c0,37.7,31,67.8,69.5,67.7
	C369.9,294.3,400.7,263.8,400.6,226.6z"/>
</svg>
