<?xml version="1.0" encoding="utf-8"?>
<!-- Generator: Adobe Illustrator 18.1.1, SVG Export Plug-In . SVG Version: 6.00 Build 0)  -->
<!DOCTYPE svg PUBLIC "-//W3C//DTD SVG 1.1//EN" "http://www.w3.org/Graphics/SVG/1.1/DTD/svg11.dtd">
<svg version="1.1" id="Layer_1" xmlns="http://www.w3.org/2000/svg" xmlns:xlink="http://www.w3.org/1999/xlink" x="0px" y="0px"
	 viewBox="-23 0 657 792" enable-background="new -23 0 657 792" xml:space="preserve">
<path fill="none" stroke="#000000" stroke-width="49.2462" stroke-miterlimit="10" d="M305.8,681.7
	c-160-2.9-285.4-127.1-285.1-286.5C20.9,235,147.5,109.9,306.7,110.4c159.7,0.4,284.7,126.3,284.6,285.4
	C591.4,555.6,465.4,679.1,305.8,681.7z"/>
<path d="M281,426.1c-4.8,4-9.2,7.7-14.1,11.8c1.8,3.1,3.4,5.6,5.4,9c-6.2,5.8-12.2,11.6-18.4,17.2c-28.9,26.4-57.8,52.8-86.7,79.1
	c-8.4,7.6-17.3,6.7-25.9-2.7c-8.2-9-8.6-17.7-0.5-25.2c33.1-30.4,66.3-60.6,99.6-90.9c1.8-1.7,4-3.1,6.3-4.7c2.9,2.1,5.4,4,8.3,6.3
	c4.5-3.9,8.9-7.6,13.9-12c-23.9-27.5-33.5-59.3-28.3-94.7c4.5-30.7,20.1-55.6,44.8-74.5c48-36.7,118.1-31.5,160.2,11.8
	c40.3,41.5,43.6,106.5,8,151.4C417.3,454.1,343.1,473.1,281,426.1 M432.6,336.8c-0.1-40.4-32.6-71.9-74.2-71.8
	c-40.8,0.1-73,31.8-73,71.9c0,40.1,33,72.3,74.1,72.2C399.8,408.9,432.7,376.5,432.6,336.8"/>
</svg>
