<?xml version="1.0" encoding="utf-8"?>
<!-- Generator: Adobe Illustrator 18.1.1, SVG Export Plug-In . SVG Version: 6.00 Build 0)  -->
<!DOCTYPE svg PUBLIC "-//W3C//DTD SVG 1.1//EN" "http://www.w3.org/Graphics/SVG/1.1/DTD/svg11.dtd">
<svg version="1.1" id="Layer_1" xmlns="http://www.w3.org/2000/svg" xmlns:xlink="http://www.w3.org/1999/xlink" x="0px" y="0px"
	 viewBox="0 0 561.1 561.1" enable-background="new 0 0 561.1 561.1" xml:space="preserve">
<g>
	<path fill="#00A9DB" stroke="#FFFFFF" stroke-miterlimit="10" d="M364.9,193c13,13,25.6,25.6,37.9,38c2.4,2.4,2.4,6.2,0,8.6
		c-57.3,57.3-115.1,115.2-172.6,172.7c-2.4,2.4-6.2,2.4-8.6,0L166,356.5c-2.4-2.4-2.4-6.2,0-8.6c57.3-57.3,115.1-115.2,172.9-173.1
		c2.4-2.4,6.4-2.4,8.7,0.2l0.1,0.1"/>
	<path fill="#00A9DB" stroke="#FFFFFF" stroke-miterlimit="10" d="M359.3,161.3c-2.7-2.7-2.8-7.1-0.2-10c4.3-4.6,8.7-9.3,13.5-13.6
		c9.9-8.8,24.3-7.9,33.7,1.4c10.1,10.1,20.2,20.2,30.3,30.3c9.4,9.5,10.2,24.1,1.2,34c-4.2,4.7-8.8,9.1-13.3,13.3
		c-2.8,2.7-7.2,2.6-10-0.1C396.2,198.2,377.8,179.7,359.3,161.3z"/>
	<path fill="#00A9DB" stroke="#FFFFFF" stroke-miterlimit="10" d="M150.2,369.6l60.9,61c2.2,2.2,0.9,5.9-2.1,6.3
		c-23.6,3.6-47.4,7.2-71.8,10.9c-2.5,0.4-4.6-1.8-4.3-4.3c3.6-24.2,7.3-48.1,10.8-71.9C144.3,368.6,148,367.4,150.2,369.6z"/>
</g>
<circle fill="none" stroke="#00A9DB" stroke-width="28.772" stroke-miterlimit="10" cx="280.5" cy="280.5" r="266.1"/>
</svg>
