<?xml version="1.0" encoding="utf-8"?>
<!-- Generator: Adobe Illustrator 18.1.1, SVG Export Plug-In . SVG Version: 6.00 Build 0)  -->
<!DOCTYPE svg PUBLIC "-//W3C//DTD SVG 1.1//EN" "http://www.w3.org/Graphics/SVG/1.1/DTD/svg11.dtd">
<svg version="1.1" id="Layer_1" xmlns="http://www.w3.org/2000/svg" xmlns:xlink="http://www.w3.org/1999/xlink" x="0px" y="0px"
	 viewBox="0 0 648.1 792" enable-background="new 0 0 648.1 792" xml:space="preserve">
<path fill="#010101" stroke="#010101" stroke-width="49.6967" stroke-miterlimit="10" d="M607.4,396
	c0,155.4-125.9,281.3-281.3,281.3S44.8,551.3,44.8,396c0-155.4,125.9-281.3,281.3-281.3C481.5,114.7,607.4,240.6,607.4,396z"/>
<path fill="#FFFFFF" d="M544.2,423.8c-1.2,4.5-2.1,9.2-3.8,13.6c-8.4,22.1-24.8,36.3-46.8,43.4c-30.5,9.9-59.4,5.8-84.8-14.6
	c-14.5-11.6-23-27-24-45.9c-0.1-2.4,0.4-5,1.4-7.2c23.9-52.8,48-105.4,72-158.2c0.5-1.2,1-2.3,1.7-4H353c-0.1,1.7-0.2,3.4-0.2,5.2
	c0,91.7,0,183.3,0,275c0,7.5,0,7.4,7.2,8.9c17.9,3.8,34.5,10.6,48.9,22.2c7.7,6.2,14.2,13.5,18.7,22.5c0.7,1.3,1.2,2.8,2,4.7H226.7
	c15.7-31.7,43.6-43.6,75.4-50.7V250.8H197.7c0.6,1.7,1.1,3.2,1.7,4.7c23.7,52.2,47.5,104.5,71.4,156.7c2.9,6.4,1.5,12.7-0.1,18.8
	c-5.2,20.8-18.5,35.3-37,45c-34.2,17.9-78,10.9-103.4-16.3c-9.1-9.8-14.9-21.3-16.6-34.6c-0.1-0.7-0.5-1.3-0.7-2v-7.6
	c0.7-1,1.5-2,2-3c24.1-52.7,48-105.3,72-157.8c0.6-1.2,0.9-2.4,1.3-4c-3.4-0.2-6.1-0.3-8.8-0.4v-19.6h123.3v-14.6h50.2V231h123v19.3
	c-2.3,0.2-4.3,0.4-6.9,0.6c1,2.3,1.7,3.9,2.4,5.5c19.3,42.4,38.6,84.8,58,127.2c4.9,10.6,9.9,21.2,14.9,31.9V423.8L544.2,423.8z
	 M262.9,415.2c-23.3-51.1-46.5-101.8-70-153.5c-23.6,51.7-46.7,102.4-70,153.6L262.9,415.2L262.9,415.2z M464.5,261.7
	c-23.5,51.6-46.6,102.4-70,153.6h139.9C511.2,364.1,488,313.4,464.5,261.7"/>
</svg>
