<?xml version="1.0" encoding="utf-8"?>
<!-- Generator: Adobe Illustrator 18.1.1, SVG Export Plug-In . SVG Version: 6.00 Build 0)  -->
<!DOCTYPE svg PUBLIC "-//W3C//DTD SVG 1.1//EN" "http://www.w3.org/Graphics/SVG/1.1/DTD/svg11.dtd">
<svg version="1.1" id="Layer_1" xmlns="http://www.w3.org/2000/svg" xmlns:xlink="http://www.w3.org/1999/xlink" x="0px" y="0px"
	 viewBox="0 0 565.3 565.3" enable-background="new 0 0 565.3 565.3" xml:space="preserve">
<g>
	<path fill="#00A9DB" d="M490.5,309.2c-1.2,4.3-2,8.8-3.6,13c-8,21.1-23.7,34.6-44.6,41.3c-29.1,9.4-56.6,5.6-80.8-13.9
		c-13.8-11.1-21.9-25.7-22.9-43.8c-0.1-2.3,0.4-4.8,1.4-6.9c22.8-50.3,45.8-100.5,68.7-150.8c0.5-1.1,0.9-2.2,1.6-3.8
		c-34.1,0-67.8,0-102,0c-0.1,1.6-0.2,3.3-0.2,5c0,87.4,0,174.8,0,262.1c0,7.1,0,7.1,6.9,8.5c17.1,3.6,32.9,10.1,46.6,21.1
		c7.4,5.9,13.5,12.9,17.8,21.4c0.6,1.3,1.1,2.6,1.9,4.5c-64.5,0-128.4,0-193.3,0c14.9-30.2,41.6-41.6,71.9-48.4
		c0-91.2,0-182.7,0-274.4c-33,0-66,0-99.6,0c0.6,1.6,1,3.1,1.7,4.5c22.7,49.8,45.3,99.6,68,149.3c2.8,6.2,1.4,12.1,0,18
		c-4.9,19.8-17.6,33.6-35.3,42.9c-32.6,17.1-74.4,10.4-98.6-15.6c-8.7-9.3-14.2-20.3-15.9-33c-0.1-0.6-0.4-1.2-0.7-1.8
		c0-2.4,0-4.8,0-7.2c0.6-1,1.4-1.8,1.9-2.9c22.9-50.1,45.7-100.2,68.6-150.3c0.5-1.1,0.8-2.3,1.3-3.8c-3.2-0.1-5.9-0.3-8.4-0.4
		c0-6.4,0-12.3,0-18.7c39.2,0,78.2,0,117.6,0c0-4.9,0-9.4,0-13.9c16.1,0,31.8,0,47.9,0c0,4.8,0,9.3,0,14.2c39.4,0,78.3,0,117.2,0
		c0,6.5,0,12.4,0,18.4c-2.2,0.2-4.2,0.4-6.6,0.6c0.9,2.1,1.6,3.7,2.3,5.3c18.4,40.4,36.8,80.8,55.2,121.2
		c4.6,10.2,9.5,20.3,14.2,30.4C490.5,303.8,490.5,306.5,490.5,309.2z M222.3,301c-22.2-48.7-44.3-97.1-66.7-146.3
		c-22.5,49.3-44.5,97.7-66.7,146.3C133.6,301,177.7,301,222.3,301z M414.5,154.6c-22.4,49.2-44.5,97.6-66.7,146.3
		c44.8,0,88.8,0,133.4,0C459,252.2,437,203.9,414.5,154.6z"/>
</g>
<circle fill="none" stroke="#00A9DB" stroke-width="28.9882" stroke-miterlimit="10" cx="282.6" cy="282.6" r="268.1"/>
</svg>
