<?xml version="1.0" encoding="utf-8"?>
<!-- Generator: Adobe Illustrator 18.1.1, SVG Export Plug-In . SVG Version: 6.00 Build 0)  -->
<!DOCTYPE svg PUBLIC "-//W3C//DTD SVG 1.1//EN" "http://www.w3.org/Graphics/SVG/1.1/DTD/svg11.dtd">
<svg version="1.1" id="Layer_1" xmlns="http://www.w3.org/2000/svg" xmlns:xlink="http://www.w3.org/1999/xlink" x="0px" y="0px"
	 viewBox="0 0 563.4 563.4" enable-background="new 0 0 563.4 563.4" xml:space="preserve">
<path fill="#00A9DB" d="M469.3,253.7c-5.6-38-21.7-71.1-48-99.2c-25.1-26.8-55.7-45-91.6-53.9c-10.9-2.7-22.2-3.6-33.3-5.3
	c-1.3-0.2-2.6-0.5-3.9-0.8c-6.4,0-12.8,0-19.2,0c-5.9,0.7-11.9,1.4-17.8,2.3c-45.4,6.7-83.3,27-113.7,60.7
	c-24.3,26.8-39.7,58.2-44.9,93.7c-8.8,59.5,7.3,111.9,48.8,156.2c27.9,29.8,62.5,48.6,103.1,55.5c58.5,10,111.1-3.8,156.6-41.6
	c33.8-28.1,54.5-64.2,62.8-107.1c1.3-6.7,1.7-13.7,2.6-20.5c0.2-1.5,0.5-3.1,0.8-4.6c0-5.8,0-11.6,0-17.4
	C470.9,265.7,470.2,259.7,469.3,253.7z M276.9,133.9c72.9-1.9,118.8,36.6,132.8,80.7c-88.4,0-167.6-2.5-256-2.5
	C167.7,167.6,210.8,135.6,276.9,133.9z M141.5,279.8c6.4,0.7,12.9,1,19.1,2.3c33,6.7,64,17.2,81.7,44.6
	c14.1,21.8,14.5,54.6,16.4,80.4c0.2,3.3,0.5,6.7,0.7,10.3C189.9,406.4,140,344.9,141.5,279.8z M280.3,299.5
	c-16.2,0-29.3-12.9-29.3-28.8s13.1-28.8,29.3-28.8c16.2,0,29.3,12.9,29.3,28.8S296.5,299.5,280.3,299.5z M306.4,417.4
	c0.3-4.8,0.3-9.4,0.8-14.1c2.8-26.1,1.8-55.7,17.1-77.4c16.1-23,46.1-34.7,73.9-42.1c8.3-2.2,17-3,25.9-4.5
	C426.4,343.6,376,406.9,306.4,417.4z"/>
<circle fill="none" stroke="#00A9DB" stroke-width="28.8918" stroke-miterlimit="10" cx="281.7" cy="281.7" r="267.2"/>
</svg>
