<?xml version="1.0" encoding="utf-8"?>
<!-- Generator: Adobe Illustrator 18.1.1, SVG Export Plug-In . SVG Version: 6.00 Build 0)  -->
<!DOCTYPE svg PUBLIC "-//W3C//DTD SVG 1.1//EN" "http://www.w3.org/Graphics/SVG/1.1/DTD/svg11.dtd">
<svg version="1.1" id="Layer_1" xmlns="http://www.w3.org/2000/svg" xmlns:xlink="http://www.w3.org/1999/xlink" x="0px" y="0px"
	 viewBox="0 0 643.2 792" enable-background="new 0 0 643.2 792" xml:space="preserve">
<path fill="#010101" stroke="#010101" stroke-width="49.7419" stroke-miterlimit="10" d="M601.7,395.7
	c0,155.5-126.1,281.6-281.6,281.6c-155.5,0-281.6-126.1-281.6-281.6c0-155.5,126.1-281.6,281.6-281.6
	C475.6,114.1,601.7,240.2,601.7,395.7z"/>
<path fill="#FFFFFF" d="M546.7,404.4c-3.7,4.9-7,10.3-11.3,14.7c-36.8,37.3-73.8,74.4-110.8,111.5c-8.5,8.6-20.6,8.7-28.4,0.6
	c-6.7-7.1-7.2-17.9-1-25.5c1.1-1.4,2.4-2.6,3.7-3.9c32.5-32.7,65-65.3,97.5-98c1.2-1.2,2.5-2.1,5.4-4.5c-2.4-1.4-4.2-2-5.4-3.2
	c-33-33-65.9-66.1-98.8-99.2c-8-8-9-18.3-2.9-26.4c7.2-9.5,20.5-10.4,29.2-1.8c17.3,17.3,34.5,34.6,51.8,52
	c20,20.1,40.1,40.1,59.9,60.4c4.2,4.3,7.3,9.6,11,14.4L546.7,404.4L546.7,404.4z"/>
<path fill="#FFFFFF" d="M85.4,395.4c3.7-4.8,6.8-10.2,11-14.4c36.9-37.4,74-74.6,111.1-111.8c8.3-8.3,19.9-8.7,27.7-1.1
	c7.2,6.9,7.9,17.9,1.8,25.8c-1.2,1.5-2.6,2.9-4,4.3c-32.5,32.7-65,65.4-97.5,98.1c-1.2,1.2-2.2,2.4-3.9,4.2
	c6.1,5.9,12.1,11.5,17.9,17.3c28.5,28.6,57,57.2,85.4,85.9c10.8,10.9,6.9,28.3-7.3,32.6c-7.2,2.2-13.8,0.7-19.1-4.6
	c-39.2-39.4-78.3-78.7-117.4-118.2c-2.4-2.4-3.8-5.9-5.6-9C85.4,404.4,85.4,395.4,85.4,395.4z"/>
<path fill="#FFFFFF" d="M384.4,276.7c-0.4,1.5-1,4.5-2.1,7.2c-31.4,82.2-62.9,164.3-94.2,246.5c-4.3,11.1-14.9,16.3-25.3,12.3
	c-10.1-3.9-14.8-14.9-10.7-25.6c31.6-82.7,63.2-165.5,94.9-248.2c3.6-9.5,12.5-14.7,21.7-12.9C377.8,257.9,384.5,266,384.4,276.7"/>
</svg>
