<?xml version="1.0" encoding="utf-8"?>
<!-- Generator: Adobe Illustrator 18.1.1, SVG Export Plug-In . SVG Version: 6.00 Build 0)  -->
<!DOCTYPE svg PUBLIC "-//W3C//DTD SVG 1.1//EN" "http://www.w3.org/Graphics/SVG/1.1/DTD/svg11.dtd">
<svg version="1.1" id="Layer_1" xmlns="http://www.w3.org/2000/svg" xmlns:xlink="http://www.w3.org/1999/xlink" x="0px" y="0px"
	 viewBox="0 0 612 792" enable-background="new 0 0 612 792" xml:space="preserve">
<path d="M497.8,324.9c-11.6,10.8-23.1,21.5-34.9,32.4c-4.6-4.6-9.2-8.9-13.5-13.6c-1-1.2-1.2-3.4-1.3-5.3c-0.2-7.4-4-12.6-10.3-15.9
	c-4.5-2.3-9.4-4.1-14.3-5.4c-5.8-1.5-11.5-0.5-16.3,3.4c-11.7,9.4-23.5,18.5-34.8,28.3c-11.7,10.3-22.8,21.2-34.5,32.3
	c-5.8-6.1-11.6-12.3-17.5-18.7c9.4-8.9,18.7-17.4,27.7-26.3c9.5-9.4,19-18.8,27.6-29c7.6-9.1,12.7-19.8,15.7-31.3
	c3.8-14.3,0.9-27.1-10.5-37.1c-12-10.8-25.6-18.9-40.5-24.9c-0.8-0.3-1.5-0.6-3.3-1.3c6.5-1.7,12.2-1.7,17.9-1
	c15.7,1.8,30.2,7.4,43.9,14.9c20.8,11.3,38.4,26.5,52.6,45.3c4.6,6.1,8.1,13.6,10,21.1c2.9,11.1,10.2,15.4,20.4,17.2
	c2,0.4,4,1.6,5.4,3C491,316.6,494.2,320.6,497.8,324.9"/>
<path d="M312.3,368.2c6.2,6.5,12.2,12.9,18.4,19.4c-1.3,1.4-2.6,2.9-4,4.4c-35.7,37.1-71.5,74.2-107.3,111.3
	c-11.3,11.8-22.6,23.5-34.4,34.9c-3.5,3.4-8.1,6.2-12.7,7.7c-10,3.2-17.3-2.6-23.1-9.8c-8.9-10.8-7-25.4,3.8-34.3
	c33-27.5,65.9-55.1,98.7-82.7C271.8,402.2,291.9,385.4,312.3,368.2"/>
<path fill="none" stroke="#000000" stroke-width="48.658" stroke-miterlimit="10" d="M575,396.9c0,155.8-120.4,282-269,282
	S37,552.6,37,396.9s120.4-282,269-282S575,241.1,575,396.9z"/>
</svg>
