<?xml version="1.0" encoding="utf-8"?>
<!-- Generator: Adobe Illustrator 18.1.1, SVG Export Plug-In . SVG Version: 6.00 Build 0)  -->
<!DOCTYPE svg PUBLIC "-//W3C//DTD SVG 1.1//EN" "http://www.w3.org/Graphics/SVG/1.1/DTD/svg11.dtd">
<svg version="1.1" id="Layer_1" xmlns="http://www.w3.org/2000/svg" xmlns:xlink="http://www.w3.org/1999/xlink" x="0px" y="0px"
	 viewBox="0 0 648.1 792" enable-background="new 0 0 648.1 792" xml:space="preserve">
<path fill="#010101" d="M326.9,682.2c-160-3-285.5-127.1-285.1-286.5c0.3-160.2,126.8-285.3,286.1-284.9
	c159.7,0.4,284.7,126.3,284.6,285.4C612.5,556.1,486.5,679.6,326.9,682.2z"/>
<path fill="#FFFFFF" d="M302.1,426.6c-4.8,4-9.2,7.7-14.1,11.8c1.8,3.1,3.4,5.6,5.4,9c-6.2,5.8-12.2,11.6-18.4,17.2
	c-28.9,26.4-57.8,52.8-86.7,79.1c-8.4,7.6-17.3,6.7-25.9-2.7c-8.2-9-8.6-17.7-0.5-25.2c33.1-30.4,66.3-60.6,99.6-90.9
	c1.8-1.7,4-3.1,6.3-4.7c2.9,2.1,5.4,4,8.3,6.3c4.5-3.9,8.9-7.6,13.9-12c-23.9-27.5-33.5-59.3-28.3-94.7
	c4.5-30.7,20.1-55.6,44.8-74.5c48-36.7,118.1-31.5,160.2,11.8c40.3,41.5,43.6,106.5,8,151.4C438.4,454.6,364.2,473.5,302.1,426.6
	 M453.7,337.3c-0.1-40.4-32.6-71.9-74.2-71.8c-40.8,0.1-73,31.8-73,71.9c0,40.1,33,72.3,74.1,72.2
	C420.9,409.4,453.8,377,453.7,337.3"/>
</svg>
