<?xml version="1.0" encoding="utf-8"?>
<!-- Generator: Adobe Illustrator 18.1.1, SVG Export Plug-In . SVG Version: 6.00 Build 0)  -->
<!DOCTYPE svg PUBLIC "-//W3C//DTD SVG 1.1//EN" "http://www.w3.org/Graphics/SVG/1.1/DTD/svg11.dtd">
<svg version="1.1" id="Layer_1" xmlns="http://www.w3.org/2000/svg" xmlns:xlink="http://www.w3.org/1999/xlink" x="0px" y="0px"
	 viewBox="-10 0 632 792" enable-background="new -10 0 632 792" xml:space="preserve">
<path d="M395.3,268.9c13.7,13.8,27.1,27.1,40.1,40.2c2.5,2.5,2.5,6.5,0,9.1C374.8,378.8,313.7,440,252.9,500.8
	c-2.5,2.5-6.5,2.5-9.1,0l-58.9-58.9c-2.5-2.5-2.5-6.5,0-9.1c60.6-60.6,121.7-121.8,182.9-183.1c2.6-2.6,6.8-2.5,9.2,0.2l0.1,0.1"/>
<path d="M396.1,234.2c-2.9-2.9-2.9-7.5-0.2-10.5c4.5-4.8,9.2-9.9,14.3-14.4c10.5-9.3,25.7-8.4,35.6,1.5c10.7,10.6,21.4,21.3,32,32
	c9.9,10,10.7,25.5,1.3,35.9c-4.5,5-9.4,9.5-14.1,14.1c-3,2.8-7.6,2.8-10.5-0.1C435.1,273.2,415.7,253.7,396.1,234.2"/>
<path d="M164,464.1l57.9,58c2.1,2.1,0.9,5.6-2,6c-22.4,3.4-45,6.9-68.2,10.3c-2.3,0.4-4.4-1.7-4-4c3.5-23,6.9-45.7,10.3-68.3
	C158.4,463.1,161.9,462,164,464.1"/>
<path fill="none" stroke="#000000" stroke-width="49.7387" stroke-miterlimit="10" d="M587.5,361.6c0,155.5-126.1,281.5-281.5,281.5
	c-155.5,0-281.5-126-281.5-281.5S150.6,80,306,80C461.5,80,587.5,206,587.5,361.6z"/>
</svg>
