<?xml version="1.0" encoding="utf-8"?>
<!-- Generator: Adobe Illustrator 18.1.1, SVG Export Plug-In . SVG Version: 6.00 Build 0)  -->
<!DOCTYPE svg PUBLIC "-//W3C//DTD SVG 1.1//EN" "http://www.w3.org/Graphics/SVG/1.1/DTD/svg11.dtd">
<svg version="1.1" id="Layer_1" xmlns="http://www.w3.org/2000/svg" xmlns:xlink="http://www.w3.org/1999/xlink" x="0px" y="0px"
	 viewBox="396.5 9.8 282.7 282.7" enable-background="new 396.5 9.8 282.7 282.7" xml:space="preserve">
<g>
	<path fill="#00A9DB" d="M440.8,111.6c6.9,0,11.9,0.4,18.5,0.3c8.7-0.1,14.8,0.6,22.7-3c8.4-3.9,16.5-8.6,25.1-12.3
		c6.1-2.5,12.4-1.2,18.3,1.3c1.7,0.7,3.1,2.1,5.4,3.6c-7.9,4.7-15,8.8-22,13.1c-4.7,2.7-8.7,6.2-10.8,11.3c-3,7.4-1.6,15.6,4.4,21
		c5.7,5.1,12.2,7.7,19.8,4.3c6.6-2.9,13.3-5.8,19.8-8.8c7.1-3.2,12.1-2.4,17.4,3c11.4,11.3,22.9,22.8,34.3,34.2
		c4.1,4.1,4.4,9.3,0.8,12.9c-3.2,3.3-8.7,3-12.6-0.7c-3.4-3.3-6.8-6.8-10.2-10.1c-0.9-0.9-2.1-1.4-3.2-2.2c-0.3,0.3-0.6,0.6-1,1
		c1.3,1.8,2.6,3.7,4.2,5.4c2.5,2.7,5.3,5.3,7.8,8.1c3.9,4.3,4.1,9.4,0.4,12.9c-3.3,3.2-8.6,2.9-12.6-0.9c-3.8-3.7-7.5-7.6-11.2-11.3
		c-1.1-1.1-2.6-1.9-3.9-2.9c-0.3,0.2-0.6,0.5-0.9,0.8c0.8,1.2,1.4,2.5,2.4,3.6c3.2,3.6,6.6,7,9.8,10.6c3.4,3.8,3.3,8.6,0,11.8
		c-3.2,3.2-8.1,3-11.7-0.5c-4.1-3.9-7.9-8-11.9-11.8c-1-1-2.4-1.6-3.6-2.4c-0.3,0.3-0.6,0.6-0.9,0.9c0.7,1.2,1.3,2.6,2.3,3.6
		c2.6,2.8,5.5,5.5,8.1,8.3c3.3,3.6,3.8,7.2,1.6,10.9c-2.1,3.5-5.3,4.3-9,3.4c-3.9-0.8-7.9-5.4-7.9-9c0-8.6-3.7-14.8-11.3-18.7
		c-1.4-0.7-2.6-2.2-3.3-3.7c-2-4.5-5-7.9-9.3-10c-1.4-0.7-2.4-2.2-3.5-3.4c-2.9-3.1-5.9-6.3-8.8-9.4c-1.1-1.2-2.8-2.1-3.5-3.5
		c-3.6-7.5-9.6-11.4-17.7-11.5c-7.9-0.1-14.7,2.8-19,9.8c-1.3,2.1-1.9,4.4-5.6,3.3c-3.5-1.2-7.2-1.1-7.1-6.8
		c0.4-19.2,0.1-38.5,0.1-57.7C440.9,108.6,440.7,113.5,440.8,111.6z"/>
	<path fill="#00A9DB" d="M635,116.3c0,19.4,0,34.3,0,54.3c-8.1,0.9-16.2,2.3-24.3,2.6c-2.6,0.1-5.8-2-7.9-4.1
		c-12.8-12.2-25.2-24.6-37.9-36.9c-6.3-6.2-10.3-7-18.3-3c-8,3.9-15.8,8.3-23.8,12.4c-6.1,3.2-12.5,2.3-15.5-2.1
		c-4.1-5.8-2.3-13.2,4.1-16.8c14.9-8.3,29.9-16.6,44.9-24.9c8.7-4.9,12.3-4.6,20,1.8c5.8,4.8,11.6,9.4,17.1,14.5
		c4.6,4.1,9.1,4.1,15.1,3.7c10.2-0.5,14.6-1.1,22.8-1.4C631.7,116.4,635,116.3,635,116.3z"/>
	<path fill="#00A9DB" d="M498,220.2c-4.4-0.6-8.9-0.2-12.1-2c-4.4-2.4-1.9-7.4-1.2-10.6c-4.3-0.9-8.4-0.9-11.4-2.7
		c-4.3-2.5-1.9-7.2-1.1-11.3c-1.4,0-2.4,0-3.4,0.2c-7.3,1.3-11.5-2.5-10.6-9.7c0.9-7.6,8.1-13.7,15.3-12.9c5.1,0.5,8.4,4.1,8.4,9
		c0,2.8,0.6,4.1,3.7,4.2c5.3,0.1,8.6,3.6,8.7,9c0,2.7,0.8,4.1,3.8,4.3c6.4,0.4,8.9,3.3,8.9,9.9c0,2.7,0.6,3.9,3.5,3.8
		c4.6-0.3,7.8,2,9.2,6.2c1.5,4.4,0.7,8.6-2.5,11.8c-3.3,3.2-7.4,5.1-12.3,5c-6.5-0.1-9.7-4.5-7.9-10.7
		C497.3,222.2,497.7,221,498,220.2z"/>
</g>
<circle fill="none" stroke="#00A9DB" stroke-width="15" stroke-miterlimit="10" cx="537.8" cy="151.1" r="133.9"/>
</svg>
