<?xml version="1.0" encoding="utf-8"?>
<!-- Generator: Adobe Illustrator 18.1.1, SVG Export Plug-In . SVG Version: 6.00 Build 0)  -->
<!DOCTYPE svg PUBLIC "-//W3C//DTD SVG 1.1//EN" "http://www.w3.org/Graphics/SVG/1.1/DTD/svg11.dtd">
<svg version="1.1" id="Layer_1" xmlns="http://www.w3.org/2000/svg" xmlns:xlink="http://www.w3.org/1999/xlink" x="0px" y="0px"
	 viewBox="-163.6 73.6 489.7 139.8" enable-background="new -163.6 73.6 489.7 139.8" xml:space="preserve">
<g>
	<path fill="#27BACD" stroke="#FFFFFF" stroke-width="2" stroke-miterlimit="10" d="M62.7,128.5"/>
	
		<line fill="none" stroke="#53BC7A" stroke-width="4" stroke-linecap="round" stroke-linejoin="round" stroke-miterlimit="10" stroke-dasharray="1.989,10" x1="119" y1="143.4" x2="246.7" y2="142"/>
	<g>
		<circle fill="#16638F" cx="-134.7" cy="148.8" r="21.9"/>
		<path fill="#16638F" d="M-119.4,132.9c2.7-2.4,6.2-3.9,10.2-3.9c8.5,0,15.4,6.9,15.4,15.4c0,8.5-6.9,15.6-15.4,15.6
			c-2.2,0-4.2-0.4-6-1.2"/>
		<path fill="#16638F" d="M-95.6,138.2h7.3c0.8,0,1.4,1,1.4,2.3v7.3c0,1.2-0.7,2.3-1.4,2.3h-7.3"/>
		<path fill="#16638F" d="M-145.5,167.5l0.1,3.1c0,1.5-1.1,2.6-2.6,2.6l0,0c-1.5,0-2.6-1.1-2.6-2.6v-6.7"/>
		<path fill="#16638F" d="M-117.4,162.5v7.5c0,1-0.9,1.9-1.9,1.9h-0.5c-1,0-1.9-0.9-1.9-1.9l-0.2-4.5"/>
		<path fill="#16638F" stroke="#C4E8F5" stroke-miterlimit="10" d="M-119.9,160.5"/>
		<path fill="none" stroke="#16638F" stroke-miterlimit="10" d="M-155.7,147.3c-0.4,1.8-4.2,0.9-4.9-0.3c-0.5-1-0.5-2.6,0.9-2.5
			c2.2,0.1,1.4,2.8,0.1,3.6c-2.7,1.6-3.9-2.8-3.4-4.7"/>
		<circle fill="#16638F" stroke="#C4E8F5" stroke-miterlimit="10" cx="-105.1" cy="141.2" r="2.7"/>
		<circle fill="#16638F" stroke="#C4E8F5" stroke-miterlimit="10" cx="-90.1" cy="141.9" r="0.9"/>
		<path fill="#16638F" stroke="#C4E8F5" stroke-miterlimit="10" d="M-110.3,130.4c0,1.6-1.1,3.6-2.7,3.6s-3.1-2-3.1-3.6
			c0-1.6,1.2-2.8,2.8-2.8C-111.6,127.6-110.3,128.8-110.3,130.4z"/>
		<path fill="#16638F" stroke="#C4E8F5" stroke-miterlimit="10" d="M-116,129.4c0.2-3.5,4-5.8,4-5.8s-0.1,4.3,1.1,5.2"/>
		<polygon fill="#16638F" stroke="#C4E8F5" stroke-miterlimit="10" points="-140.9,129.5 -140.9,132.7 -128.3,132.7 -128.3,128.2 
			-130.8,128.2 -130.8,130.4 -139,130.4 -139,127.6 -141.5,127.6 		"/>
		<polygon fill="#16638F" stroke="#C4E8F5" stroke-miterlimit="10" points="-131.4,130.4 -123.5,122.6 -128.3,117.8 -139.2,128.7 		
			"/>
		<polygon fill="#16638F" stroke="#C4E8F5" stroke-miterlimit="10" points="-137.4,130.6 -146.7,119.1 -140.3,114.6 -129.8,127.8 
			-136,131.2 		"/>
		<polygon fill="#16638F" stroke="#C4E8F5" stroke-miterlimit="10" points="-136,131.2 -138.1,115.4 -130.5,116.7 -130.8,130.4 		
			"/>
		
			<rect x="-142.5" y="115.6" transform="matrix(0.7441 -0.668 0.668 0.7441 -115.1495 -60.7854)" fill="none" width="11.1" height="8.7"/>
		
			<text transform="matrix(0.7442 -0.668 0.668 0.7442 -141.0717 123.6996)" fill="#16638F" font-family="'Raleway-SemiBold'" font-size="5.9138">$</text>
		
			<text transform="matrix(0.7442 -0.668 0.668 0.7442 -141.0717 123.6996)" fill="none" stroke="#C4E8F5" stroke-miterlimit="10" font-family="'Raleway-SemiBold'" font-size="5.9138">$</text>
		
			<rect x="-135.8" y="118.9" transform="matrix(0.9991 4.205995e-02 -4.205995e-02 0.9991 5.0677 5.5879)" fill="none" width="11.1" height="8.7"/>
		
			<text transform="matrix(0.9991 4.206126e-02 -4.206126e-02 0.9991 -135.7541 123.1217)" fill="#16638F" font-family="'Raleway-SemiBold'" font-size="5.9133">$</text>
		
			<text transform="matrix(0.9991 4.206126e-02 -4.206126e-02 0.9991 -135.7541 123.1217)" fill="none" stroke="#C4E8F5" stroke-miterlimit="10" font-family="'Raleway-SemiBold'" font-size="5.9133">$</text>
		
			<rect x="-132.6" y="123" transform="matrix(0.7747 0.6323 -0.6323 0.7747 51.8612 109.0291)" fill="none" width="11.1" height="8.7"/>
		
			<text transform="matrix(0.7747 0.6323 -0.6323 0.7747 -131.2897 123.7775)" fill="#16638F" font-family="'Raleway-SemiBold'" font-size="5.9133">$</text>
		
			<text transform="matrix(0.7747 0.6323 -0.6323 0.7747 -131.2897 123.7775)" fill="none" stroke="#C4E8F5" stroke-miterlimit="10" font-family="'Raleway-SemiBold'" font-size="5.9133">$</text>
	</g>
	<g>
		<path fill="#16638F" d="M88.4,212.8c-0.2,0-0.4-0.2-0.4-0.4l-12.2-42.9c-0.1-0.2,0-0.5,0.3-0.7l14-6.8c0.1,0,0.1-0.1,0.2-0.1
			c0.1,0,0.2,0,0.3,0.1l4.7,3.2l16.4-7c0.1,0,0.1,0,0.2,0c0.1,0,0.2,0,0.3,0.1c0.1,0.1,0.2,0.3,0.2,0.4v3.8c0,0.1,0,0.1,0,0.2
			l-23.4,49.6C88.8,212.6,88.6,212.8,88.4,212.8L88.4,212.8z"/>
		<g>
			<path fill="#C4E8F5" d="M111.9,158.8v3.8l-23.4,49.6l-12.2-42.9l14-6.8l4.9,3.4L111.9,158.8 M111.9,157.7c-0.1,0-0.3,0-0.4,0.1
				l-16.1,6.9l-4.5-3.1c-0.2-0.1-0.4-0.2-0.7-0.2c-0.1,0-0.3,0-0.4,0.1l-14,6.8c-0.4,0.2-0.8,0.8-0.5,1.4l12.2,42.9
				c0.1,0.4,0.5,0.8,1,0.8h0.1c0.4,0,0.8-0.2,1-0.7L113,163c0.1-0.1,0.1-0.3,0.1-0.4v-3.8c0-0.3-0.2-0.8-0.4-0.9
				C112.4,157.7,112.2,157.7,111.9,157.7L111.9,157.7z"/>
		</g>
	</g>
	<g>
		<path fill="#16638F" d="M88.4,212.8c-0.1,0-0.2,0-0.2-0.1c-0.2-0.1-0.3-0.3-0.3-0.4v-38.3c0-0.2,0.1-0.4,0.3-0.4l30.3-14.8
			c0.1,0,0.1-0.1,0.2-0.1c0.1,0,0.2,0,0.3,0.1c0.1,0.1,0.2,0.3,0.2,0.4l-0.8,32.6c0,0.2-0.1,0.3-0.2,0.4l-29.6,20.4
			C88.6,212.7,88.5,212.8,88.4,212.8z"/>
		<g>
			<path fill="#C4E8F5" d="M118.7,159.1L118.7,159.1 M118.7,159.1l-0.8,32.6l-29.6,20.4v-38.3L118.7,159.1 M118.7,158L118.7,158
				c-0.2,0-0.3,0-0.5,0.1L88,172.9c-0.3,0.2-0.7,0.5-0.7,1v38.3c0,0.4,0.2,0.8,0.5,1c0.1,0.1,0.3,0.1,0.5,0.1s0.4-0.1,0.7-0.2
				l29.6-20.4c0.3-0.2,0.4-0.5,0.4-0.9l0.8-32.5v-0.1C119.9,158.4,119.3,158,118.7,158L118.7,158L118.7,158L118.7,158z"/>
		</g>
	</g>
	
		<line fill="none" stroke="#53BC7A" stroke-width="4" stroke-linecap="round" stroke-linejoin="round" stroke-miterlimit="10" stroke-dasharray="1.989,10" x1="-75.9" y1="150" x2="65.7" y2="181.7"/>
	
		<line fill="none" stroke="#53BC7A" stroke-width="4" stroke-linecap="round" stroke-linejoin="round" stroke-miterlimit="10" stroke-dasharray="1.989,10" x1="-75.4" y1="138.1" x2="66.2" y2="109.1"/>
	<g>
		<polygon fill="#16638F" points="88.4,137.1 76.2,94.2 90.3,87.4 95.2,90.8 111.9,83.7 111.8,87.4 		"/>
	</g>
	<g>
		<path fill="#16638F" d="M88.4,137.7c-0.1,0-0.2,0-0.2-0.1c-0.2-0.1-0.3-0.3-0.3-0.4V98.8c0-0.2,0.1-0.4,0.3-0.4l30.3-14.8
			c0.1,0,0.1-0.1,0.2-0.1c0.1,0,0.2,0,0.3,0.1s0.2,0.3,0.2,0.4l-0.8,32.6c0,0.2-0.1,0.3-0.2,0.4l-29.6,20.4
			C88.6,137.7,88.5,137.7,88.4,137.7z"/>
		<path fill="#C4E8F5" d="M118.7,84L118.7,84 M118.7,84l-0.8,32.6l-29.6,20.4V98.8L118.7,84 M118.7,82.9L118.7,82.9
			c-0.2,0-0.3,0-0.5,0.1L88,97.8c-0.3,0.2-0.7,0.5-0.7,1v38.3c0,0.4,0.2,0.8,0.5,1c0.1,0.1,0.3,0.1,0.5,0.1s0.4-0.1,0.7-0.2
			l29.6-20.4c0.3-0.2,0.4-0.5,0.4-0.9l0.8-32.5v-0.1C119.9,83.4,119.3,82.9,118.7,82.9L118.7,82.9L118.7,82.9L118.7,82.9z"/>
	</g>
	<polygon fill="none" points="147.1,88.9 93.5,116.7 91.1,101.5 144.7,73.6 	"/>
	
		<text transform="matrix(1.1938 -0.6227 0.1511 0.9885 91.8026 105.568)" fill="#FFFFFF" font-family="'Raleway'" font-size="5.6829">Project </text>
	
		<text transform="matrix(1.1938 -0.6227 0.1511 0.9885 92.8318 112.31)" fill="#FFFFFF" font-family="'Raleway'" font-size="5.6829">A</text>
	<g>
		<polygon fill="#16638F" stroke="#C4E8F5" stroke-width="0.9999" stroke-miterlimit="10" points="289.4,124.3 324.2,138.3 
			324.2,159.4 287.5,145.5 287.5,123.1 		"/>
		<path fill="#16638F" stroke="#C4E8F5" stroke-width="0.9999" stroke-miterlimit="10" d="M262.6,120v33.3l26.3-6.3v-33.3l-9.5,2.5
			c0,0,3-8-4.8-8c-7.8,0-3.8,9.4-3.8,9.4L262.6,120z"/>
		<polygon fill="#16638F" stroke="#C4E8F5" stroke-width="0.9999" stroke-miterlimit="10" points="283.4,139.8 300.7,109 310.8,112 
			314,114.7 310.6,116.1 312.1,118.6 308.2,120.2 309.9,123.1 304.9,125.5 306,130.9 301.2,131.3 301.9,135.6 296.6,135.6 
			297.6,139.6 293.6,140.3 295.5,144.6 		"/>
		<path fill="#16638F" stroke="#C4E8F5" stroke-width="0.9999" stroke-miterlimit="10" d="M275.9,111.3l36.7,14.6l-1.9,4.1L273,115
			C272.9,115.1,272,111.6,275.9,111.3z"/>
		<path fill="#16638F" stroke="#C4E8F5" stroke-width="0.9999" stroke-miterlimit="10" d="M299.3,133.9v33.3l26.3-6.3v-33.3
			l-9.5,2.5c0,0,3-8-4.8-8c-7.8,0-3.8,9.4-3.8,9.4L299.3,133.9z"/>
		<g>
			<path fill="#16638F" d="M279.9,139c-0.1,0-0.1,0-0.2,0l-9.2-3.7c-0.1,0-0.1,0-0.1-0.1l-11.4-10.5h-2.4l-1.3,1l-0.6,2.1
				c0,0.1-0.1,0.4-0.4,0.4c0,0-0.1,0-0.2,0c-0.1,0-0.2,0-0.4-0.1l-4.4-3.2c-0.1-0.1-0.2-0.4-0.2-0.5c0-0.2,0.1-0.4,0.4-0.5l2.8-1
				v-2.1c0-0.1,0-0.2,0.1-0.4l3.2-3.8l0.1-0.1c2.1-1.3,4.3-1.9,6.4-1.9c3.2,0,5.8,1.4,5.8,2.4c0,0.2-0.1,0.5-0.2,0.5
				c-0.1,0-0.2,0.1-0.4,0.1s-0.4,0-0.6-0.1c-0.4-0.1-0.6-0.1-1-0.1c-1.5,0-2.9,1-3.4,1.4l1.1,3.3l17.2,15.8c0.2,0.1,0.2,0.5,0.1,0.7
				C280.2,138.9,280,139,279.9,139z"/>
			<path fill="#C4E8F5" d="M262.1,115.2c3.7,0,5.8,1.9,5,1.9c-0.1,0-0.2,0-0.5-0.1c-0.4-0.1-0.9-0.2-1.3-0.2c-2.1,0-4.2,1.8-4.2,1.8
				l1.3,3.8l17.3,15.9l-9.2-3.7l-11.5-10.6h-2.9l-1.5,1.3l-0.6,2.4l-4.4-3.2l3.2-1.1v-2.5l3.2-3.8
				C258.2,115.8,260.3,115.2,262.1,115.2 M262.1,114.1L262.1,114.1c-2.3,0-4.6,0.6-6.7,1.9c-0.1,0.1-0.2,0.1-0.2,0.2L252,120
				c-0.1,0.2-0.2,0.5-0.2,0.7v1.8l-2.4,0.9c-0.4,0.1-0.6,0.5-0.7,0.9c-0.1,0.4,0.1,0.9,0.5,1.1l4.4,3.2c0.2,0.1,0.4,0.2,0.6,0.2
				c0.1,0,0.2,0,0.4-0.1c0.4-0.1,0.6-0.4,0.7-0.7l0.5-2l1-0.7h2l11.2,10.3c0.1,0.1,0.2,0.1,0.4,0.2l9.2,3.7c0.1,0,0.2,0.1,0.4,0.1
				c0.4,0,0.7-0.2,1-0.5c0.2-0.5,0.2-1-0.2-1.4L263.7,122l-0.9-2.8c0.6-0.4,1.6-1,2.8-1c0.2,0,0.6,0,0.9,0.1
				c0.4,0.1,0.6,0.1,0.9,0.1c0.7,0,1.3-0.5,1.3-1.3C268.5,115.6,265.4,114.1,262.1,114.1L262.1,114.1z"/>
		</g>
		<polygon fill="#16638F" stroke="#C4E8F5" stroke-width="0.9999" stroke-miterlimit="10" points="264.5,132.2 299.3,146.1 
			299.3,167.2 262.6,153.3 262.6,130.9 		"/>
		<path fill="#16638F" stroke="#C4E8F5" stroke-width="0.9999" stroke-miterlimit="10" d="M280.4,124.2c0,0,0.7-1.4,2.8-0.6
			c2,0.7,2.4,9.5,2.4,9.5l0.7,1.5l-5,0.6v-1.8C281.4,133.5,279.5,128.3,280.4,124.2z"/>
		<polygon fill="#16638F" stroke="#C4E8F5" stroke-width="0.9999" stroke-miterlimit="10" points="285.2,140.5 284.5,134.8 
			282.8,135.1 283.4,139.8 		"/>
	</g>
	<polygon fill="none" points="147.1,163.9 93.5,191.9 91.1,176.5 144.7,148.6 	"/>
	
		<text transform="matrix(1.1938 -0.6227 0.1511 0.9885 91.7872 180.5721)" fill="#FFFFFF" font-family="'Raleway'" font-size="5.6829">Project </text>
	
		<text transform="matrix(1.1938 -0.6227 0.1511 0.9885 92.818 187.3128)" fill="#FFFFFF" font-family="'Raleway'" font-size="5.6829">B</text>
</g>
</svg>
