<?xml version="1.0" encoding="utf-8"?>
<!-- Generator: Adobe Illustrator 18.1.1, SVG Export Plug-In . SVG Version: 6.00 Build 0)  -->
<!DOCTYPE svg PUBLIC "-//W3C//DTD SVG 1.1//EN" "http://www.w3.org/Graphics/SVG/1.1/DTD/svg11.dtd">
<svg version="1.1" id="Layer_1" xmlns="http://www.w3.org/2000/svg" xmlns:xlink="http://www.w3.org/1999/xlink" x="0px" y="0px"
	 viewBox="0 0 261.3 114.1" enable-background="new 0 0 261.3 114.1" xml:space="preserve">
<g>
	<path fill="#27BACD" stroke="#FFFFFF" stroke-width="2" stroke-miterlimit="10" d="M100.6,39.4"/>
	
		<line fill="none" stroke="#53BC7A" stroke-width="2.9414" stroke-linecap="round" stroke-linejoin="round" stroke-miterlimit="10" stroke-dasharray="0.6229,6.2288" x1="154.5" y1="56.4" x2="192.2" y2="56"/>
	<g>
		<circle fill="#16638F" cx="26.5" cy="59.3" r="19.3"/>
		<path fill="#16638F" d="M40,45.3c2.4-2.1,5.5-3.4,9-3.4c7.5,0,13.6,6.1,13.6,13.6S56.5,69.2,49,69.2c-1.9,0-3.7-0.4-5.3-1.1"/>
		<path fill="#16638F" d="M60.9,49.9h6.4c0.7,0,1.2,0.9,1.2,2v6.4c0,1.1-0.6,2-1.2,2h-6.4"/>
		<path fill="#16638F" d="M17,75.7l0.1,2.7c0,1.3-1,2.3-2.3,2.3h0c-1.3,0-2.3-1-2.3-2.3v-5.9"/>
		<path fill="#16638F" d="M41.7,71.3v6.6c0,0.9-0.8,1.7-1.7,1.7h-0.5c-0.9,0-1.7-0.8-1.7-1.7l-0.2-3.9"/>
		<path fill="#16638F" stroke="#C4E8F5" stroke-miterlimit="10" d="M39.5,69.6"/>
		<path fill="none" stroke="#16638F" stroke-miterlimit="10" d="M8,57.9c-0.4,1.6-3.7,0.8-4.3-0.3c-0.5-0.9-0.5-2.3,0.8-2.2
			c1.9,0.1,1.2,2.5,0.1,3.2c-2.4,1.4-3.4-2.5-3-4.1"/>
		<circle fill="#16638F" stroke="#C4E8F5" stroke-miterlimit="10" cx="52.5" cy="52.6" r="2.4"/>
		<circle fill="#16638F" stroke="#C4E8F5" stroke-miterlimit="10" cx="65.7" cy="53.2" r="0.8"/>
		<path fill="#16638F" stroke="#C4E8F5" stroke-miterlimit="10" d="M47.9,43.1c0,1.4-1,3.2-2.4,3.2s-2.7-1.8-2.7-3.2
			s1.1-2.5,2.5-2.5C46.8,40.6,47.9,41.7,47.9,43.1z"/>
		<path fill="#16638F" stroke="#C4E8F5" stroke-miterlimit="10" d="M42.9,42.2c0.2-3.1,3.5-5.1,3.5-5.1s-0.1,3.8,1,4.6"/>
		<polygon fill="#16638F" stroke="#C4E8F5" stroke-miterlimit="10" points="21,42.3 21,45.1 32.1,45.1 32.1,41.1 29.9,41.1 
			29.9,43.1 22.7,43.1 22.7,40.6 20.5,40.6 		"/>
		<polygon fill="#16638F" stroke="#C4E8F5" stroke-miterlimit="10" points="29.4,43.1 36.3,36.2 32.1,32 22.5,41.6 		"/>
		<polygon fill="#16638F" stroke="#C4E8F5" stroke-miterlimit="10" points="24.1,43.3 15.9,33.2 21.5,29.2 30.8,40.8 25.3,43.8 		
			"/>
		<polygon fill="#16638F" stroke="#C4E8F5" stroke-miterlimit="10" points="25.3,43.8 23.5,29.9 30.2,31 29.9,43.1 		"/>
		<rect x="19.6" y="30.1" transform="matrix(0.7441 -0.668 0.668 0.7441 -16.3598 25.0298)" fill="none" width="9.8" height="7.6"/>
		
			<text transform="matrix(0.7442 -0.668 0.668 0.7442 20.8737 37.1902)" fill="#16638F" stroke="#C4E8F5" stroke-miterlimit="10" font-family="'Raleway-SemiBold'" font-size="5.2027">$</text>
		
			<rect x="25.5" y="33" transform="matrix(0.9991 4.205859e-02 -4.205859e-02 0.9991 1.5766 -1.2477)" fill="none" width="9.8" height="7.6"/>
		
			<text transform="matrix(0.9991 4.206000e-02 -4.206000e-02 0.9991 25.5522 36.6812)" fill="#16638F" stroke="#C4E8F5" stroke-miterlimit="10" font-family="'Raleway-SemiBold'" font-size="5.2027">$</text>
		
			<rect x="28.3" y="36.6" transform="matrix(0.7747 0.6323 -0.6323 0.7747 33.0158 -11.915)" fill="none" width="9.8" height="7.6"/>
		
			<text transform="matrix(0.7747 0.6323 -0.6323 0.7747 29.4803 37.2578)" fill="#16638F" stroke="#C4E8F5" stroke-miterlimit="10" font-family="'Raleway-SemiBold'" font-size="5.2027">$</text>
	</g>
	<g>
		<path fill="#16638F" d="M123.2,113.6c-0.2,0-0.4-0.2-0.4-0.4l-10.7-37.7c-0.1-0.2,0-0.5,0.3-0.6l12.3-6c0.1,0,0.1-0.1,0.2-0.1
			c0.1,0,0.2,0,0.3,0.1l4.1,2.8l14.4-6.2c0.1,0,0.1,0,0.2,0c0.1,0,0.2,0,0.3,0.1c0.1,0.1,0.2,0.3,0.2,0.4l0,3.3c0,0.1,0,0.1,0,0.2
			l-20.6,43.7C123.6,113.4,123.4,113.6,123.2,113.6C123.2,113.6,123.2,113.6,123.2,113.6z"/>
		<g>
			<path fill="#C4E8F5" d="M143.9,66.1l0,3.3l-20.6,43.7l-10.7-37.7l12.3-6l4.3,3L143.9,66.1 M143.9,65.1c-0.1,0-0.3,0-0.4,0.1
				l-14.2,6.1l-3.9-2.7c-0.2-0.1-0.4-0.2-0.6-0.2c-0.1,0-0.3,0-0.4,0.1l-12.3,6c-0.4,0.2-0.7,0.7-0.5,1.2l10.7,37.7
				c0.1,0.4,0.5,0.7,0.9,0.7c0,0,0.1,0,0.1,0c0.4,0,0.7-0.2,0.9-0.6l20.6-43.7c0.1-0.1,0.1-0.3,0.1-0.4l0-3.3c0-0.3-0.2-0.7-0.4-0.8
				C144.3,65.1,144.1,65.1,143.9,65.1L143.9,65.1z"/>
		</g>
	</g>
	<g>
		<path fill="#16638F" d="M123.2,113.6c-0.1,0-0.2,0-0.2-0.1c-0.2-0.1-0.3-0.3-0.3-0.4V79.4c0-0.2,0.1-0.4,0.3-0.4l26.7-13
			c0.1,0,0.1-0.1,0.2-0.1c0.1,0,0.2,0,0.3,0.1c0.1,0.1,0.2,0.3,0.2,0.4l-0.7,28.7c0,0.2-0.1,0.3-0.2,0.4l-26,18
			C123.4,113.5,123.3,113.6,123.2,113.6z"/>
		<g>
			<path fill="#C4E8F5" d="M149.9,66.4L149.9,66.4 M149.9,66.4l-0.7,28.7l-26,18V79.4L149.9,66.4 M149.9,65.4
				C149.9,65.4,149.9,65.4,149.9,65.4c-0.2,0-0.3,0-0.5,0.1l-26.6,13c-0.3,0.2-0.6,0.5-0.6,0.9v33.7c0,0.4,0.2,0.7,0.5,0.9
				c0.1,0.1,0.3,0.1,0.5,0.1c0.2,0,0.4-0.1,0.6-0.2l26-18c0.3-0.2,0.4-0.5,0.4-0.8l0.7-28.6c0,0,0-0.1,0-0.1
				C150.9,65.8,150.4,65.4,149.9,65.4L149.9,65.4C149.9,65.4,149.9,65.4,149.9,65.4L149.9,65.4z"/>
		</g>
	</g>
	
		<line fill="none" stroke="#53BC7A" stroke-width="2.9414" stroke-linecap="round" stroke-linejoin="round" stroke-miterlimit="10" stroke-dasharray="0.6229,6.2288" x1="80.1" y1="59.6" x2="106.2" y2="86.8"/>
	
		<line fill="none" stroke="#53BC7A" stroke-width="2.9414" stroke-linecap="round" stroke-linejoin="round" stroke-miterlimit="10" stroke-dasharray="0.6229,6.2288" x1="80.5" y1="54.5" x2="106.6" y2="27.3"/>
	<g>
		<polygon fill="#16638F" points="123.2,47 112.5,9.3 124.9,3.3 129.2,6.3 143.9,0 143.8,3.3 		"/>
	</g>
	<g>
		<path fill="#16638F" d="M123.2,47.5c-0.1,0-0.2,0-0.2-0.1c-0.2-0.1-0.3-0.3-0.3-0.4V13.3c0-0.2,0.1-0.4,0.3-0.4l26.7-13
			c0.1,0,0.1-0.1,0.2-0.1c0.1,0,0.2,0,0.3,0.1c0.1,0.1,0.2,0.3,0.2,0.4L149.7,29c0,0.2-0.1,0.3-0.2,0.4l-26,18
			C123.4,47.5,123.3,47.5,123.2,47.5z"/>
		<path fill="#C4E8F5" d="M149.9,0.3L149.9,0.3 M149.9,0.3L149.2,29l-26,18V13.3L149.9,0.3 M149.9-0.7
			C149.9-0.7,149.9-0.7,149.9-0.7c-0.2,0-0.3,0-0.5,0.1l-26.6,13c-0.3,0.2-0.6,0.5-0.6,0.9V47c0,0.4,0.2,0.7,0.5,0.9
			c0.1,0.1,0.3,0.1,0.5,0.1c0.2,0,0.4-0.1,0.6-0.2l26-18c0.3-0.2,0.4-0.5,0.4-0.8l0.7-28.6c0,0,0-0.1,0-0.1
			C150.9-0.2,150.4-0.7,149.9-0.7L149.9-0.7C149.9-0.7,149.9-0.7,149.9-0.7L149.9-0.7z"/>
	</g>
	<polygon fill="none" points="174.8,4.6 127.7,29.1 125.6,15.7 172.7,-8.9 	"/>
	<text transform="matrix(1.1938 -0.6227 0.1511 0.9885 126.1994 19.2788)"><tspan x="0" y="0" fill="#FFFFFF" font-family="'Raleway-Regular'" font-size="5">Project </tspan><tspan x="0" y="6" fill="#FFFFFF" font-family="'Raleway-Regular'" font-size="5">A</tspan></text>
	<g>
		<polygon fill="#16638F" stroke="#C4E8F5" stroke-width="0.8991" stroke-miterlimit="10" points="232.3,47.8 259.8,58.8 
			259.8,75.5 230.8,64.5 230.8,46.8 		"/>
		<path fill="#16638F" stroke="#C4E8F5" stroke-width="0.8991" stroke-miterlimit="10" d="M211.1,44.4v26.3l20.8-5V39.4l-7.5,2
			c0,0,2.4-6.3-3.8-6.3c-6.2,0-3,7.4-3,7.4L211.1,44.4z"/>
		<polygon fill="#16638F" stroke="#C4E8F5" stroke-width="0.8991" stroke-miterlimit="10" points="227.6,60 241.2,35.7 249.3,38 
			251.8,40.2 249.1,41.3 250.3,43.2 247.2,44.5 248.5,46.8 244.6,48.7 245.5,53 241.7,53.3 242.2,56.7 238,56.7 238.8,59.9 
			235.6,60.4 237.1,63.8 		"/>
		<path fill="#16638F" stroke="#C4E8F5" stroke-width="0.8991" stroke-miterlimit="10" d="M221.6,37.5l29,11.5l-1.5,3.2l-29.8-11.8
			C219.3,40.5,218.6,37.7,221.6,37.5z"/>
		<path fill="#16638F" stroke="#C4E8F5" stroke-width="0.8991" stroke-miterlimit="10" d="M240.1,55.4v26.3l20.8-5V50.4l-7.5,2
			c0,0,2.4-6.3-3.8-6.3c-6.2,0-3,7.4-3,7.4L240.1,55.4z"/>
		<g>
			<path fill="#16638F" d="M224.8,59.4c-0.1,0-0.1,0-0.2,0l-7.3-2.9c-0.1,0-0.1,0-0.1-0.1l-9-8.3l-1.9,0l-1,0.8l-0.5,1.7
				c0,0.1-0.1,0.3-0.3,0.3c0,0-0.1,0-0.2,0c-0.1,0-0.2,0-0.3-0.1l-3.5-2.5c-0.1-0.1-0.2-0.3-0.2-0.4c0-0.2,0.1-0.3,0.3-0.4l2.2-0.8
				V45c0-0.1,0-0.2,0.1-0.3l2.5-3c0,0,0.1-0.1,0.1-0.1c1.7-1,3.4-1.5,5.1-1.5c2.5,0,4.6,1.1,4.6,1.9c0,0.2-0.1,0.4-0.2,0.4
				c-0.1,0-0.2,0.1-0.3,0.1c-0.1,0-0.3,0-0.5-0.1c-0.3-0.1-0.5-0.1-0.8-0.1c-1.2,0-2.3,0.8-2.7,1.1l0.9,2.6l13.6,12.5
				c0.2,0.1,0.2,0.4,0.1,0.6C225,59.3,224.9,59.4,224.8,59.4z"/>
			<path fill="#C4E8F5" d="M210.7,40.6c2.9,0,4.6,1.5,4,1.5c-0.1,0-0.2,0-0.4-0.1c-0.3-0.1-0.7-0.2-1-0.2c-1.7,0-3.3,1.4-3.3,1.4
				l1,3l13.7,12.6l-7.3-2.9l-9.1-8.4l-2.2,0l-1.2,1l-0.5,1.9l-3.5-2.5l2.5-0.9v-2l2.5-3C207.6,41,209.3,40.6,210.7,40.6 M210.7,39.7
				L210.7,39.7c-1.8,0-3.6,0.5-5.3,1.5c-0.1,0.1-0.2,0.1-0.2,0.2l-2.5,3c-0.1,0.2-0.2,0.4-0.2,0.6v1.4l-1.9,0.7
				c-0.3,0.1-0.5,0.4-0.6,0.7s0.1,0.7,0.4,0.9l3.5,2.5c0.2,0.1,0.3,0.2,0.5,0.2c0.1,0,0.2,0,0.3-0.1c0.3-0.1,0.5-0.3,0.6-0.6
				l0.4-1.6l0.8-0.6l1.6,0l8.9,8.2c0.1,0.1,0.2,0.1,0.3,0.2l7.3,2.9c0.1,0,0.2,0.1,0.3,0.1c0.3,0,0.6-0.2,0.8-0.4
				c0.2-0.4,0.2-0.8-0.2-1.1l-13.5-12.5l-0.7-2.2c0.5-0.3,1.3-0.8,2.2-0.8c0.2,0,0.5,0,0.7,0.1c0.3,0.1,0.5,0.1,0.7,0.1
				c0.6,0,1-0.4,1-1C215.8,40.9,213.3,39.7,210.7,39.7L210.7,39.7z"/>
		</g>
		<polygon fill="#16638F" stroke="#C4E8F5" stroke-width="0.8991" stroke-miterlimit="10" points="212.6,54 240.1,65 240.1,81.7 
			211.1,70.7 211.1,53 		"/>
		<path fill="#16638F" stroke="#C4E8F5" stroke-width="0.8991" stroke-miterlimit="10" d="M225.2,47.7c0,0,0.6-1.1,2.2-0.5
			s1.9,7.5,1.9,7.5l0.6,1.2l-4,0.5V55C226,55,224.5,50.9,225.2,47.7z"/>
		<polygon fill="#16638F" stroke="#C4E8F5" stroke-width="0.8991" stroke-miterlimit="10" points="229,60.6 228.4,56.1 227.1,56.3 
			227.6,60 		"/>
	</g>
	<polygon fill="none" points="174.8,70.6 127.7,95.2 125.6,81.7 172.7,57.2 	"/>
	<text transform="matrix(1.1938 -0.6227 0.1511 0.9885 126.1862 85.2665)"><tspan x="0" y="0" fill="#FFFFFF" font-family="'Raleway-Regular'" font-size="5">Project </tspan><tspan x="0" y="6" fill="#FFFFFF" font-family="'Raleway-Regular'" font-size="5">B</tspan></text>
</g>
</svg>
