<?xml version="1.0" encoding="utf-8"?>
<!-- Generator: Adobe Illustrator 18.1.1, SVG Export Plug-In . SVG Version: 6.00 Build 0)  -->
<!DOCTYPE svg PUBLIC "-//W3C//DTD SVG 1.1//EN" "http://www.w3.org/Graphics/SVG/1.1/DTD/svg11.dtd">
<svg version="1.1" id="Layer_1" xmlns="http://www.w3.org/2000/svg" xmlns:xlink="http://www.w3.org/1999/xlink" x="0px" y="0px"
	 viewBox="0 0 612 792" enable-background="new 0 0 612 792" xml:space="preserve">
<path fill="#C4E8F5" d="M1,635.5c48.7,5.8,67.1,24.2,116.3,27c17.4,1,50.6-5,68-4c49.1,2.7,93.8,20.5,143,21.9
	c22.1,0.6,44,3.4,66.2,4.2c66.4,2.4,154.9-11,218.5,2.4l0,5.8l0.7-559.4l-0.8,0l0.3-15.7c-63.4-17.4-132.3,23.9-198.7,20.3
	c-22.1-1.2-44-4.8-66.1-5.8c-49.2-2.2-98.4,8.8-147.4,5c-17.4-1.3-34.5-4.5-51.8-5.9c-49.2-3.9-99.6,31.6-148.2,23.9l-0.1,13.9
	l-1.2,0.1l-0.4,498.7l2.4,0.1L1,635.5z"/>
</svg>
